<?xml version="1.0" encoding="UTF-8"?>
<svg id="a" data-name="Layer 3" xmlns="http://www.w3.org/2000/svg" viewBox="0 0 250.785 157.48">
  <g>
    <path d="M13.706,27.791c-.059-.309-.119-.605-.182-.891s-.127-.551-.193-.797-.121-.407-.164-.483-.089-.129-.138-.158-.11-.044-.185-.044c-.082,0-.156,.019-.223,.056s-.139,.102-.217,.193-.182,.235-.311,.431l-.381-.252c.246-.371,.482-.648,.709-.832s.494-.275,.803-.275c.121,0,.228,.014,.319,.041s.173,.069,.243,.126,.133,.13,.188,.22,.107,.212,.158,.366,.099,.346,.144,.574,.085,.466,.12,.712h.059c.375-.527,.659-.913,.853-1.157s.356-.426,.489-.545,.261-.203,.384-.252,.286-.073,.489-.073c.184,0,.334,.023,.451,.07l-.234,1.061h-.41c-.023-.164-.092-.246-.205-.246-.035,0-.072,.006-.111,.018s-.087,.037-.144,.076-.14,.115-.249,.229-.232,.252-.369,.416-.277,.336-.422,.516l-.398,.498c.07,.375,.137,.699,.199,.973s.118,.501,.167,.683,.092,.325,.129,.431,.077,.185,.12,.237,.087,.09,.132,.111,.097,.032,.155,.032c.105,0,.208-.041,.308-.123s.243-.268,.431-.557l.381,.252c-.273,.406-.521,.692-.741,.858s-.483,.249-.788,.249c-.168,0-.311-.03-.428-.091s-.219-.157-.305-.29-.162-.34-.229-.621c-.121-.5-.195-.883-.223-1.148h-.059c-.414,.582-.722,1-.923,1.254s-.367,.441-.498,.562-.258,.206-.381,.255-.286,.073-.489,.073c-.184,0-.334-.023-.451-.07l.234-1.061h.41c.023,.164,.092,.246,.205,.246,.055,0,.112-.015,.173-.044s.147-.1,.261-.211,.27-.286,.469-.524,.488-.596,.867-1.072Z" fill="#231f20"/>
    <path d="M19.672,33.544c0,.132,.007,.232,.022,.299,.015,.067,.041,.122,.078,.164,.038,.042,.092,.075,.162,.099s.159,.042,.267,.055,.248,.021,.424,.025v.25h-2.524v-.25c.253-.011,.433-.026,.541-.046s.19-.048,.248-.087c.057-.039,.099-.093,.124-.164,.026-.071,.04-.186,.04-.345v-2.771c0-.091-.017-.158-.048-.2-.032-.042-.079-.063-.141-.063-.072,0-.176,.038-.311,.112-.135,.075-.301,.179-.499,.311l-.15-.263,1.599-.953h.188c-.014,.218-.021,.521-.021,.908v2.917Z" fill="#231f20"/>
  </g>
  <g>
    <path d="M51.642,28.509c-.072,.276-.144,.552-.144,.84,0,.468,.228,.731,.707,.731,1.296,0,1.967-1.379,2.339-2.435,.096-.288,.18-.588,.18-.888,0-.887-.707-.792-.731-1.307-.023-.432,.36-.504,.647-.504,.504,0,.564,.612,.564,.996,0,1.751-1.26,4.605-3.311,4.605-.827,0-1.331-.336-1.331-1.199,0-.504,.144-1.02,.275-1.499-.479,1.067-1.463,2.698-2.807,2.698-.671,0-.936-.408-.936-1.043,0-.396,.133-.768,.229-1.139l.563-2.123c.036-.108,.06-.228,.06-.348,0-.288-.455-.264-.647-.264v-.18c.636-.108,1.26-.276,1.859-.528l.048,.036-.972,3.682c-.036,.156-.132,.54-.132,.875,0,.312,.072,.563,.336,.563,.695-.012,1.547-1.367,1.835-1.811,.636-.971,.947-1.907,1.319-3.226h1.008l-.96,3.466Z" fill="#231f20"/>
    <path d="M56.475,33.898c-.007,.042-.007,.07-.007,.098,0,.049,.042,.07,.091,.07,.154,0,.196-.083,.447-.356l.091,.07c-.244,.314-.594,.733-.937,.733-.195,0-.279-.133-.279-.321,0-.084,0-.217,.552-2.362,.008-.014,.015-.062,.015-.083,0-.119-.057-.154-.217-.154-.063,0-.146,.014-.196,.028l-.021-.112,1.104-.154-.644,2.544Zm.518-3.096c-.203,0-.336-.14-.336-.321,0-.175,.133-.35,.336-.35,.182,0,.335,.175,.335,.35,0,.182-.153,.321-.335,.321Z" fill="#231f20"/>
    <path d="M58.219,35.288c.384-.258,.58-.517,.58-.748,0-.049-.042-.091-.099-.091-.056,0-.125,.028-.202,.028-.259,0-.405-.119-.405-.356s.168-.398,.419-.398c.314,0,.56,.245,.56,.608,0,.419-.301,.86-.783,1.09l-.069-.133Z" fill="#231f20"/>
    <path d="M60.282,34.436v-.105c.517-.028,.664-.175,.664-.559v-3.138c0-.238-.063-.342-.21-.342-.07,0-.188,.035-.314,.083l-.188,.07v-.098l1.251-.636,.062,.021v4.172c0,.301,.14,.426,.664,.426v.105h-1.929Z" fill="#231f20"/>
  </g>
  <g>
    <path d="M15.108,55.748c.312-.479,.731-1.007,1.331-1.007,.384,0,.588,.144,.588,.396,0,.228-.155,.503-.468,.503-.264,0-.323-.108-.527-.108-.36,0-.492,.192-.66,.456l-.659,1.02c.359,.744,.636,2.363,1.175,2.363,.192,0,.48-.168,.732-.684l.168,.12c-.145,.18-.684,1.331-1.38,1.331-.491,0-.72-.492-.875-.923l-.48-1.355-.755,1.175c-.384,.588-.731,1.104-1.403,1.104-.432,0-.624-.3-.624-.563,0-.192,.156-.444,.456-.444,.312,0,.264,.24,.563,.24,.144,0,.456-.12,.84-.708l.779-1.211-.396-1.104c-.204-.576-.516-1.067-1.176-1.067-.155,0-.336,.024-.455,.072l-.036-.216,1.583-.396c.527,.288,.756,.78,.899,1.175l.24,.66,.539-.828Z" fill="#231f20"/>
    <path d="M18.069,60.434c.168-.412,.329-.65,.573-.838,.272-.209,.573-.293,.895-.293,.671,0,1.132,.517,1.132,1.181,0,.468-.216,.79-1.041,1.635l-1.313,1.342v.035h1.265c.412,0,.552-.104,.72-.454l.119,.049-.35,.937h-2.474v-.119l1.467-1.565c.462-.489,.776-.93,.944-1.307,.041-.091,.062-.224,.062-.377,0-.482-.279-.845-.832-.845-.419,0-.775,.203-1.02,.671l-.147-.049Z" fill="#231f20"/>
  </g>
  <g>
    <path d="M51.642,58.099c-.072,.276-.145,.552-.145,.84,0,.468,.229,.731,.708,.731,1.296,0,1.967-1.379,2.339-2.435,.096-.288,.18-.588,.18-.888,0-.887-.707-.792-.731-1.307-.024-.432,.36-.504,.647-.504,.504,0,.564,.612,.564,.996,0,1.751-1.26,4.605-3.311,4.605-.828,0-1.332-.336-1.332-1.199,0-.504,.145-1.02,.276-1.499-.479,1.067-1.464,2.698-2.807,2.698-.671,0-.936-.408-.936-1.043,0-.396,.132-.768,.228-1.139l.564-2.123c.035-.108,.06-.228,.06-.348,0-.288-.456-.264-.647-.264v-.18c.636-.108,1.26-.276,1.859-.528l.048,.036-.972,3.682c-.036,.156-.132,.54-.132,.875,0,.312,.071,.563,.336,.563,.695-.012,1.547-1.367,1.835-1.811,.635-.971,.947-1.907,1.318-3.226h1.008l-.959,3.466Z" fill="#231f20"/>
    <path d="M56.475,63.488c-.007,.042-.007,.07-.007,.098,0,.049,.042,.07,.091,.07,.154,0,.195-.083,.447-.356l.091,.07c-.245,.314-.595,.733-.937,.733-.195,0-.279-.133-.279-.321,0-.084,0-.217,.552-2.362,.007-.014,.015-.062,.015-.083,0-.119-.057-.154-.217-.154-.063,0-.146,.014-.196,.028l-.021-.112,1.104-.154-.643,2.544Zm.518-3.096c-.203,0-.336-.14-.336-.321,0-.175,.133-.35,.336-.35,.182,0,.335,.175,.335,.35,0,.182-.153,.321-.335,.321Z" fill="#231f20"/>
    <path d="M57.673,64.802c.371-.238,.531-.44,.531-.629,0-.07-.027-.119-.14-.203-.14-.104-.175-.209-.175-.342,0-.167,.154-.308,.356-.308,.251,0,.405,.238,.405,.518,0,.391-.321,.783-.908,1.09l-.07-.125Z" fill="#231f20"/>
    <path d="M60.017,60.434c.167-.412,.328-.65,.572-.838,.273-.209,.573-.293,.895-.293,.672,0,1.133,.517,1.133,1.181,0,.468-.217,.79-1.041,1.635l-1.314,1.342v.035h1.265c.413,0,.552-.104,.72-.454l.119,.049-.35,.937h-2.474v-.119l1.468-1.565c.461-.489,.775-.93,.943-1.307,.041-.091,.062-.224,.062-.377,0-.482-.279-.845-.832-.845-.419,0-.775,.203-1.02,.671l-.146-.049Z" fill="#231f20"/>
  </g>
  <g>
    <path d="M15.108,120.774c.312-.479,.731-1.007,1.331-1.007,.384,0,.588,.144,.588,.396,0,.228-.155,.503-.468,.503-.264,0-.323-.108-.527-.108-.36,0-.492,.192-.66,.456l-.659,1.02c.359,.744,.636,2.363,1.175,2.363,.192,0,.48-.168,.732-.684l.168,.12c-.145,.18-.684,1.331-1.38,1.331-.491,0-.72-.492-.875-.923l-.48-1.355-.755,1.175c-.384,.588-.731,1.104-1.403,1.104-.432,0-.624-.3-.624-.563,0-.192,.156-.444,.456-.444,.312,0,.264,.24,.563,.24,.144,0,.456-.12,.84-.708l.779-1.211-.396-1.104c-.204-.576-.516-1.067-1.176-1.067-.155,0-.336,.024-.455,.072l-.036-.216,1.583-.396c.527,.288,.756,.78,.899,1.175l.24,.66,.539-.828Z" fill="#231f20"/>
    <path d="M20.152,128.563c-.007,.021-.014,.063-.014,.084,0,.042,.034,.063,.104,.063,.14,0,.335-.245,.434-.392l.076,.084c-.209,.314-.58,.734-.908,.734-.224,0-.279-.161-.279-.287,0-.14,.014-.238,.069-.447h-.035c-.517,.65-.936,.734-1.194,.734-.511,0-.615-.517-.615-.888,0-.72,.72-2.278,1.796-2.278,.398,0,.56,.182,.566,.35h.014l.37-1.46c.008-.028,.015-.056,.015-.084,0-.091-.049-.14-.23-.14-.063,0-.141,.014-.189,.021l-.027-.104,1.09-.168-1.041,4.179Zm-.496-2.383c-.692,0-1.258,1.397-1.258,2.068,0,.342,.195,.461,.391,.461,.489,0,.951-.657,1.146-1.3,.077-.245,.111-.518,.111-.734,0-.329-.104-.496-.391-.496Z" fill="#231f20"/>
  </g>
  <g>
    <path d="M51.642,123.125c-.072,.276-.144,.552-.144,.84,0,.468,.228,.731,.707,.731,1.296,0,1.967-1.379,2.339-2.435,.096-.288,.18-.588,.18-.888,0-.887-.707-.792-.731-1.307-.023-.432,.36-.504,.647-.504,.504,0,.564,.612,.564,.996,0,1.751-1.26,4.605-3.311,4.605-.827,0-1.331-.336-1.331-1.199,0-.504,.144-1.02,.275-1.499-.479,1.067-1.463,2.698-2.807,2.698-.671,0-.936-.408-.936-1.043,0-.396,.133-.768,.229-1.139l.563-2.123c.036-.108,.06-.228,.06-.348,0-.288-.455-.264-.647-.264v-.18c.636-.108,1.26-.276,1.859-.528l.048,.036-.972,3.682c-.036,.156-.132,.54-.132,.875,0,.312,.072,.563,.336,.563,.695-.012,1.547-1.367,1.835-1.811,.636-.971,.947-1.907,1.319-3.226h1.008l-.96,3.466Z" fill="#231f20"/>
    <path d="M56.475,128.514c-.007,.042-.007,.07-.007,.098,0,.049,.042,.07,.091,.07,.154,0,.196-.083,.447-.356l.091,.07c-.244,.314-.594,.733-.937,.733-.195,0-.279-.133-.279-.321,0-.084,0-.217,.552-2.362,.008-.014,.015-.062,.015-.083,0-.119-.057-.154-.217-.154-.063,0-.146,.014-.196,.028l-.021-.112,1.104-.154-.644,2.544Zm.518-3.096c-.203,0-.336-.14-.336-.321,0-.175,.133-.35,.336-.35,.182,0,.335,.175,.335,.35,0,.182-.153,.321-.335,.321Z" fill="#231f20"/>
    <path d="M57.673,129.828c.371-.238,.531-.44,.531-.629,0-.07-.027-.119-.14-.203-.14-.104-.175-.209-.175-.342,0-.167,.154-.308,.356-.308,.252,0,.405,.238,.405,.518,0,.391-.321,.783-.908,1.09l-.07-.125Z" fill="#231f20"/>
    <path d="M62.099,128.563c-.007,.021-.014,.063-.014,.084,0,.042,.035,.063,.104,.063,.14,0,.336-.245,.434-.392l.077,.084c-.21,.314-.58,.734-.909,.734-.224,0-.279-.161-.279-.287,0-.14,.014-.238,.07-.447h-.035c-.518,.65-.937,.734-1.195,.734-.51,0-.615-.517-.615-.888,0-.72,.721-2.278,1.797-2.278,.398,0,.559,.182,.565,.35h.015l.37-1.46c.007-.028,.014-.056,.014-.084,0-.091-.049-.14-.23-.14-.062,0-.14,.014-.188,.021l-.028-.104,1.091-.168-1.042,4.179Zm-.496-2.383c-.691,0-1.258,1.397-1.258,2.068,0,.342,.195,.461,.392,.461,.489,0,.95-.657,1.146-1.3,.077-.245,.112-.518,.112-.734,0-.329-.104-.496-.392-.496Z" fill="#231f20"/>
  </g>
  <g>
    <path d="M112.12,26.906c.396-.384,.863-.755,1.451-.755,.84,0,1.331,.828,1.331,1.811,0,1.451-1.308,3.61-3.19,3.61-.635,0-1.127-.216-1.667-.576l1.728-6.752c.012-.048,.023-.096,.023-.132-.012-.156-.191-.251-.348-.251-.119,0-.264,.012-.359,.048l-.036-.192,1.895-.288-.876,3.43,.049,.048Zm-1.127,4.09c0,.084,.383,.228,.659,.228,1.463,0,2.255-2.087,2.255-3.31,0-.84-.456-1.104-.852-1.104-.863,0-1.271,1.067-1.403,1.607l-.659,2.579Z" fill="#231f20"/>
    <path d="M116.089,34.898c-.008,.042-.008,.07-.008,.098,0,.049,.043,.07,.092,.07,.153,0,.195-.083,.447-.356l.09,.07c-.244,.314-.594,.733-.936,.733-.196,0-.279-.133-.279-.321,0-.084,0-.217,.551-2.362,.008-.014,.015-.062,.015-.083,0-.119-.056-.154-.217-.154-.063,0-.146,.014-.196,.028l-.02-.112,1.104-.154-.643,2.544Zm.517-3.096c-.202,0-.335-.14-.335-.321,0-.175,.133-.35,.335-.35,.182,0,.335,.175,.335,.35,0,.182-.153,.321-.335,.321Z" fill="#231f20"/>
  </g>
  <circle cx="54.373" cy="29.44" r="12.181" fill="none" stroke="#231f20" stroke-miterlimit="10" stroke-width=".75"/>
  <circle cx="114.068" cy="29.44" r="12.181" fill="none" stroke="#231f20" stroke-miterlimit="10" stroke-width=".75"/>
  <circle cx="114.068" cy="77.206" r="18.941" fill="none" stroke="#231f20" stroke-miterlimit="10" stroke-width="1.166"/>
  <circle cx="54.373" cy="58.264" r="12.181" fill="none" stroke="#231f20" stroke-miterlimit="10" stroke-width=".75"/>
  <circle cx="54.373" cy="124.056" r="12.181" fill="none" stroke="#231f20" stroke-miterlimit="10" stroke-width=".75"/>
  <path d="M121.02,87.971h-16.393l8.625-11.222-8.075-11.266h16.437v5.523h-.66c-.462-2.97-1.298-4.071-4.225-4.071h-7.041l6.381,8.604-7.393,9.549h9.109c2.464,0,3.256-1.496,3.74-3.697h.66l-1.166,6.579Z" fill="#231f20"/>
  <path d="M178.902,72.609c2.267,0,4.291,.836,4.291,3.41,0,1.716-.595,3.234-1.761,4.489-1.32,1.43-3.059,2.024-4.973,2.024l-1.056,3.784h-1.782l1.012-3.784c-2.376,0-4.202-1.232-4.202-3.763,0-1.672,.682-3.125,1.848-4.312,1.232-1.254,2.751-1.848,4.511-1.848h.353c.418-1.672,.813-3.345,1.166-5.017h1.804l-1.21,5.017Zm-1.893,.638c-2.86,0-4.73,2.949-4.73,5.567,0,1.386,1.013,3.059,2.553,3.059l2.178-8.625Zm-.396,8.625c2.662,0,4.708-3.323,4.708-5.743,0-1.738-.704-2.905-2.574-2.883l-2.134,8.625Z" fill="#231f20"/>
  <g>
    <path d="M229.523,79.389c1.342-1.826,2.112-3.146,2.596-4.048,.44-.814,.616-1.254,.616-1.65,0-.462-1.144-.682-1.144-1.518,0-.484,.396-.88,1.033-.88,.704,0,1.255,.506,1.255,1.364,0,1.716-3.564,6.997-4.489,8.164-1.605,2.024-3.036,4.18-4.532,4.18-.814,0-1.232-.682-1.232-1.21,0-.66,.595-.902,.88-.902,.946,0,.902,.682,1.255,.682,.374,0,1.628-1.364,2.2-2.244l-.836-6.909c-.11-.99-.309-2.31-1.541-2.31-.241,0-.594,.066-.792,.088l-.044-.352,3.301-.55c.506,.726,.66,1.298,.858,2.926l.616,5.17Z" fill="#231f20"/>
    <path d="M233.41,87.311c-.013,.077-.013,.128-.013,.18,0,.09,.076,.128,.166,.128,.283,0,.359-.154,.821-.654l.167,.128c-.449,.577-1.091,1.347-1.72,1.347-.359,0-.513-.244-.513-.59,0-.154,0-.398,1.014-4.337,.013-.025,.025-.115,.025-.154,0-.218-.103-.282-.397-.282-.115,0-.27,.025-.359,.051l-.039-.206,2.028-.282-1.181,4.671Zm.949-5.685c-.372,0-.616-.257-.616-.59,0-.321,.244-.642,.616-.642,.334,0,.616,.321,.616,.642,0,.333-.282,.59-.616,.59Z" fill="#231f20"/>
  </g>
  <rect x="158.551" y="58.264" width="37.453" height="37.453" fill="none" stroke="#231f20" stroke-miterlimit="10" stroke-width=".75"/>
  <g>
    <line x1="25.528" y1="28.44" x2="39.928" y2="28.44" fill="none" stroke="#231f20" stroke-miterlimit="10" stroke-width=".75"/>
    <g>
      <path d="M25.608,29.85c-.779,0-1.41-.631-1.41-1.41s.631-1.41,1.41-1.41,1.41,.631,1.41,1.41-.631,1.41-1.41,1.41Z" fill="#fff"/>
      <path d="M25.608,30.037c.881,0,1.597-.717,1.597-1.597s-.717-1.597-1.597-1.597-1.597,.717-1.597,1.597,.717,1.597,1.597,1.597-.881,0,0,0Zm0-2.82c.674,0,1.222,.548,1.222,1.222s-.548,1.222-1.222,1.222-1.222-.548-1.222-1.222,.548-1.222,1.222-1.222-.674,0,0,0Z" fill="#231f20"/>
    </g>
    <path d="M42.191,28.44c-1.065,.395-2.386,1.069-3.205,1.783l.645-1.783-.645-1.783c.819,.714,2.14,1.388,3.205,1.783Z" fill="#231f20"/>
  </g>
  <g>
    <line x1="25.528" y1="58.264" x2="39.928" y2="58.264" fill="none" stroke="#231f20" stroke-miterlimit="10" stroke-width=".75"/>
    <g>
      <path d="M25.608,59.674c-.779,0-1.41-.631-1.41-1.41s.631-1.41,1.41-1.41,1.41,.631,1.41,1.41-.631,1.41-1.41,1.41Z" fill="#fff"/>
      <path d="M25.608,59.862c.881,0,1.597-.717,1.597-1.597s-.717-1.597-1.597-1.597-1.597,.717-1.597,1.597,.717,1.597,1.597,1.597-.881,0,0,0Zm0-2.82c.674,0,1.222,.548,1.222,1.222s-.548,1.222-1.222,1.222-1.222-.548-1.222-1.222,.548-1.222,1.222-1.222-.674,0,0,0Z" fill="#231f20"/>
    </g>
    <path d="M42.191,58.264c-1.065,.395-2.386,1.069-3.205,1.783l.645-1.783-.645-1.783c.819,.714,2.14,1.388,3.205,1.783Z" fill="#231f20"/>
  </g>
  <g>
    <line x1="25.528" y1="125.056" x2="39.928" y2="125.056" fill="none" stroke="#231f20" stroke-miterlimit="10" stroke-width=".75"/>
    <g>
      <path d="M25.608,126.466c-.779,0-1.41-.631-1.41-1.41s.631-1.41,1.41-1.41,1.41,.631,1.41,1.41-.631,1.41-1.41,1.41Z" fill="#fff"/>
      <path d="M25.608,126.654c.881,0,1.597-.717,1.597-1.597s-.717-1.597-1.597-1.597-1.597,.717-1.597,1.597,.717,1.597,1.597,1.597-.881,0,0,0Zm0-2.82c.674,0,1.222,.548,1.222,1.222s-.548,1.222-1.222,1.222-1.222-.548-1.222-1.222,.548-1.222,1.222-1.222-.674,0,0,0Z" fill="#231f20"/>
    </g>
    <path d="M42.191,125.056c-1.065,.395-2.386,1.069-3.205,1.783l.645-1.783-.645-1.783c.819,.714,2.14,1.388,3.205,1.783Z" fill="#231f20"/>
  </g>
  <g>
    <polyline points="66.554 29.44 80.463 29.44 101.804 59.912" fill="none" stroke="#231f20" stroke-miterlimit="10" stroke-width=".75"/>
    <path d="M103.102,61.766c-.935-.646-2.245-1.341-3.299-1.602l1.831-.495,1.09-1.551c-.115,1.081,.091,2.55,.378,3.648Z" fill="#231f20"/>
  </g>
  <g>
    <polyline points="66.554 58.264 80.463 58.264 95.933 66.228" fill="none" stroke="#231f20" stroke-miterlimit="10" stroke-width=".75"/>
    <path d="M97.945,67.264c-1.128-.136-2.611-.141-3.666,.119l1.39-1.29,.243-1.881c.401,1.01,1.268,2.214,2.034,3.052Z" fill="#231f20"/>
  </g>
  <g>
    <polyline points="66.554 125.056 80.463 125.056 100.646 94.247" fill="none" stroke="#231f20" stroke-miterlimit="10" stroke-width=".75"/>
    <path d="M101.886,92.354c-.253,1.107-.413,2.582-.265,3.658l-1.138-1.517-1.845-.438c1.046-.294,2.334-1.03,3.248-1.704Z" fill="#231f20"/>
  </g>
  <g>
    <polyline points="114.068 41.621 114.068 48.441 114.068 56.001" fill="none" stroke="#231f20" stroke-miterlimit="10" stroke-width=".75"/>
    <path d="M114.068,58.264c-.395-1.065-1.069-2.386-1.783-3.205l1.783,.645,1.783-.645c-.714,.819-1.388,2.14-1.783,3.205Z" fill="#231f20"/>
  </g>
  <g>
    <polyline points="133.009 76.991 143.631 76.991 156.288 77.173" fill="none" stroke="#231f20" stroke-miterlimit="10" stroke-width=".75"/>
    <path d="M158.551,77.206c-1.07,.38-2.401,1.035-3.231,1.737l.671-1.774-.619-1.792c.809,.726,2.12,1.419,3.179,1.829Z" fill="#231f20"/>
  </g>
  <g>
    <polyline points="196.005 76.884 206.626 76.884 219.284 77.066" fill="none" stroke="#231f20" stroke-miterlimit="10" stroke-width=".75"/>
    <path d="M221.547,77.098c-1.071,.38-2.401,1.035-3.231,1.737l.671-1.774-.619-1.792c.809,.726,2.12,1.419,3.179,1.829Z" fill="#231f20"/>
  </g>
  <g>
    <path d="M13.813,79.403c0-.29,.064-.546,.193-.769s.308-.396,.537-.518,.486-.183,.77-.183c.267,0,.512,.064,.736,.193s.404,.309,.537,.542c.134,.233,.201,.491,.201,.774,0,.29-.062,.546-.188,.769s-.3,.395-.524,.515-.48,.181-.768,.181c-.283,0-.538-.064-.766-.193-.229-.128-.406-.308-.535-.537s-.193-.487-.193-.774Z" fill="#231f20"/>
    <path d="M13.813,83.837c0-.29,.064-.546,.193-.769s.308-.396,.537-.518,.486-.183,.77-.183c.267,0,.512,.064,.736,.193s.404,.309,.537,.542c.134,.233,.201,.491,.201,.774,0,.29-.062,.546-.188,.769s-.3,.395-.524,.515-.48,.181-.768,.181c-.283,0-.538-.064-.766-.193-.229-.128-.406-.308-.535-.537s-.193-.487-.193-.774Z" fill="#231f20"/>
    <path d="M13.813,88.27c0-.29,.064-.546,.193-.769s.308-.396,.537-.518,.486-.183,.77-.183c.267,0,.512,.064,.736,.193s.404,.309,.537,.542c.134,.233,.201,.491,.201,.774,0,.29-.062,.546-.188,.769s-.3,.395-.524,.515-.48,.181-.768,.181c-.283,0-.538-.064-.766-.193-.229-.128-.406-.308-.535-.537s-.193-.487-.193-.774Z" fill="#231f20"/>
    <path d="M13.813,92.704c0-.29,.064-.546,.193-.769s.308-.396,.537-.518,.486-.183,.77-.183c.267,0,.512,.064,.736,.193s.404,.309,.537,.542c.134,.233,.201,.491,.201,.774,0,.29-.062,.546-.188,.769s-.3,.395-.524,.515-.48,.181-.768,.181c-.283,0-.538-.064-.766-.193-.229-.128-.406-.308-.535-.537s-.193-.487-.193-.774Z" fill="#231f20"/>
    <path d="M13.813,97.138c0-.29,.064-.546,.193-.769s.308-.396,.537-.518,.486-.183,.77-.183c.267,0,.512,.064,.736,.193s.404,.309,.537,.542c.134,.233,.201,.491,.201,.774,0,.29-.062,.546-.188,.769s-.3,.395-.524,.515-.48,.181-.768,.181c-.283,0-.538-.064-.766-.193-.229-.128-.406-.308-.535-.537s-.193-.487-.193-.774Z" fill="#231f20"/>
    <path d="M13.813,101.571c0-.29,.064-.546,.193-.769s.308-.396,.537-.518,.486-.183,.77-.183c.267,0,.512,.064,.736,.193s.404,.309,.537,.542c.134,.233,.201,.491,.201,.774,0,.29-.062,.546-.188,.769s-.3,.395-.524,.515-.48,.181-.768,.181c-.283,0-.538-.064-.766-.193-.229-.128-.406-.308-.535-.537s-.193-.487-.193-.774Z" fill="#231f20"/>
  </g>
  <g>
    <path d="M49.96,79.403c0-.29,.064-.546,.193-.769,.128-.223,.307-.396,.537-.518,.229-.122,.485-.183,.769-.183,.267,0,.513,.064,.737,.193s.404,.309,.537,.542,.2,.491,.2,.774c0,.29-.062,.546-.188,.769-.125,.223-.3,.395-.524,.515s-.479,.181-.767,.181c-.283,0-.539-.064-.767-.193s-.406-.308-.534-.537c-.129-.229-.193-.487-.193-.774Z" fill="#231f20"/>
    <path d="M49.96,83.837c0-.29,.064-.546,.193-.769,.128-.223,.307-.396,.537-.518,.229-.122,.485-.183,.769-.183,.267,0,.513,.064,.737,.193s.404,.309,.537,.542,.2,.491,.2,.774c0,.29-.062,.546-.188,.769-.125,.223-.3,.395-.524,.515s-.479,.181-.767,.181c-.283,0-.539-.064-.767-.193s-.406-.308-.534-.537c-.129-.229-.193-.487-.193-.774Z" fill="#231f20"/>
    <path d="M49.96,88.27c0-.29,.064-.546,.193-.769,.128-.223,.307-.396,.537-.518,.229-.122,.485-.183,.769-.183,.267,0,.513,.064,.737,.193s.404,.309,.537,.542,.2,.491,.2,.774c0,.29-.062,.546-.188,.769-.125,.223-.3,.395-.524,.515s-.479,.181-.767,.181c-.283,0-.539-.064-.767-.193s-.406-.308-.534-.537c-.129-.229-.193-.487-.193-.774Z" fill="#231f20"/>
    <path d="M49.96,92.704c0-.29,.064-.546,.193-.769,.128-.223,.307-.396,.537-.518,.229-.122,.485-.183,.769-.183,.267,0,.513,.064,.737,.193s.404,.309,.537,.542,.2,.491,.2,.774c0,.29-.062,.546-.188,.769-.125,.223-.3,.395-.524,.515s-.479,.181-.767,.181c-.283,0-.539-.064-.767-.193s-.406-.308-.534-.537c-.129-.229-.193-.487-.193-.774Z" fill="#231f20"/>
    <path d="M49.96,97.138c0-.29,.064-.546,.193-.769,.128-.223,.307-.396,.537-.518,.229-.122,.485-.183,.769-.183,.267,0,.513,.064,.737,.193s.404,.309,.537,.542,.2,.491,.2,.774c0,.29-.062,.546-.188,.769-.125,.223-.3,.395-.524,.515s-.479,.181-.767,.181c-.283,0-.539-.064-.767-.193s-.406-.308-.534-.537c-.129-.229-.193-.487-.193-.774Z" fill="#231f20"/>
    <path d="M49.96,101.571c0-.29,.064-.546,.193-.769,.128-.223,.307-.396,.537-.518,.229-.122,.485-.183,.769-.183,.267,0,.513,.064,.737,.193s.404,.309,.537,.542,.2,.491,.2,.774c0,.29-.062,.546-.188,.769-.125,.223-.3,.395-.524,.515s-.479,.181-.767,.181c-.283,0-.539-.064-.767-.193s-.406-.308-.534-.537c-.129-.229-.193-.487-.193-.774Z" fill="#231f20"/>
  </g>
  <g>
    <path d="M44.749,142.463c.205,0,.404,.006,.599,.018,.193,.012,.381,.031,.562,.057s.357,.063,.527,.11l-.079,.58c-.182-.018-.365-.032-.55-.044s-.362-.019-.532-.022-.331-.004-.483-.004c-.328,0-.604,.031-.83,.092-.227,.062-.406,.18-.541,.356-.135,.176-.233,.428-.295,.756s-.092,.756-.092,1.284c0,.598,.041,1.074,.123,1.429s.22,.611,.413,.769c.193,.159,.451,.238,.773,.238,.223,0,.427-.032,.611-.097s.357-.148,.519-.251c.161-.103,.318-.209,.471-.321l.105,.475c-.105,.124-.251,.252-.436,.387s-.4,.249-.646,.343-.524,.141-.835,.141c-.451,0-.819-.113-1.104-.338s-.491-.572-.619-1.038c-.13-.466-.194-1.062-.194-1.789,0-.803,.081-1.432,.242-1.886,.161-.455,.428-.775,.8-.963s.869-.281,1.49-.281Zm1.847,2.673v3.508h-.562l-.123-.897-.07-.176v-2.435h.756Z" fill="#231f20"/>
    <path d="M49.638,144.257c.645,0,1.112,.117,1.402,.352s.436,.583,.436,1.046c.006,.381-.073,.679-.237,.893s-.426,.321-.783,.321h-2.496v-.581h2.303c.193,0,.319-.066,.378-.198s.088-.277,.088-.435c-.006-.275-.088-.472-.246-.589s-.428-.176-.809-.176c-.311,0-.556,.046-.734,.137s-.305,.249-.378,.475-.109,.541-.109,.945c0,.458,.045,.806,.136,1.046,.091,.241,.236,.404,.436,.493,.199,.088,.463,.132,.791,.132,.229,0,.479-.01,.752-.031s.518-.045,.734-.075l.079,.501c-.135,.053-.301,.097-.497,.132s-.398,.062-.606,.079-.395,.026-.559,.026c-.492,0-.888-.075-1.187-.224s-.518-.39-.655-.721c-.138-.331-.207-.769-.207-1.314,0-.563,.069-1.007,.207-1.332,.138-.326,.352-.557,.642-.695s.664-.207,1.121-.207Z" fill="#231f20"/>
    <path d="M58.939,144.362l-1.248,4.071c-.018,.064-.053,.116-.105,.154s-.114,.057-.185,.057h-.678c-.07,0-.133-.022-.188-.066s-.09-.101-.102-.171l-.703-2.91c-.023-.111-.046-.223-.065-.334-.021-.111-.046-.226-.075-.343h-.105c-.023,.118-.049,.232-.075,.343s-.051,.223-.074,.334l-.694,2.91c-.018,.07-.053,.127-.105,.171s-.117,.066-.193,.066h-.669c-.07,0-.132-.019-.185-.057s-.088-.089-.105-.154l-1.248-4.071h.773l.888,3.156c.029,.105,.056,.212,.079,.321,.023,.109,.044,.216,.062,.321h.114c.029-.105,.058-.212,.084-.321,.026-.108,.051-.215,.075-.321l.712-2.919c.012-.07,.042-.127,.092-.171s.113-.066,.189-.066h.677c.07,0,.131,.022,.181,.066s.083,.104,.101,.18l.703,2.91c.023,.105,.049,.211,.075,.316,.026,.106,.051,.214,.074,.326h.115c.028-.111,.053-.218,.07-.321,.018-.102,.044-.209,.079-.321l.888-3.156h.773Z" fill="#231f20"/>
    <path d="M60.425,142.542c.152,0,.229,.076,.229,.229v.501c0,.153-.076,.229-.229,.229h-.352c-.152,0-.229-.076-.229-.229v-.501c0-.152,.076-.229,.229-.229h.352Zm.193,1.82v4.282h-.738v-4.282h.738Z" fill="#231f20"/>
    <path d="M63.854,144.257c.129,0,.272,.006,.431,.018s.32,.032,.487,.062,.321,.07,.462,.123l-.097,.483c-.193-.018-.397-.031-.611-.04s-.396-.013-.549-.013c-.341,0-.61,.047-.81,.141s-.343,.258-.431,.492-.132,.56-.132,.976,.044,.743,.132,.98,.231,.403,.431,.497,.469,.141,.81,.141c.088,0,.202-.003,.343-.009s.291-.015,.452-.026,.315-.029,.462-.053l.079,.501c-.217,.076-.453,.132-.708,.167s-.508,.053-.76,.053c-.493,0-.889-.073-1.188-.22s-.514-.384-.646-.712c-.132-.328-.197-.768-.197-1.318s.067-.991,.202-1.319c.135-.329,.352-.564,.65-.708s.694-.215,1.188-.215Z" fill="#231f20"/>
    <path d="M67.071,142.49l.009,1.697c0,.193-.007,.375-.021,.545-.015,.17-.037,.32-.066,.449l.079,.132v3.332h-.747v-6.154h.747Zm1.855,1.767c.773,0,1.16,.393,1.16,1.178v3.209h-.756v-2.998c0-.287-.046-.485-.137-.593s-.247-.163-.47-.163c-.264,0-.527,.062-.791,.185-.265,.123-.578,.302-.941,.536l-.035-.536c.334-.252,.665-.452,.994-.598,.328-.146,.653-.22,.976-.22Z" fill="#231f20"/>
    <path d="M73.868,144.362v.589h-2.884v-.545l.844-.044h2.04Zm-1.363-1.266v4.37c0,.206,.044,.352,.132,.439,.088,.088,.237,.132,.449,.132h.65l.088,.571c-.094,.023-.202,.044-.325,.062s-.243,.031-.36,.04c-.118,.009-.212,.013-.282,.013-.357,0-.63-.1-.817-.299s-.281-.486-.281-.862v-4.466h.747Z" fill="#231f20"/>
    <path d="M76.541,144.257c.645,0,1.111,.117,1.402,.352,.29,.234,.435,.583,.435,1.046,.006,.381-.073,.679-.237,.893s-.425,.321-.782,.321h-2.497v-.581h2.304c.193,0,.319-.066,.378-.198s.088-.277,.088-.435c-.006-.275-.088-.472-.246-.589s-.428-.176-.809-.176c-.312,0-.556,.046-.734,.137s-.305,.249-.378,.475-.11,.541-.11,.945c0,.458,.046,.806,.137,1.046,.091,.241,.235,.404,.435,.493,.199,.088,.463,.132,.792,.132,.229,0,.479-.01,.751-.031s.518-.045,.734-.075l.079,.501c-.135,.053-.3,.097-.496,.132-.197,.035-.399,.062-.607,.079s-.394,.026-.558,.026c-.493,0-.889-.075-1.188-.224s-.518-.39-.655-.721c-.138-.331-.206-.769-.206-1.314,0-.563,.068-1.007,.206-1.332,.138-.326,.353-.557,.643-.695s.663-.207,1.121-.207Z" fill="#231f20"/>
  </g>
  <g>
    <path d="M138.33,125.461c.07,0,.132,.019,.185,.057s.088,.089,.105,.154l1.952,5.855h-.801l-1.573-4.976c-.023-.082-.049-.166-.075-.251-.026-.084-.051-.166-.074-.242h-.246c-.023,.076-.047,.157-.07,.242-.023,.085-.05,.169-.079,.251l-1.574,4.976h-.8l1.951-5.855c.018-.064,.053-.116,.105-.154,.054-.038,.115-.057,.186-.057h.809Zm1.125,3.499v.668h-3.077v-.668h3.077Z" fill="#231f20"/>
    <path d="M142.093,125.373l.009,2.734c0,.182-.007,.35-.021,.505s-.037,.318-.066,.488c.029,.165,.05,.329,.062,.493s.018,.322,.018,.475v1.459h-.747v-6.154h.747Zm.729,3.464v.545h-.993v-.545h.993Zm2.022-1.591l-1.345,1.574c-.041,.053-.091,.107-.149,.163s-.108,.098-.149,.127v.018c.041,.03,.091,.078,.149,.145,.059,.068,.108,.134,.149,.198l1.485,2.057h-.87l-1.697-2.453,1.557-1.829h.87Z" fill="#231f20"/>
    <path d="M148.256,127.245v.589h-2.884v-.545l.844-.044h2.04Zm-1.363-1.266v4.37c0,.206,.044,.352,.132,.439,.088,.088,.237,.132,.449,.132h.65l.088,.571c-.094,.023-.202,.044-.325,.062s-.243,.031-.36,.04c-.118,.009-.212,.013-.282,.013-.357,0-.63-.1-.817-.299s-.281-.486-.281-.862v-4.466h.747Z" fill="#231f20"/>
    <path d="M149.751,125.426c.152,0,.229,.076,.229,.229v.501c0,.153-.076,.229-.229,.229h-.352c-.153,0-.229-.076-.229-.229v-.501c0-.152,.076-.229,.229-.229h.352Zm.193,1.82v4.282h-.739v-4.282h.739Z" fill="#231f20"/>
    <path d="M155.157,127.245l-1.564,4.097c-.023,.059-.058,.104-.102,.136s-.098,.048-.162,.048h-.678c-.059,0-.111-.016-.158-.048s-.082-.078-.105-.136l-1.564-4.097h.8l1.055,2.998c.047,.123,.091,.249,.132,.378,.041,.129,.082,.252,.124,.37h.114c.047-.123,.092-.248,.136-.374,.044-.126,.087-.25,.128-.374l1.055-2.998h.791Z" fill="#231f20"/>
    <path d="M156.591,125.426c.152,0,.229,.076,.229,.229v.501c0,.153-.076,.229-.229,.229h-.352c-.153,0-.229-.076-.229-.229v-.501c0-.152,.076-.229,.229-.229h.352Zm.193,1.82v4.282h-.739v-4.282h.739Z" fill="#231f20"/>
    <path d="M159.949,127.14c.645,0,1.111,.117,1.402,.352,.29,.234,.435,.583,.435,1.046,.006,.381-.073,.679-.237,.893s-.425,.321-.782,.321h-2.497v-.581h2.304c.193,0,.319-.066,.378-.198s.088-.277,.088-.435c-.006-.275-.088-.472-.246-.589s-.428-.176-.809-.176c-.312,0-.556,.046-.734,.137s-.305,.249-.378,.475-.11,.541-.11,.945c0,.458,.046,.806,.137,1.046,.091,.241,.235,.404,.435,.493,.199,.088,.463,.132,.792,.132,.229,0,.479-.01,.751-.031s.518-.045,.734-.075l.079,.501c-.135,.053-.3,.097-.496,.132-.197,.035-.399,.062-.607,.079s-.394,.026-.558,.026c-.493,0-.889-.075-1.188-.224s-.518-.39-.655-.721c-.138-.331-.206-.769-.206-1.314,0-.563,.068-1.007,.206-1.332,.138-.326,.353-.557,.643-.695s.663-.207,1.121-.207Z" fill="#231f20"/>
    <path d="M163.492,127.245l.097,.818,.07,.132v3.332h-.748v-4.282h.581Zm2.101-.105l-.088,.703h-.246c-.252,0-.504,.052-.756,.154s-.56,.248-.923,.435l-.062-.466c.316-.258,.634-.46,.954-.607,.319-.146,.628-.22,.927-.22h.193Z" fill="#231f20"/>
    <path d="M167.158,127.245v3.007c-.006,.27,.044,.46,.149,.572s.281,.167,.527,.167c.24,0,.479-.057,.717-.171,.237-.115,.522-.28,.857-.497l.097,.519c-.335,.264-.658,.463-.972,.598s-.632,.202-.954,.202c-.779,0-1.17-.393-1.17-1.178v-3.218h.748Zm2.919,0v4.282h-.598l-.07-.809-.08-.132v-3.341h.748Z" fill="#231f20"/>
    <path d="M172.082,127.245l.062,.818,.053,.132v3.332h-.748v-4.282h.634Zm1.969-.105c.774,0,1.161,.393,1.161,1.178v3.209h-.747v-2.998c0-.287-.048-.485-.142-.593s-.252-.163-.475-.163c-.264,0-.527,.065-.791,.194s-.577,.305-.94,.527l-.035-.536c.334-.258,.665-.459,.993-.603s.653-.215,.976-.215Z" fill="#231f20"/>
    <path d="M177.04,129.584l.431,.062c-.1,.088-.167,.195-.202,.321s-.024,.242,.031,.347,.174,.173,.355,.202l1.601,.255c.404,.059,.686,.185,.844,.378s.237,.469,.237,.826c0,.334-.062,.598-.188,.792s-.339,.331-.638,.413-.703,.123-1.213,.123c-.388,0-.713-.022-.977-.066s-.476-.117-.637-.22c-.162-.103-.277-.236-.348-.4s-.105-.37-.105-.616c0-.188,.027-.344,.083-.47s.144-.239,.264-.338,.277-.196,.471-.29l.527-.291,.343,.123-.431,.326c-.117,.088-.215,.174-.294,.259s-.138,.176-.176,.272-.058,.212-.058,.347c0,.199,.038,.352,.114,.458s.211,.177,.404,.215,.463,.057,.81,.057,.613-.021,.804-.062,.324-.114,.4-.22,.114-.255,.114-.449c0-.146-.02-.258-.057-.334-.039-.076-.11-.135-.216-.176s-.261-.076-.466-.105l-1.539-.211c-.182-.023-.326-.082-.435-.176-.109-.094-.184-.205-.225-.334-.041-.129-.053-.259-.035-.391s.062-.255,.132-.369,.161-.201,.272-.259Zm1.214-2.444c.457,0,.818,.047,1.085,.141s.458,.24,.572,.439c.114,.2,.171,.46,.171,.783,0,.311-.057,.567-.171,.769-.114,.203-.307,.352-.576,.449s-.633,.145-1.09,.145-.819-.048-1.086-.145-.457-.245-.572-.444c-.114-.199-.171-.454-.171-.765,0-.322,.057-.584,.171-.787,.115-.202,.307-.35,.576-.444s.633-.141,1.091-.141Zm-.009,.571c-.429,0-.726,.061-.893,.181s-.251,.324-.251,.611c0,.281,.084,.483,.251,.606s.464,.185,.893,.185c.434,0,.732-.062,.896-.185s.246-.325,.246-.606c0-.287-.082-.491-.246-.611s-.463-.181-.896-.181Zm2.338-.466l-.044,.413-1.09,.088-.308-.501h1.441Z" fill="#231f20"/>
    <path d="M182.887,127.14c.188,0,.387,.006,.598,.018s.421,.026,.629,.044,.4,.041,.576,.07l-.062,.545c-.271-.011-.541-.022-.813-.031s-.544-.013-.813-.013c-.264-.005-.472,0-.624,.018s-.263,.065-.33,.141-.101,.205-.101,.387c0,.223,.053,.369,.158,.439s.261,.129,.466,.176l1.248,.281c.34,.083,.591,.208,.752,.378s.242,.437,.242,.8c0,.352-.066,.616-.198,.792s-.333,.293-.603,.352-.612,.088-1.028,.088c-.152,0-.38-.006-.682-.018s-.634-.047-.998-.105l.053-.545c.141,.006,.291,.013,.449,.022s.323,.013,.496,.013h.532c.322,0,.574-.015,.756-.044s.311-.086,.387-.172c.076-.084,.114-.212,.114-.382,0-.211-.062-.352-.185-.422s-.287-.129-.492-.176l-1.23-.281c-.234-.059-.422-.136-.562-.233-.142-.097-.244-.223-.309-.378s-.097-.35-.097-.584c0-.334,.059-.586,.176-.756,.117-.17,.3-.284,.546-.343s.562-.085,.949-.079Z" fill="#231f20"/>
    <path d="M188.382,127.245v.589h-2.893v-.545l.817-.044h2.075Zm-.87-2.022c.093,0,.214,.001,.36,.004s.296,.009,.448,.018,.284,.022,.396,.04l-.062,.554h-.879c-.281,0-.479,.056-.594,.167s-.172,.296-.172,.554v4.967h-.747v-5.046c0-.27,.041-.497,.123-.682s.214-.327,.396-.426,.425-.149,.73-.149Z" fill="#231f20"/>
    <path d="M189.99,127.245v3.007c-.006,.27,.044,.46,.149,.572s.281,.167,.527,.167c.24,0,.479-.057,.717-.171,.237-.115,.523-.28,.857-.497l.097,.519c-.334,.264-.658,.463-.972,.598s-.632,.202-.954,.202c-.779,0-1.169-.393-1.169-1.178v-3.218h.747Zm2.919,0v4.282h-.598l-.07-.809-.079-.132v-3.341h.747Z" fill="#231f20"/>
    <path d="M194.914,127.245l.062,.818,.053,.132v3.332h-.747v-4.282h.633Zm1.97-.105c.773,0,1.16,.393,1.16,1.178v3.209h-.747v-2.998c0-.287-.047-.485-.141-.593s-.252-.163-.475-.163c-.264,0-.527,.065-.791,.194-.265,.129-.578,.305-.941,.527l-.035-.536c.334-.258,.665-.459,.994-.603,.328-.144,.653-.215,.976-.215Z" fill="#231f20"/>
    <path d="M200.137,125.373l.009,2.734c0,.182-.008,.35-.022,.505s-.036,.318-.065,.488c.029,.165,.05,.329,.062,.493s.018,.322,.018,.475v1.459h-.748v-6.154h.748Zm.729,3.464v.545h-.993v-.545h.993Zm2.022-1.591l-1.346,1.574c-.041,.053-.091,.107-.149,.163s-.108,.098-.149,.127v.018c.041,.03,.091,.078,.149,.145,.059,.068,.108,.134,.149,.198l1.486,2.057h-.871l-1.696-2.453,1.556-1.829h.871Z" fill="#231f20"/>
    <path d="M206.3,127.245v.589h-2.884v-.545l.844-.044h2.04Zm-1.363-1.266v4.37c0,.206,.044,.352,.132,.439,.088,.088,.237,.132,.449,.132h.65l.088,.571c-.094,.023-.202,.044-.325,.062s-.243,.031-.36,.04c-.118,.009-.212,.013-.282,.013-.357,0-.63-.1-.817-.299s-.281-.486-.281-.862v-4.466h.747Z" fill="#231f20"/>
    <path d="M207.794,125.426c.152,0,.229,.076,.229,.229v.501c0,.153-.076,.229-.229,.229h-.352c-.152,0-.229-.076-.229-.229v-.501c0-.152,.076-.229,.229-.229h.352Zm.193,1.82v4.282h-.738v-4.282h.738Z" fill="#231f20"/>
    <path d="M211.205,127.14c.492,0,.887,.073,1.183,.22s.509,.386,.638,.717,.193,.769,.193,1.314-.064,.983-.193,1.314c-.129,.332-.342,.57-.638,.717s-.69,.22-1.183,.22c-.486,0-.878-.073-1.174-.22s-.51-.385-.642-.717c-.132-.331-.198-.769-.198-1.314s.066-.983,.198-1.314,.346-.57,.642-.717,.688-.22,1.174-.22Zm0,.633c-.311,0-.556,.048-.734,.146-.179,.097-.306,.262-.382,.497s-.114,.56-.114,.976,.038,.741,.114,.976,.203,.4,.382,.497c.179,.097,.424,.145,.734,.145s.557-.048,.738-.145c.182-.097,.311-.263,.387-.497s.115-.56,.115-.976-.039-.742-.115-.976-.205-.4-.387-.497c-.182-.097-.428-.146-.738-.146Z" fill="#231f20"/>
    <path d="M215.021,127.245l.062,.818,.053,.132v3.332h-.748v-4.282h.634Zm1.969-.105c.774,0,1.161,.393,1.161,1.178v3.209h-.747v-2.998c0-.287-.048-.485-.142-.593s-.252-.163-.475-.163c-.264,0-.527,.065-.791,.194s-.577,.305-.94,.527l-.035-.536c.334-.258,.665-.459,.993-.603s.653-.215,.976-.215Z" fill="#231f20"/>
  </g>
  <g>
    <path d="M103.486,142.472c.287,.006,.583,.021,.888,.044s.61,.067,.915,.132l-.053,.562c-.252-.012-.531-.022-.836-.031s-.598-.013-.879-.013c-.217,0-.403,.007-.559,.022s-.282,.05-.382,.105c-.1,.056-.172,.147-.216,.273s-.065,.3-.065,.523c0,.334,.06,.567,.18,.699s.315,.23,.585,.295l1.23,.308c.469,.111,.79,.306,.963,.584s.26,.652,.26,1.121c0,.352-.04,.636-.119,.853s-.2,.382-.364,.497-.376,.193-.634,.237-.562,.066-.914,.066c-.199,0-.459-.009-.778-.026s-.687-.064-1.104-.141l.053-.571c.347,.012,.625,.022,.836,.031s.393,.013,.545,.013h.475c.311,0,.556-.023,.734-.07s.305-.141,.378-.282,.11-.349,.11-.624c0-.234-.026-.416-.08-.545-.053-.129-.136-.228-.25-.295s-.26-.122-.436-.163l-1.257-.316c-.439-.111-.749-.305-.928-.58s-.269-.645-.269-1.108c0-.352,.04-.634,.119-.849,.079-.214,.199-.375,.36-.483s.365-.18,.611-.215,.539-.053,.879-.053Z" fill="#231f20"/>
    <path d="M107.372,144.362v3.007c-.006,.27,.044,.46,.149,.572s.281,.167,.527,.167c.24,0,.479-.057,.717-.171,.237-.115,.523-.28,.857-.497l.097,.519c-.334,.264-.658,.463-.972,.598s-.632,.202-.954,.202c-.779,0-1.169-.393-1.169-1.178v-3.218h.747Zm2.919,0v4.282h-.598l-.07-.809-.079-.132v-3.341h.747Z" fill="#231f20"/>
    <path d="M112.278,144.362l.053,.818,.079,.132v3.332h-.748v-4.282h.616Zm1.793-.105c.363,0,.643,.098,.836,.294,.193,.197,.293,.491,.299,.884v3.209h-.722v-2.998c0-.275-.056-.47-.167-.584-.111-.115-.278-.172-.501-.172-.146,0-.288,.024-.426,.07-.139,.047-.291,.124-.458,.229s-.37,.246-.61,.422l-.053-.527c.311-.276,.612-.482,.905-.62s.592-.207,.896-.207Zm2.805,0c.369,0,.652,.1,.849,.299s.295,.493,.295,.879v3.209h-.739v-2.998c-.006-.264-.059-.456-.158-.576s-.27-.181-.51-.181c-.152,0-.298,.025-.435,.075-.139,.05-.289,.128-.453,.233s-.363,.243-.598,.413l-.044-.527c.311-.276,.612-.482,.905-.62s.589-.207,.888-.207Z" fill="#231f20"/>
    <path d="M119.98,144.362l.053,.818,.079,.132v3.332h-.748v-4.282h.616Zm1.793-.105c.363,0,.643,.098,.836,.294,.193,.197,.293,.491,.299,.884v3.209h-.722v-2.998c0-.275-.056-.47-.167-.584-.111-.115-.278-.172-.501-.172-.146,0-.288,.024-.426,.07-.139,.047-.291,.124-.458,.229s-.37,.246-.61,.422l-.053-.527c.311-.276,.612-.482,.905-.62s.592-.207,.896-.207Zm2.805,0c.369,0,.652,.1,.849,.299s.295,.493,.295,.879v3.209h-.739v-2.998c-.006-.264-.059-.456-.158-.576s-.27-.181-.51-.181c-.152,0-.298,.025-.435,.075-.139,.05-.289,.128-.453,.233s-.363,.243-.598,.413l-.044-.527c.311-.276,.612-.482,.905-.62s.589-.207,.888-.207Z" fill="#231f20"/>
    <path d="M128.825,144.257c.645,0,1.111,.117,1.402,.352,.29,.234,.435,.583,.435,1.046,.006,.381-.073,.679-.237,.893s-.425,.321-.782,.321h-2.497v-.581h2.304c.193,0,.319-.066,.378-.198s.088-.277,.088-.435c-.006-.275-.088-.472-.246-.589s-.428-.176-.809-.176c-.312,0-.556,.046-.734,.137s-.305,.249-.378,.475-.11,.541-.11,.945c0,.458,.046,.806,.137,1.046,.091,.241,.235,.404,.435,.493,.199,.088,.463,.132,.792,.132,.229,0,.479-.01,.751-.031s.518-.045,.734-.075l.079,.501c-.135,.053-.3,.097-.496,.132-.197,.035-.399,.062-.607,.079s-.394,.026-.558,.026c-.493,0-.889-.075-1.188-.224s-.518-.39-.655-.721c-.138-.331-.206-.769-.206-1.314,0-.563,.068-1.007,.206-1.332,.138-.326,.353-.557,.643-.695s.663-.207,1.121-.207Z" fill="#231f20"/>
  </g>
  <g>
    <path d="M214.998,142.577c.07,0,.132,.019,.185,.057s.088,.089,.105,.154l1.952,5.855h-.801l-1.573-4.976c-.023-.082-.049-.166-.075-.251-.026-.084-.051-.166-.074-.242h-.246c-.023,.076-.047,.157-.07,.242-.023,.085-.05,.169-.079,.251l-1.574,4.976h-.8l1.951-5.855c.018-.064,.053-.116,.105-.154,.054-.038,.115-.057,.186-.057h.809Zm1.125,3.499v.668h-3.077v-.668h3.077Z" fill="#231f20"/>
    <path d="M218.734,144.362v3.007c-.006,.27,.044,.46,.149,.572s.281,.167,.527,.167c.24,0,.479-.057,.717-.171,.237-.115,.523-.28,.857-.497l.097,.519c-.334,.264-.658,.463-.972,.598s-.632,.202-.954,.202c-.779,0-1.169-.393-1.169-1.178v-3.218h.747Zm2.919,0v4.282h-.598l-.07-.809-.079-.132v-3.341h.747Z" fill="#231f20"/>
    <path d="M224.449,144.257c.188,0,.387,.006,.598,.018s.421,.026,.629,.044,.4,.041,.576,.07l-.062,.545c-.271-.011-.541-.022-.813-.031s-.544-.013-.813-.013c-.264-.005-.472,0-.624,.018s-.263,.065-.33,.141-.101,.205-.101,.387c0,.223,.053,.369,.158,.439s.261,.129,.466,.176l1.248,.281c.34,.083,.591,.208,.752,.378s.242,.437,.242,.8c0,.352-.066,.616-.198,.792s-.333,.293-.603,.352-.612,.088-1.028,.088c-.152,0-.38-.006-.682-.018s-.634-.047-.998-.105l.053-.545c.141,.006,.291,.013,.449,.022s.323,.013,.496,.013h.532c.322,0,.574-.015,.756-.044s.311-.086,.387-.172c.076-.084,.114-.212,.114-.382,0-.211-.062-.352-.185-.422s-.287-.129-.492-.176l-1.23-.281c-.234-.059-.422-.136-.562-.233-.142-.097-.244-.223-.309-.378s-.097-.35-.097-.584c0-.334,.059-.586,.176-.756,.117-.17,.3-.284,.546-.343s.562-.085,.949-.079Z" fill="#231f20"/>
    <path d="M227.975,146.701l.431,.062c-.1,.088-.167,.195-.202,.321s-.024,.242,.031,.347,.174,.173,.355,.202l1.601,.255c.404,.059,.686,.185,.844,.378s.237,.469,.237,.826c0,.334-.062,.598-.188,.792s-.339,.331-.638,.413-.703,.123-1.213,.123c-.388,0-.713-.022-.977-.066s-.476-.117-.637-.22c-.162-.103-.277-.236-.348-.4s-.105-.37-.105-.616c0-.188,.027-.344,.083-.47s.144-.239,.264-.338,.277-.196,.471-.29l.527-.291,.343,.123-.431,.326c-.117,.088-.215,.174-.294,.259s-.138,.176-.176,.272-.058,.212-.058,.347c0,.199,.038,.352,.114,.458s.211,.177,.404,.215,.463,.057,.81,.057,.613-.021,.804-.062,.324-.114,.4-.22,.114-.255,.114-.449c0-.146-.02-.258-.057-.334-.039-.076-.11-.135-.216-.176s-.261-.076-.466-.105l-1.539-.211c-.182-.023-.326-.082-.435-.176-.109-.094-.184-.205-.225-.334-.041-.129-.053-.259-.035-.391s.062-.255,.132-.369,.161-.201,.272-.259Zm1.214-2.444c.457,0,.818,.047,1.085,.141s.458,.24,.572,.439c.114,.2,.171,.46,.171,.783,0,.311-.057,.567-.171,.769-.114,.203-.307,.352-.576,.449s-.633,.145-1.09,.145-.819-.048-1.086-.145-.457-.245-.572-.444c-.114-.199-.171-.454-.171-.765,0-.322,.057-.584,.171-.787,.115-.202,.307-.35,.576-.444s.633-.141,1.091-.141Zm-.009,.571c-.429,0-.726,.061-.893,.181s-.251,.324-.251,.611c0,.281,.084,.483,.251,.606s.464,.185,.893,.185c.434,0,.732-.062,.896-.185s.246-.325,.246-.606c0-.287-.082-.491-.246-.611s-.463-.181-.896-.181Zm2.338-.466l-.044,.413-1.09,.088-.308-.501h1.441Z" fill="#231f20"/>
    <path d="M235.492,146.006l-.009,.563-2.049,.009c-.205,.006-.349,.06-.431,.163s-.123,.245-.123,.426v.272c0,.223,.053,.386,.158,.488s.275,.154,.51,.154c.164,0,.35-.031,.559-.092,.208-.062,.417-.157,.628-.286,.211-.129,.404-.293,.58-.492v.554c-.064,.083-.156,.178-.276,.286s-.264,.214-.431,.316-.352,.188-.554,.255c-.203,.067-.421,.101-.655,.101-.252,0-.475-.045-.668-.136s-.345-.226-.453-.404-.163-.397-.163-.655v-.466c0-.334,.104-.593,.312-.778,.208-.185,.5-.277,.875-.277h2.189Zm-1.117-1.75c.316,0,.585,.042,.805,.127s.386,.227,.497,.426c.111,.2,.167,.472,.167,.818v3.016h-.59l-.114-.932-.053-.097v-1.987c0-.264-.06-.453-.18-.567-.12-.115-.351-.172-.69-.172-.223,0-.503,.012-.84,.035-.337,.024-.669,.05-.998,.08l-.07-.554c.199-.035,.418-.067,.655-.097s.479-.053,.726-.07,.475-.026,.686-.026Z" fill="#231f20"/>
    <path d="M237.91,142.49v1.6c0,.182-.005,.349-.014,.501-.009,.153-.03,.308-.065,.466l.07,.123,.009,3.297-.748-.035v-5.952h.748Zm1.573,1.767c.527,0,.918,.171,1.17,.514,.252,.343,.378,.916,.378,1.719,0,.369-.031,.694-.093,.976s-.164,.518-.308,.708-.337,.334-.58,.431-.55,.145-.919,.145c-.146,0-.305-.006-.475-.018s-.343-.031-.519-.057-.348-.059-.515-.097-.32-.083-.462-.136l.599-.51c.158,.047,.314,.085,.47,.114s.308,.048,.458,.057c.149,.009,.291,.013,.426,.013,.275-.006,.497-.059,.664-.158s.288-.269,.364-.506,.115-.558,.115-.962c0-.393-.03-.705-.088-.937-.06-.231-.163-.397-.312-.497s-.362-.15-.638-.15c-.234,0-.457,.063-.668,.189s-.454,.297-.729,.514l-.053-.501c.176-.188,.355-.344,.54-.471,.185-.126,.377-.221,.576-.286s.398-.097,.598-.097Z" fill="#231f20"/>
    <path d="M243.95,144.257c.645,0,1.111,.117,1.402,.352,.29,.234,.435,.583,.435,1.046,.006,.381-.073,.679-.237,.893s-.425,.321-.782,.321h-2.497v-.581h2.304c.193,0,.319-.066,.378-.198s.088-.277,.088-.435c-.006-.275-.088-.472-.246-.589s-.428-.176-.809-.176c-.312,0-.556,.046-.734,.137s-.305,.249-.378,.475-.11,.541-.11,.945c0,.458,.046,.806,.137,1.046,.091,.241,.235,.404,.435,.493,.199,.088,.463,.132,.792,.132,.229,0,.479-.01,.751-.031s.518-.045,.734-.075l.079,.501c-.135,.053-.3,.097-.496,.132-.197,.035-.399,.062-.607,.079s-.394,.026-.558,.026c-.493,0-.889-.075-1.188-.224s-.518-.39-.655-.721c-.138-.331-.206-.769-.206-1.314,0-.563,.068-1.007,.206-1.332,.138-.326,.353-.557,.643-.695s.663-.207,1.121-.207Z" fill="#231f20"/>
  </g>
  <g>
    <path d="M108.34,5.337c.498,0,.894,.046,1.188,.137,.293,.091,.505,.25,.637,.479s.198,.552,.198,.968c0,.434-.081,.765-.242,.993s-.423,.36-.786,.396v.035c.451,.041,.766,.199,.944,.475,.179,.276,.269,.657,.269,1.144,0,.416-.064,.738-.193,.967s-.336,.389-.62,.479-.658,.136-1.121,.136c-.346,0-.643,0-.893-.004-.249-.003-.479-.011-.689-.022s-.431-.026-.659-.044l.123-.615c.129,.006,.373,.012,.733,.018s.781,.009,1.262,.009c.322,0,.576-.027,.761-.083s.316-.16,.396-.312,.119-.372,.119-.659c0-.316-.041-.56-.123-.73-.082-.17-.22-.29-.414-.36-.193-.07-.457-.108-.791-.114h-1.951v-.589h1.942c.293-.006,.526-.036,.699-.092s.298-.159,.374-.309,.114-.358,.114-.628c0-.275-.041-.486-.123-.633-.083-.146-.219-.247-.409-.3s-.45-.079-.778-.079h-.773c-.229,0-.43,.002-.603,.005s-.317,.01-.435,.021l-.123-.615c.205-.023,.399-.039,.584-.048s.387-.015,.606-.018,.479-.005,.778-.005Zm-1.213,.07v6.066h-.756V5.408h.756Z" fill="#231f20"/>
    <path d="M112.323,5.372c.152,0,.229,.076,.229,.229v.501c0,.153-.076,.229-.229,.229h-.352c-.153,0-.229-.075-.229-.229v-.501c0-.152,.076-.229,.229-.229h.352Zm.193,1.82v4.281h-.739V7.193h.739Z" fill="#231f20"/>
    <path d="M117.061,8.836l-.009,.563-2.049,.009c-.205,.006-.349,.06-.431,.162s-.123,.245-.123,.427v.272c0,.223,.053,.386,.158,.488s.275,.153,.51,.153c.164,0,.351-.03,.559-.092s.418-.157,.629-.286,.404-.293,.58-.492v.554c-.064,.082-.157,.178-.277,.286s-.264,.214-.431,.316-.352,.188-.554,.255-.421,.101-.655,.101c-.252,0-.475-.045-.668-.136s-.345-.226-.453-.404-.162-.397-.162-.655v-.466c0-.334,.104-.594,.312-.778,.207-.185,.499-.277,.874-.277h2.189Zm-1.116-1.749c.316,0,.584,.042,.804,.127,.221,.085,.386,.228,.497,.427s.167,.472,.167,.817v3.016h-.589l-.114-.932-.053-.097v-1.987c0-.264-.061-.452-.181-.566-.12-.115-.35-.172-.689-.172-.224,0-.503,.012-.84,.035s-.67,.05-.998,.079l-.07-.554c.199-.035,.418-.067,.655-.097s.479-.053,.725-.07c.247-.018,.476-.026,.687-.026Z" fill="#231f20"/>
    <path d="M120.174,7.087c.188,0,.387,.006,.598,.018s.421,.026,.629,.044,.4,.041,.576,.07l-.062,.545c-.271-.012-.541-.022-.813-.031s-.544-.013-.813-.013c-.264-.006-.472,0-.624,.018s-.263,.064-.33,.141-.101,.205-.101,.387c0,.223,.053,.369,.158,.439s.261,.129,.466,.176l1.248,.281c.34,.083,.591,.209,.752,.379s.242,.437,.242,.8c0,.352-.066,.615-.198,.791s-.333,.293-.603,.352-.612,.088-1.028,.088c-.152,0-.38-.006-.682-.018s-.634-.047-.998-.105l.053-.545c.141,.006,.291,.014,.449,.022s.323,.013,.496,.013h.532c.322,0,.574-.015,.756-.044s.311-.086,.387-.172c.076-.084,.114-.212,.114-.382,0-.211-.062-.352-.185-.422s-.287-.129-.492-.176l-1.23-.281c-.234-.059-.422-.137-.562-.233-.142-.097-.244-.223-.309-.378s-.097-.351-.097-.585c0-.334,.059-.586,.176-.756s.3-.284,.546-.343,.562-.085,.949-.079Z" fill="#231f20"/>
  </g>
  <g>
    <path d="M5.51,142.569h.884c.296,0,.589,.004,.879,.013,.291,.009,.57,.022,.84,.04l-.035,.606h-2.436c-.182,0-.314,.045-.399,.136-.085,.091-.128,.239-.128,.444v3.604c0,.205,.043,.355,.128,.448,.085,.094,.218,.141,.399,.141h2.436l.035,.598c-.27,.018-.549,.029-.84,.035-.29,.006-.583,.01-.879,.013s-.591,.004-.884,.004c-.357,0-.64-.095-.848-.286-.209-.19-.315-.447-.321-.77v-3.974c.006-.329,.112-.586,.321-.774,.208-.188,.49-.281,.848-.281Zm-1.011,2.559h3.235v.624h-3.235v-.624Z" fill="#231f20"/>
    <path d="M9.818,142.542c.152,0,.229,.076,.229,.229v.501c0,.153-.076,.229-.229,.229h-.352c-.153,0-.229-.076-.229-.229v-.501c0-.152,.076-.229,.229-.229h.352Zm.193,1.82v4.282h-.739v-4.282h.739Z" fill="#231f20"/>
    <path d="M12.052,144.362l.062,.818,.053,.132v3.332h-.748v-4.282h.634Zm1.969-.105c.774,0,1.161,.393,1.161,1.178v3.209h-.747v-2.998c0-.287-.048-.485-.142-.593s-.252-.163-.475-.163c-.264,0-.527,.065-.791,.194s-.577,.305-.94,.527l-.035-.536c.334-.258,.665-.459,.993-.603s.653-.215,.976-.215Z" fill="#231f20"/>
    <path d="M17.01,146.701l.431,.062c-.1,.088-.167,.195-.202,.321s-.024,.242,.031,.347,.174,.173,.355,.202l1.601,.255c.404,.059,.686,.185,.844,.378s.237,.469,.237,.826c0,.334-.062,.598-.188,.792s-.339,.331-.638,.413-.703,.123-1.213,.123c-.388,0-.713-.022-.977-.066s-.476-.117-.637-.22c-.162-.103-.277-.236-.348-.4s-.105-.37-.105-.616c0-.188,.027-.344,.083-.47s.144-.239,.264-.338,.277-.196,.471-.29l.527-.291,.343,.123-.431,.326c-.117,.088-.215,.174-.294,.259s-.138,.176-.176,.272-.058,.212-.058,.347c0,.199,.038,.352,.114,.458s.211,.177,.404,.215,.463,.057,.81,.057,.613-.021,.804-.062,.324-.114,.4-.22,.114-.255,.114-.449c0-.146-.02-.258-.057-.334-.039-.076-.11-.135-.216-.176s-.261-.076-.466-.105l-1.539-.211c-.182-.023-.326-.082-.435-.176-.109-.094-.184-.205-.225-.334-.041-.129-.053-.259-.035-.391s.062-.255,.132-.369,.161-.201,.272-.259Zm1.214-2.444c.457,0,.818,.047,1.085,.141s.458,.24,.572,.439c.114,.2,.171,.46,.171,.783,0,.311-.057,.567-.171,.769-.114,.203-.307,.352-.576,.449s-.633,.145-1.09,.145-.819-.048-1.086-.145-.457-.245-.572-.444c-.114-.199-.171-.454-.171-.765,0-.322,.057-.584,.171-.787,.115-.202,.307-.35,.576-.444s.633-.141,1.091-.141Zm-.009,.571c-.429,0-.726,.061-.893,.181s-.251,.324-.251,.611c0,.281,.084,.483,.251,.606s.464,.185,.893,.185c.434,0,.732-.062,.896-.185s.246-.325,.246-.606c0-.287-.082-.491-.246-.611s-.463-.181-.896-.181Zm2.338-.466l-.044,.413-1.09,.088-.308-.501h1.441Z" fill="#231f20"/>
    <path d="M24.527,146.006l-.009,.563-2.049,.009c-.205,.006-.349,.06-.431,.163s-.123,.245-.123,.426v.272c0,.223,.053,.386,.158,.488s.275,.154,.51,.154c.164,0,.35-.031,.559-.092,.208-.062,.417-.157,.628-.286,.211-.129,.404-.293,.58-.492v.554c-.064,.083-.156,.178-.276,.286s-.264,.214-.431,.316-.352,.188-.554,.255c-.203,.067-.421,.101-.655,.101-.252,0-.475-.045-.668-.136s-.345-.226-.453-.404-.163-.397-.163-.655v-.466c0-.334,.104-.593,.312-.778,.208-.185,.5-.277,.875-.277h2.189Zm-1.117-1.75c.316,0,.585,.042,.805,.127s.386,.227,.497,.426c.111,.2,.167,.472,.167,.818v3.016h-.59l-.114-.932-.053-.097v-1.987c0-.264-.06-.453-.18-.567-.12-.115-.351-.172-.69-.172-.223,0-.503,.012-.84,.035-.337,.024-.669,.05-.998,.08l-.07-.554c.199-.035,.418-.067,.655-.097s.479-.053,.726-.07,.475-.026,.686-.026Z" fill="#231f20"/>
    <path d="M26.945,142.49v1.6c0,.182-.005,.349-.014,.501-.009,.153-.03,.308-.065,.466l.07,.123,.009,3.297-.748-.035v-5.952h.748Zm1.573,1.767c.527,0,.918,.171,1.17,.514,.252,.343,.378,.916,.378,1.719,0,.369-.031,.694-.093,.976s-.164,.518-.308,.708-.337,.334-.58,.431-.55,.145-.919,.145c-.146,0-.305-.006-.475-.018s-.343-.031-.519-.057-.348-.059-.515-.097-.32-.083-.462-.136l.599-.51c.158,.047,.314,.085,.47,.114s.308,.048,.458,.057c.149,.009,.291,.013,.426,.013,.275-.006,.497-.059,.664-.158s.288-.269,.364-.506,.115-.558,.115-.962c0-.393-.03-.705-.088-.937-.06-.231-.163-.397-.312-.497s-.362-.15-.638-.15c-.234,0-.457,.063-.668,.189s-.454,.297-.729,.514l-.053-.501c.176-.188,.355-.344,.54-.471,.185-.126,.377-.221,.576-.286s.398-.097,.598-.097Z" fill="#231f20"/>
    <path d="M32.985,144.257c.645,0,1.111,.117,1.402,.352,.29,.234,.435,.583,.435,1.046,.006,.381-.073,.679-.237,.893s-.425,.321-.782,.321h-2.497v-.581h2.304c.193,0,.319-.066,.378-.198s.088-.277,.088-.435c-.006-.275-.088-.472-.246-.589s-.428-.176-.809-.176c-.312,0-.556,.046-.734,.137s-.305,.249-.378,.475-.11,.541-.11,.945c0,.458,.046,.806,.137,1.046,.091,.241,.235,.404,.435,.493,.199,.088,.463,.132,.792,.132,.229,0,.479-.01,.751-.031s.518-.045,.734-.075l.079,.501c-.135,.053-.3,.097-.496,.132-.197,.035-.399,.062-.607,.079s-.394,.026-.558,.026c-.493,0-.889-.075-1.188-.224s-.518-.39-.655-.721c-.138-.331-.206-.769-.206-1.314,0-.563,.068-1.007,.206-1.332,.138-.326,.353-.557,.643-.695s.663-.207,1.121-.207Z" fill="#231f20"/>
  </g>
</svg>