<?xml version="1.0" encoding="UTF-8"?>
<svg id="a" data-name="Layer 3" xmlns="http://www.w3.org/2000/svg" viewBox="0 0 248.972 156.342">
  <g>
    <path d="M13.353,31.178v6.066h-.773v-6.066h.773Z" fill="#231f20"/>
    <path d="M15.436,32.963l.062,.818,.053,.132v3.332h-.748v-4.282h.633Zm1.969-.105c.774,0,1.161,.393,1.161,1.178v3.209h-.747v-2.998c0-.287-.047-.485-.141-.593s-.252-.163-.475-.163c-.264,0-.527,.065-.791,.194-.264,.129-.578,.305-.941,.527l-.035-.536c.334-.258,.665-.459,.994-.603,.328-.144,.653-.215,.976-.215Z" fill="#231f20"/>
    <path d="M20.527,32.963l.079,.888,.053,.114v2.743l-.035,.105c.018,.164,.028,.322,.031,.475s.004,.313,.004,.483v1.24h-.748v-6.049h.616Zm1.837-.105c.521,0,.897,.192,1.125,.576,.229,.384,.343,.948,.343,1.693,0,.551-.059,.989-.176,1.314-.117,.326-.294,.559-.532,.699s-.541,.211-.91,.211c-.281,0-.558-.038-.831-.114-.272-.076-.538-.193-.795-.352l.044-.449c.275,.077,.519,.14,.729,.189,.211,.05,.434,.075,.668,.075,.252,0,.453-.044,.602-.132,.149-.088,.26-.247,.33-.475s.105-.551,.105-.967c0-.405-.032-.724-.097-.958-.065-.234-.166-.403-.304-.505s-.321-.154-.549-.154c-.234,0-.466,.056-.694,.167-.229,.111-.496,.281-.8,.51l-.07-.501c.158-.17,.337-.317,.536-.44s.409-.218,.629-.286,.435-.101,.646-.101Z" fill="#231f20"/>
    <path d="M25.732,32.963v3.007c-.006,.27,.044,.46,.149,.572s.281,.167,.527,.167c.24,0,.479-.057,.717-.171,.237-.115,.523-.28,.857-.497l.097,.519c-.334,.264-.658,.463-.972,.598s-.632,.202-.954,.202c-.779,0-1.169-.393-1.169-1.178v-3.218h.748Zm2.919,0v4.282h-.598l-.07-.809-.08-.132v-3.341h.748Z" fill="#231f20"/>
    <path d="M32.457,32.963v.589h-2.884v-.545l.844-.044h2.04Zm-1.363-1.266v4.37c0,.206,.044,.352,.132,.439,.088,.088,.237,.132,.449,.132h.65l.088,.571c-.094,.023-.202,.044-.325,.062s-.243,.031-.36,.04c-.118,.009-.211,.013-.282,.013-.357,0-.63-.1-.817-.299s-.281-.486-.281-.862v-4.466h.747Z" fill="#231f20"/>
    <path d="M37.161,31.178v6.066h-.774v-4.809c0-.088,.003-.176,.009-.264,.006-.088,.018-.176,.035-.264l-1.486,.466-.105-.572,1.547-.624h.774Z" fill="#231f20"/>
  </g>
  <g>
    <path d="M214.297,76.492c.439,0,.813,.053,1.121,.158s.554,.28,.738,.523,.319,.567,.405,.972c.084,.404,.127,.903,.127,1.495s-.043,1.09-.127,1.495c-.085,.404-.22,.729-.405,.972s-.431,.417-.738,.523-.682,.158-1.121,.158-.813-.053-1.121-.158-.555-.28-.743-.523c-.188-.243-.324-.567-.409-.972s-.127-.902-.127-1.495,.042-1.09,.127-1.495,.221-.729,.409-.972c.188-.243,.435-.417,.743-.523s.682-.158,1.121-.158Zm0,.694c-.398,0-.714,.076-.945,.229-.231,.153-.396,.406-.492,.761s-.145,.843-.145,1.464c0,.615,.048,1.102,.145,1.459s.261,.612,.492,.765c.231,.153,.547,.229,.945,.229s.713-.076,.945-.229c.231-.152,.396-.407,.492-.765s.145-.844,.145-1.459c0-.621-.048-1.109-.145-1.464s-.261-.608-.492-.761c-.232-.152-.547-.229-.945-.229Z" fill="#231f20"/>
    <path d="M218.641,78.391v3.007c-.006,.27,.044,.46,.149,.572s.281,.167,.527,.167c.24,0,.479-.057,.717-.171,.237-.115,.523-.28,.857-.497l.097,.519c-.334,.264-.658,.463-.972,.598s-.632,.202-.954,.202c-.779,0-1.169-.393-1.169-1.178v-3.218h.748Zm2.919,0v4.282h-.598l-.07-.809-.08-.132v-3.341h.748Z" fill="#231f20"/>
    <path d="M225.366,78.391v.589h-2.884v-.545l.845-.044h2.039Zm-1.362-1.266v4.37c0,.206,.044,.352,.132,.439,.088,.088,.237,.132,.448,.132h.65l.088,.571c-.094,.023-.202,.044-.325,.062s-.243,.031-.36,.04-.211,.013-.281,.013c-.357,0-.63-.1-.817-.299s-.281-.486-.281-.862v-4.466h.747Z" fill="#231f20"/>
    <path d="M226.897,78.391l.079,.888,.053,.114v2.743l-.035,.105c.018,.164,.028,.322,.031,.475s.004,.313,.004,.483v1.24h-.747v-6.049h.615Zm1.838-.105c.521,0,.896,.192,1.125,.576,.229,.384,.343,.948,.343,1.693,0,.551-.059,.989-.176,1.314-.117,.326-.294,.559-.531,.699s-.541,.211-.91,.211c-.281,0-.559-.038-.831-.114s-.538-.193-.796-.352l.044-.449c.275,.077,.519,.14,.729,.189,.212,.05,.435,.075,.669,.075,.252,0,.452-.044,.602-.132,.149-.088,.26-.247,.33-.475s.105-.551,.105-.967c0-.405-.032-.724-.097-.958s-.166-.403-.304-.505-.32-.154-.549-.154c-.234,0-.466,.056-.694,.167-.229,.111-.496,.281-.801,.51l-.07-.501c.158-.17,.337-.317,.536-.44s.409-.218,.629-.286,.436-.101,.646-.101Z" fill="#231f20"/>
    <path d="M232.102,78.391v3.007c-.006,.27,.044,.46,.149,.572s.281,.167,.527,.167c.24,0,.479-.057,.717-.171,.237-.115,.522-.28,.857-.497l.097,.519c-.335,.264-.658,.463-.972,.598s-.632,.202-.954,.202c-.779,0-1.17-.393-1.17-1.178v-3.218h.748Zm2.919,0v4.282h-.598l-.07-.809-.08-.132v-3.341h.748Z" fill="#231f20"/>
    <path d="M238.827,78.391v.589h-2.884v-.545l.844-.044h2.04Zm-1.363-1.266v4.37c0,.206,.044,.352,.132,.439,.088,.088,.237,.132,.449,.132h.65l.088,.571c-.094,.023-.202,.044-.325,.062s-.243,.031-.36,.04c-.118,.009-.212,.013-.282,.013-.357,0-.63-.1-.817-.299s-.281-.486-.281-.862v-4.466h.747Z" fill="#231f20"/>
  </g>
  <g>
    <path d="M12.632,53.892v6.066h-.773v-6.066h.773Z" fill="#231f20"/>
    <path d="M14.716,55.677l.062,.818,.053,.132v3.332h-.748v-4.282h.633Zm1.969-.105c.774,0,1.161,.393,1.161,1.178v3.209h-.747v-2.998c0-.287-.047-.485-.141-.593s-.252-.163-.475-.163c-.264,0-.527,.065-.791,.194-.264,.129-.578,.305-.941,.527l-.035-.536c.334-.258,.665-.459,.994-.603,.328-.144,.653-.215,.976-.215Z" fill="#231f20"/>
    <path d="M19.807,55.677l.079,.888,.053,.114v2.743l-.035,.105c.018,.164,.028,.322,.031,.475s.004,.313,.004,.483v1.24h-.748v-6.049h.616Zm1.837-.105c.521,0,.897,.192,1.125,.576,.229,.384,.343,.948,.343,1.693,0,.551-.059,.989-.176,1.314-.117,.326-.294,.559-.532,.699s-.541,.211-.91,.211c-.281,0-.558-.038-.831-.114-.272-.076-.538-.193-.795-.352l.044-.449c.275,.077,.519,.14,.729,.189,.211,.05,.434,.075,.668,.075,.252,0,.453-.044,.602-.132,.149-.088,.26-.247,.33-.475s.105-.551,.105-.967c0-.405-.032-.724-.097-.958-.065-.234-.166-.403-.304-.505s-.321-.154-.549-.154c-.234,0-.466,.056-.694,.167-.229,.111-.496,.281-.8,.51l-.07-.501c.158-.17,.337-.317,.536-.44s.409-.218,.629-.286,.435-.101,.646-.101Z" fill="#231f20"/>
    <path d="M25.011,55.677v3.007c-.006,.27,.044,.46,.149,.572s.281,.167,.527,.167c.24,0,.479-.057,.717-.171,.237-.115,.523-.28,.857-.497l.097,.519c-.334,.264-.658,.463-.972,.598s-.632,.202-.954,.202c-.779,0-1.169-.393-1.169-1.178v-3.218h.748Zm2.919,0v4.282h-.598l-.07-.809-.08-.132v-3.341h.748Z" fill="#231f20"/>
    <path d="M31.737,55.677v.589h-2.884v-.545l.844-.044h2.04Zm-1.363-1.266v4.37c0,.206,.044,.352,.132,.439,.088,.088,.237,.132,.449,.132h.65l.088,.571c-.094,.023-.202,.044-.325,.062s-.243,.031-.36,.04c-.118,.009-.211,.013-.282,.013-.357,0-.63-.1-.817-.299s-.281-.486-.281-.862v-4.466h.747Z" fill="#231f20"/>
    <path d="M36.309,53.787c.387,0,.719,.032,.998,.097s.493,.19,.642,.378,.224,.466,.224,.835c0,.252-.034,.489-.101,.712-.067,.223-.18,.453-.338,.69-.159,.237-.373,.505-.642,.804l-1.741,1.943c.152-.012,.315-.021,.488-.027,.173-.005,.339-.009,.497-.009h2.057v.748h-3.983v-.483c0-.064,.009-.125,.026-.18s.047-.107,.088-.154l1.759-1.987c.387-.416,.671-.785,.853-1.108,.182-.322,.267-.627,.255-.914-.006-.199-.054-.344-.145-.436-.091-.091-.22-.151-.387-.18s-.368-.044-.602-.044c-.188,0-.367,.003-.537,.009s-.35,.019-.541,.04-.412,.052-.664,.092l-.053-.598c.275-.064,.518-.113,.726-.145s.401-.054,.58-.066,.359-.018,.541-.018Z" fill="#231f20"/>
  </g>
  <g>
    <path d="M12.658,76.607v6.066h-.773v-6.066h.773Z" fill="#231f20"/>
    <path d="M14.742,78.391l.062,.818,.053,.132v3.332h-.748v-4.282h.633Zm1.969-.105c.774,0,1.161,.393,1.161,1.178v3.209h-.747v-2.998c0-.287-.047-.485-.141-.593s-.252-.163-.475-.163c-.264,0-.527,.065-.791,.194-.264,.129-.578,.305-.941,.527l-.035-.536c.334-.258,.665-.459,.994-.603,.328-.144,.653-.215,.976-.215Z" fill="#231f20"/>
    <path d="M19.833,78.391l.079,.888,.053,.114v2.743l-.035,.105c.018,.164,.028,.322,.031,.475s.004,.313,.004,.483v1.24h-.748v-6.049h.616Zm1.837-.105c.521,0,.897,.192,1.125,.576,.229,.384,.343,.948,.343,1.693,0,.551-.059,.989-.176,1.314-.117,.326-.294,.559-.532,.699s-.541,.211-.91,.211c-.281,0-.558-.038-.831-.114-.272-.076-.538-.193-.795-.352l.044-.449c.275,.077,.519,.14,.729,.189,.211,.05,.434,.075,.668,.075,.252,0,.453-.044,.602-.132,.149-.088,.26-.247,.33-.475s.105-.551,.105-.967c0-.405-.032-.724-.097-.958-.065-.234-.166-.403-.304-.505s-.321-.154-.549-.154c-.234,0-.466,.056-.694,.167-.229,.111-.496,.281-.8,.51l-.07-.501c.158-.17,.337-.317,.536-.44s.409-.218,.629-.286,.435-.101,.646-.101Z" fill="#231f20"/>
    <path d="M25.037,78.391v3.007c-.006,.27,.044,.46,.149,.572s.281,.167,.527,.167c.24,0,.479-.057,.717-.171,.237-.115,.523-.28,.857-.497l.097,.519c-.334,.264-.658,.463-.972,.598s-.632,.202-.954,.202c-.779,0-1.169-.393-1.169-1.178v-3.218h.748Zm2.919,0v4.282h-.598l-.07-.809-.08-.132v-3.341h.748Z" fill="#231f20"/>
    <path d="M31.763,78.391v.589h-2.884v-.545l.844-.044h2.04Zm-1.363-1.266v4.37c0,.206,.044,.352,.132,.439,.088,.088,.237,.132,.449,.132h.65l.088,.571c-.094,.023-.202,.044-.325,.062s-.243,.031-.36,.04c-.118,.009-.211,.013-.282,.013-.357,0-.63-.1-.817-.299s-.281-.486-.281-.862v-4.466h.747Z" fill="#231f20"/>
    <path d="M36.221,76.492c.445,0,.804,.042,1.077,.127s.474,.23,.603,.435,.193,.487,.193,.844c0,.258-.026,.494-.079,.708-.053,.214-.142,.393-.268,.537-.126,.144-.307,.239-.541,.286v.035c.398,.064,.673,.23,.822,.497,.149,.267,.227,.608,.233,1.024,.006,.41-.053,.749-.176,1.016-.123,.267-.325,.464-.607,.593-.281,.129-.662,.193-1.143,.193-.323,0-.646-.016-.972-.048s-.644-.069-.954-.11l.053-.624c.199,.018,.392,.034,.576,.048s.368,.025,.549,.031,.366,.009,.554,.009c.329,0,.591-.037,.787-.11s.34-.198,.431-.374,.136-.41,.136-.703c0-.223-.031-.417-.092-.585-.062-.167-.179-.297-.352-.391s-.426-.141-.76-.141h-1.125v-.606h1.125c.24,0,.432-.032,.576-.097s.25-.148,.321-.251c.07-.103,.116-.22,.136-.352s.031-.268,.031-.409c-.006-.258-.047-.45-.123-.576-.076-.126-.204-.211-.382-.255s-.423-.066-.734-.066c-.287,0-.564,.007-.831,.022s-.503,.031-.708,.048l-.062-.598c.299-.053,.588-.092,.866-.119s.558-.04,.84-.04Z" fill="#231f20"/>
  </g>
  <g>
    <path d="M12.399,99.412v6.066h-.773v-6.066h.773Z" fill="#231f20"/>
    <path d="M14.482,101.196l.062,.818,.053,.132v3.332h-.748v-4.282h.633Zm1.969-.105c.774,0,1.161,.393,1.161,1.178v3.209h-.747v-2.998c0-.287-.047-.485-.141-.593s-.252-.163-.475-.163c-.264,0-.527,.065-.791,.194-.264,.129-.578,.305-.941,.527l-.035-.536c.334-.258,.665-.459,.994-.603,.328-.144,.653-.215,.976-.215Z" fill="#231f20"/>
    <path d="M19.573,101.196l.079,.888,.053,.114v2.743l-.035,.105c.018,.164,.028,.322,.031,.475s.004,.313,.004,.483v1.24h-.748v-6.049h.616Zm1.837-.105c.521,0,.897,.192,1.125,.576,.229,.384,.343,.948,.343,1.693,0,.551-.059,.989-.176,1.314-.117,.326-.294,.559-.532,.699s-.541,.211-.91,.211c-.281,0-.558-.038-.831-.114-.272-.076-.538-.193-.795-.352l.044-.449c.275,.077,.519,.14,.729,.189,.211,.05,.434,.075,.668,.075,.252,0,.453-.044,.602-.132,.149-.088,.26-.247,.33-.475s.105-.551,.105-.967c0-.405-.032-.724-.097-.958-.065-.234-.166-.403-.304-.505s-.321-.154-.549-.154c-.234,0-.466,.056-.694,.167-.229,.111-.496,.281-.8,.51l-.07-.501c.158-.17,.337-.317,.536-.44s.409-.218,.629-.286,.435-.101,.646-.101Z" fill="#231f20"/>
    <path d="M24.778,101.196v3.007c-.006,.27,.044,.46,.149,.572s.281,.167,.527,.167c.24,0,.479-.057,.717-.171,.237-.115,.523-.28,.857-.497l.097,.519c-.334,.264-.658,.463-.972,.598s-.632,.202-.954,.202c-.779,0-1.169-.393-1.169-1.178v-3.218h.748Zm2.919,0v4.282h-.598l-.07-.809-.08-.132v-3.341h.748Z" fill="#231f20"/>
    <path d="M31.503,101.196v.589h-2.884v-.545l.844-.044h2.04Zm-1.363-1.266v4.37c0,.206,.044,.352,.132,.439,.088,.088,.237,.132,.449,.132h.65l.088,.571c-.094,.023-.202,.044-.325,.062s-.243,.031-.36,.04c-.118,.009-.211,.013-.282,.013-.357,0-.63-.1-.817-.299s-.281-.486-.281-.862v-4.466h.747Z" fill="#231f20"/>
    <path d="M36.594,99.412l-1.697,3.587c-.053,.118-.054,.207-.004,.268,.05,.062,.125,.093,.224,.093h3.596v.554l-.809,.079h-3.218c-.165,0-.302-.047-.414-.141s-.183-.214-.215-.36-.016-.293,.048-.44l1.723-3.64h.765Zm1.336,1.161v4.906h-.73v-3.904l.132-1.002h.598Z" fill="#231f20"/>
  </g>
  <g>
    <path d="M12.747,122.58v6.066h-.773v-6.066h.773Z" fill="#231f20"/>
    <path d="M14.83,124.365l.062,.818,.053,.132v3.332h-.748v-4.282h.633Zm1.969-.105c.774,0,1.161,.393,1.161,1.178v3.209h-.747v-2.998c0-.287-.047-.485-.141-.593s-.252-.163-.475-.163c-.264,0-.527,.065-.791,.194-.264,.129-.578,.305-.941,.527l-.035-.536c.334-.258,.665-.459,.994-.603,.328-.144,.653-.215,.976-.215Z" fill="#231f20"/>
    <path d="M19.921,124.365l.079,.888,.053,.114v2.743l-.035,.105c.018,.164,.028,.322,.031,.475s.004,.313,.004,.483v1.24h-.748v-6.049h.616Zm1.837-.105c.521,0,.897,.192,1.125,.576,.229,.384,.343,.948,.343,1.693,0,.551-.059,.989-.176,1.314-.117,.326-.294,.559-.532,.699s-.541,.211-.91,.211c-.281,0-.558-.038-.831-.114-.272-.076-.538-.193-.795-.352l.044-.449c.275,.077,.519,.14,.729,.189,.211,.05,.434,.075,.668,.075,.252,0,.453-.044,.602-.132,.149-.088,.26-.247,.33-.475s.105-.551,.105-.967c0-.405-.032-.724-.097-.958-.065-.234-.166-.403-.304-.505s-.321-.154-.549-.154c-.234,0-.466,.056-.694,.167-.229,.111-.496,.281-.8,.51l-.07-.501c.158-.17,.337-.317,.536-.44s.409-.218,.629-.286,.435-.101,.646-.101Z" fill="#231f20"/>
    <path d="M25.126,124.365v3.007c-.006,.27,.044,.46,.149,.572s.281,.167,.527,.167c.24,0,.479-.057,.717-.171,.237-.115,.523-.28,.857-.497l.097,.519c-.334,.264-.658,.463-.972,.598s-.632,.202-.954,.202c-.779,0-1.169-.393-1.169-1.178v-3.218h.748Zm2.919,0v4.282h-.598l-.07-.809-.08-.132v-3.341h.748Z" fill="#231f20"/>
    <path d="M31.851,124.365v.589h-2.884v-.545l.844-.044h2.04Zm-1.363-1.266v4.37c0,.206,.044,.352,.132,.439,.088,.088,.237,.132,.449,.132h.65l.088,.571c-.094,.023-.202,.044-.325,.062s-.243,.031-.36,.04c-.118,.009-.211,.013-.282,.013-.357,0-.63-.1-.817-.299s-.281-.486-.281-.862v-4.466h.747Z" fill="#231f20"/>
    <path d="M38.085,122.58l-.035,.659h-2.55l-.088,1.653,.65,.053c.399,.03,.737,.083,1.016,.159s.505,.188,.682,.334c.176,.146,.303,.333,.382,.558s.119,.503,.119,.831c0,.246-.025,.483-.075,.712s-.144,.434-.281,.616c-.138,.182-.336,.327-.594,.435s-.595,.163-1.011,.163c-.241,0-.519-.018-.835-.053s-.639-.091-.967-.167l.088-.625c.275,.047,.551,.085,.827,.115s.513,.044,.712,.044c.387,0,.677-.048,.871-.145,.193-.097,.325-.238,.396-.422s.108-.409,.114-.672c.006-.281-.028-.502-.101-.664-.073-.161-.19-.281-.352-.36s-.375-.135-.642-.167c-.267-.032-.594-.06-.98-.083l-.404-.026c-.088-.012-.16-.048-.215-.11-.056-.062-.081-.139-.075-.233l.141-2.603h3.209Z" fill="#231f20"/>
  </g>
  <g>
    <path d="M114.459,10.555v6.066h-.773v-6.066h.773Zm2.893,2.488v.668h-2.963v-.668h2.963Zm.677-2.488v6.066h-.773v-6.066h.773Z" fill="#231f20"/>
    <path d="M120.06,10.52c.152,0,.229,.076,.229,.229v.501c0,.153-.076,.229-.229,.229h-.352c-.153,0-.229-.076-.229-.229v-.501c0-.152,.076-.229,.229-.229h.352Zm.193,1.82v4.282h-.739v-4.282h.739Z" fill="#231f20"/>
    <path d="M123.084,12.235c.282,0,.56,.037,.835,.11s.539,.186,.792,.338l-.044,.466c-.276-.082-.519-.146-.73-.194-.211-.046-.437-.07-.677-.07-.247,0-.444,.043-.594,.128s-.259,.242-.33,.47-.105,.554-.105,.976,.034,.75,.101,.984,.174,.399,.321,.493,.334,.141,.563,.141c.17,0,.324-.022,.461-.066s.284-.116,.439-.216c.155-.1,.338-.226,.55-.378l.07,.528c-.235,.217-.501,.401-.8,.554s-.621,.229-.967,.229c-.539,0-.924-.19-1.156-.571-.232-.381-.348-.944-.348-1.688,0-.557,.059-.998,.176-1.323,.117-.326,.296-.559,.537-.699,.24-.141,.542-.211,.905-.211Zm2.233-1.767v6.154h-.58l-.088-.748-.08-.062v-2.937l.053-.132c-.023-.164-.038-.322-.044-.475s-.009-.313-.009-.483v-1.319h.748Z" fill="#231f20"/>
    <path d="M128.122,12.235c.282,0,.56,.037,.835,.11s.539,.186,.792,.338l-.044,.466c-.276-.082-.519-.146-.73-.194-.211-.046-.437-.07-.677-.07-.247,0-.444,.043-.594,.128s-.259,.242-.33,.47-.105,.554-.105,.976,.034,.75,.101,.984,.174,.399,.321,.493,.334,.141,.563,.141c.17,0,.324-.022,.461-.066s.284-.116,.439-.216c.155-.1,.338-.226,.55-.378l.07,.528c-.235,.217-.501,.401-.8,.554s-.621,.229-.967,.229c-.539,0-.924-.19-1.156-.571-.232-.381-.348-.944-.348-1.688,0-.557,.059-.998,.176-1.323,.117-.326,.296-.559,.537-.699,.24-.141,.542-.211,.905-.211Zm2.233-1.767v6.154h-.58l-.088-.748-.08-.062v-2.937l.053-.132c-.023-.164-.038-.322-.044-.475s-.009-.313-.009-.483v-1.319h.748Z" fill="#231f20"/>
    <path d="M133.494,12.235c.645,0,1.112,.117,1.402,.352,.29,.234,.435,.583,.435,1.046,.006,.381-.073,.679-.237,.893s-.425,.321-.783,.321h-2.497v-.581h2.303c.193,0,.319-.066,.378-.198s.088-.277,.088-.435c-.006-.275-.088-.472-.246-.589s-.428-.176-.809-.176c-.311,0-.556,.046-.734,.137s-.305,.249-.378,.475-.11,.541-.11,.945c0,.458,.045,.806,.136,1.046,.091,.241,.236,.404,.435,.493,.199,.088,.463,.132,.792,.132,.229,0,.479-.01,.751-.031s.518-.045,.734-.075l.079,.501c-.135,.053-.3,.097-.497,.132-.197,.035-.399,.062-.607,.079s-.394,.026-.558,.026c-.493,0-.888-.075-1.187-.224s-.518-.39-.655-.721c-.138-.331-.207-.769-.207-1.314,0-.563,.069-1.007,.207-1.332,.138-.326,.352-.557,.642-.695s.664-.207,1.121-.207Z" fill="#231f20"/>
    <path d="M137.089,12.34l.062,.818,.053,.132v3.332h-.748v-4.282h.633Zm1.969-.105c.774,0,1.161,.393,1.161,1.178v3.209h-.747v-2.998c0-.287-.047-.485-.141-.593s-.252-.163-.475-.163c-.264,0-.527,.065-.791,.194-.264,.129-.578,.305-.941,.527l-.035-.536c.334-.258,.665-.459,.994-.603,.328-.144,.653-.215,.976-.215Z" fill="#231f20"/>
    <path d="M113.232,19.481l-.009,4.976c0,.188,.051,.33,.154,.426,.103,.097,.248,.146,.435,.146h.414l.088,.571c-.053,.023-.127,.044-.224,.062s-.197,.031-.299,.04-.189,.013-.259,.013c-.316,0-.57-.094-.76-.281-.191-.188-.286-.457-.286-.809v-5.143h.748Z" fill="#231f20"/>
    <path d="M118.227,22.998l-.009,.563-2.049,.009c-.205,.006-.349,.06-.431,.163s-.123,.245-.123,.426v.272c0,.223,.053,.386,.158,.488s.275,.154,.51,.154c.164,0,.35-.031,.559-.092,.208-.062,.417-.157,.628-.286,.211-.129,.404-.293,.58-.492v.554c-.064,.083-.157,.178-.277,.286s-.264,.214-.431,.316-.352,.188-.554,.255c-.203,.067-.421,.101-.655,.101-.252,0-.475-.045-.668-.136s-.345-.226-.453-.404-.163-.397-.163-.655v-.466c0-.334,.104-.593,.312-.778,.208-.185,.5-.277,.875-.277h2.189Zm-1.117-1.75c.316,0,.584,.042,.804,.127,.22,.085,.386,.227,.497,.426,.111,.2,.167,.472,.167,.818v3.016h-.589l-.114-.932-.053-.097v-1.987c0-.264-.06-.453-.18-.567-.12-.115-.35-.172-.69-.172-.223,0-.503,.012-.84,.035-.337,.024-.669,.05-.998,.08l-.07-.554c.199-.035,.418-.067,.655-.097s.479-.053,.725-.07c.247-.018,.475-.026,.686-.026Z" fill="#231f20"/>
    <path d="M120.187,21.354l1.134,3.191c.029,.088,.059,.175,.088,.259,.029,.085,.053,.172,.071,.26h.202l-.246,.571h-.229c-.059,0-.113-.018-.163-.053s-.083-.082-.101-.141l-1.556-4.088h.8Zm3.525,0l-1.714,4.519c-.07,.188-.158,.372-.264,.554-.105,.181-.233,.347-.383,.497-.149,.149-.325,.271-.527,.365s-.435,.146-.699,.158l-.07-.492c.346-.111,.612-.261,.8-.448,.188-.188,.337-.417,.448-.686l.211-.51c.047-.117,.093-.246,.141-.387,.047-.141,.091-.267,.132-.378l1.117-3.191h.809Z" fill="#231f20"/>
    <path d="M126.271,21.248c.645,0,1.112,.117,1.402,.352,.29,.234,.435,.583,.435,1.046,.006,.381-.073,.679-.237,.893s-.425,.321-.783,.321h-2.497v-.581h2.303c.193,0,.319-.066,.378-.198s.088-.277,.088-.435c-.006-.275-.088-.472-.246-.589s-.428-.176-.809-.176c-.311,0-.556,.046-.734,.137s-.305,.249-.378,.475-.11,.541-.11,.945c0,.458,.045,.806,.136,1.046,.091,.241,.236,.404,.435,.493,.199,.088,.463,.132,.792,.132,.229,0,.479-.01,.751-.031s.518-.045,.734-.075l.079,.501c-.135,.053-.3,.097-.497,.132-.197,.035-.399,.062-.607,.079s-.394,.026-.558,.026c-.493,0-.888-.075-1.187-.224s-.518-.39-.655-.721c-.138-.331-.207-.769-.207-1.314,0-.563,.069-1.007,.207-1.332,.138-.326,.352-.557,.642-.695s.664-.207,1.121-.207Z" fill="#231f20"/>
    <path d="M129.814,21.354l.097,.818,.07,.132v3.332h-.748v-4.282h.581Zm2.101-.105l-.088,.703h-.246c-.252,0-.504,.052-.756,.154-.252,.103-.56,.248-.923,.435l-.062-.466c.316-.258,.634-.46,.954-.607,.319-.146,.628-.22,.927-.22h.193Z" fill="#231f20"/>
    <path d="M134.86,18.69l.097,.36c-.586,.288-1.013,.749-1.279,1.385-.267,.636-.4,1.453-.4,2.449,0,.651,.059,1.228,.176,1.732,.117,.504,.299,.931,.545,1.279s.566,.625,.958,.831l-.097,.36c-.797-.311-1.382-.805-1.754-1.481-.373-.677-.559-1.581-.559-2.712,0-1.137,.186-2.045,.559-2.726,.372-.68,.957-1.172,1.754-1.477Z" fill="#231f20"/>
    <path d="M136.935,21.248c.188,0,.387,.006,.598,.018s.42,.026,.628,.044,.4,.041,.576,.07l-.062,.545c-.27-.011-.541-.022-.813-.031s-.543-.013-.813-.013c-.264-.005-.472,0-.625,.018s-.262,.065-.33,.141-.101,.205-.101,.387c0,.223,.053,.369,.158,.439s.261,.129,.466,.176l1.249,.281c.34,.083,.59,.208,.752,.378,.161,.17,.242,.437,.242,.8,0,.352-.066,.616-.198,.792s-.333,.293-.603,.352-.612,.088-1.028,.088c-.153,0-.38-.006-.682-.018s-.634-.047-.998-.105l.053-.545c.141,.006,.291,.013,.449,.022s.324,.013,.497,.013h.532c.322,0,.575-.015,.756-.044s.311-.086,.387-.172c.076-.084,.114-.212,.114-.382,0-.211-.062-.352-.185-.422s-.287-.129-.492-.176l-1.231-.281c-.234-.059-.422-.136-.562-.233-.141-.097-.244-.223-.308-.378s-.097-.35-.097-.584c0-.334,.059-.586,.176-.756,.117-.17,.299-.284,.545-.343s.562-.085,.949-.079Z" fill="#231f20"/>
    <path d="M139.221,18.69c.803,.305,1.391,.797,1.763,1.477,.373,.68,.559,1.588,.559,2.726,0,1.131-.186,2.036-.559,2.712-.372,.677-.959,1.171-1.763,1.481l-.088-.36c.393-.206,.711-.482,.954-.831s.423-.775,.541-1.279c.117-.504,.176-1.081,.176-1.732,0-.996-.132-1.812-.396-2.449-.264-.636-.689-1.097-1.275-1.385l.088-.36Z" fill="#231f20"/>
  </g>
  <g>
    <path d="M189.675,10.441c.439,0,.813,.053,1.121,.158s.554,.28,.738,.523,.319,.567,.405,.972c.084,.404,.127,.903,.127,1.495s-.043,1.09-.127,1.495c-.085,.404-.22,.729-.405,.972s-.431,.417-.738,.523-.682,.158-1.121,.158-.813-.053-1.121-.158-.555-.28-.743-.523c-.188-.243-.324-.567-.409-.972s-.127-.902-.127-1.495,.042-1.09,.127-1.495,.221-.729,.409-.972c.188-.243,.435-.417,.743-.523s.682-.158,1.121-.158Zm0,.694c-.398,0-.714,.076-.945,.229-.231,.153-.396,.406-.492,.761s-.145,.843-.145,1.464c0,.615,.048,1.102,.145,1.459s.261,.612,.492,.765c.231,.153,.547,.229,.945,.229s.713-.076,.945-.229c.231-.152,.396-.407,.492-.765s.145-.844,.145-1.459c0-.621-.048-1.109-.145-1.464s-.261-.608-.492-.761c-.232-.152-.547-.229-.945-.229Z" fill="#231f20"/>
    <path d="M194.018,12.34v3.007c-.006,.27,.044,.46,.149,.572s.281,.167,.527,.167c.24,0,.479-.057,.717-.171,.237-.115,.523-.28,.857-.497l.097,.519c-.334,.264-.658,.463-.972,.598s-.632,.202-.954,.202c-.779,0-1.169-.393-1.169-1.178v-3.218h.748Zm2.919,0v4.282h-.598l-.07-.809-.08-.132v-3.341h.748Z" fill="#231f20"/>
    <path d="M200.744,12.34v.589h-2.884v-.545l.844-.044h2.04Zm-1.363-1.266v4.37c0,.206,.044,.352,.132,.439,.088,.088,.237,.132,.449,.132h.65l.088,.571c-.094,.023-.202,.044-.325,.062s-.243,.031-.36,.04c-.118,.009-.211,.013-.282,.013-.357,0-.63-.1-.817-.299s-.281-.486-.281-.862v-4.466h.747Z" fill="#231f20"/>
    <path d="M202.274,12.34l.079,.888,.053,.114v2.743l-.035,.105c.018,.164,.028,.322,.031,.475s.004,.313,.004,.483v1.24h-.748v-6.049h.616Zm1.837-.105c.521,0,.897,.192,1.125,.576,.229,.384,.343,.948,.343,1.693,0,.551-.059,.989-.176,1.314-.117,.326-.294,.559-.532,.699s-.541,.211-.91,.211c-.281,0-.558-.038-.831-.114-.272-.076-.538-.193-.795-.352l.044-.449c.275,.077,.519,.14,.729,.189,.211,.05,.434,.075,.668,.075,.252,0,.453-.044,.602-.132,.149-.088,.26-.247,.33-.475s.105-.551,.105-.967c0-.405-.032-.724-.097-.958-.065-.234-.166-.403-.304-.505s-.321-.154-.549-.154c-.234,0-.466,.056-.694,.167-.229,.111-.496,.281-.8,.51l-.07-.501c.158-.17,.337-.317,.536-.44s.409-.218,.629-.286,.435-.101,.646-.101Z" fill="#231f20"/>
    <path d="M207.479,12.34v3.007c-.006,.27,.044,.46,.149,.572s.281,.167,.527,.167c.24,0,.479-.057,.717-.171,.237-.115,.523-.28,.857-.497l.097,.519c-.334,.264-.658,.463-.972,.598s-.632,.202-.954,.202c-.779,0-1.169-.393-1.169-1.178v-3.218h.748Zm2.919,0v4.282h-.598l-.07-.809-.08-.132v-3.341h.748Z" fill="#231f20"/>
    <path d="M214.204,12.34v.589h-2.884v-.545l.844-.044h2.04Zm-1.363-1.266v4.37c0,.206,.044,.352,.132,.439,.088,.088,.237,.132,.449,.132h.65l.088,.571c-.094,.023-.202,.044-.325,.062s-.243,.031-.36,.04c-.118,.009-.211,.013-.282,.013-.357,0-.63-.1-.817-.299s-.281-.486-.281-.862v-4.466h.747Z" fill="#231f20"/>
    <path d="M191.978,19.481l-.009,4.976c0,.188,.051,.33,.154,.426,.103,.097,.248,.146,.435,.146h.414l.088,.571c-.053,.023-.127,.044-.224,.062s-.197,.031-.299,.04-.189,.013-.259,.013c-.316,0-.57-.094-.76-.281-.191-.188-.286-.457-.286-.809v-5.143h.748Z" fill="#231f20"/>
    <path d="M196.972,22.998l-.009,.563-2.049,.009c-.205,.006-.349,.06-.431,.163s-.123,.245-.123,.426v.272c0,.223,.053,.386,.158,.488s.275,.154,.51,.154c.164,0,.35-.031,.559-.092,.208-.062,.417-.157,.628-.286,.211-.129,.404-.293,.58-.492v.554c-.064,.083-.157,.178-.277,.286s-.264,.214-.431,.316-.352,.188-.554,.255c-.203,.067-.421,.101-.655,.101-.252,0-.475-.045-.668-.136s-.345-.226-.453-.404-.163-.397-.163-.655v-.466c0-.334,.104-.593,.312-.778,.208-.185,.5-.277,.875-.277h2.189Zm-1.117-1.75c.316,0,.584,.042,.804,.127,.22,.085,.386,.227,.497,.426,.111,.2,.167,.472,.167,.818v3.016h-.589l-.114-.932-.053-.097v-1.987c0-.264-.06-.453-.18-.567-.12-.115-.35-.172-.69-.172-.223,0-.503,.012-.84,.035-.337,.024-.669,.05-.998,.08l-.07-.554c.199-.035,.418-.067,.655-.097s.479-.053,.725-.07c.247-.018,.475-.026,.686-.026Z" fill="#231f20"/>
    <path d="M198.933,21.354l1.134,3.191c.029,.088,.059,.175,.088,.259,.029,.085,.053,.172,.071,.26h.202l-.246,.571h-.229c-.059,0-.113-.018-.163-.053s-.083-.082-.101-.141l-1.556-4.088h.8Zm3.525,0l-1.714,4.519c-.07,.188-.158,.372-.264,.554-.105,.181-.233,.347-.383,.497-.149,.149-.325,.271-.527,.365s-.435,.146-.699,.158l-.07-.492c.346-.111,.612-.261,.8-.448,.188-.188,.337-.417,.448-.686l.211-.51c.047-.117,.093-.246,.141-.387,.047-.141,.091-.267,.132-.378l1.117-3.191h.809Z" fill="#231f20"/>
    <path d="M205.017,21.248c.645,0,1.112,.117,1.402,.352,.29,.234,.435,.583,.435,1.046,.006,.381-.073,.679-.237,.893s-.425,.321-.783,.321h-2.497v-.581h2.303c.193,0,.319-.066,.378-.198s.088-.277,.088-.435c-.006-.275-.088-.472-.246-.589s-.428-.176-.809-.176c-.311,0-.556,.046-.734,.137s-.305,.249-.378,.475-.11,.541-.11,.945c0,.458,.045,.806,.136,1.046,.091,.241,.236,.404,.435,.493,.199,.088,.463,.132,.792,.132,.229,0,.479-.01,.751-.031s.518-.045,.734-.075l.079,.501c-.135,.053-.3,.097-.497,.132-.197,.035-.399,.062-.607,.079s-.394,.026-.558,.026c-.493,0-.888-.075-1.187-.224s-.518-.39-.655-.721c-.138-.331-.207-.769-.207-1.314,0-.563,.069-1.007,.207-1.332,.138-.326,.352-.557,.642-.695s.664-.207,1.121-.207Z" fill="#231f20"/>
    <path d="M208.56,21.354l.097,.818,.07,.132v3.332h-.748v-4.282h.581Zm2.101-.105l-.088,.703h-.246c-.252,0-.504,.052-.756,.154-.252,.103-.56,.248-.923,.435l-.062-.466c.316-.258,.634-.46,.954-.607,.319-.146,.628-.22,.927-.22h.193Z" fill="#231f20"/>
  </g>
  <g>
    <path d="M44.305,10.555v6.066h-.773v-6.066h.773Z" fill="#231f20"/>
    <path d="M46.389,12.34l.062,.818,.053,.132v3.332h-.748v-4.282h.633Zm1.969-.105c.774,0,1.161,.393,1.161,1.178v3.209h-.747v-2.998c0-.287-.047-.485-.141-.593s-.252-.163-.475-.163c-.264,0-.527,.065-.791,.194-.264,.129-.578,.305-.941,.527l-.035-.536c.334-.258,.665-.459,.994-.603,.328-.144,.653-.215,.976-.215Z" fill="#231f20"/>
    <path d="M51.48,12.34l.079,.888,.053,.114v2.743l-.035,.105c.018,.164,.028,.322,.031,.475s.004,.313,.004,.483v1.24h-.748v-6.049h.616Zm1.837-.105c.521,0,.897,.192,1.125,.576,.229,.384,.343,.948,.343,1.693,0,.551-.059,.989-.176,1.314-.117,.326-.294,.559-.532,.699s-.541,.211-.91,.211c-.281,0-.558-.038-.831-.114-.272-.076-.538-.193-.795-.352l.044-.449c.275,.077,.519,.14,.729,.189,.211,.05,.434,.075,.668,.075,.252,0,.453-.044,.602-.132,.149-.088,.26-.247,.33-.475s.105-.551,.105-.967c0-.405-.032-.724-.097-.958-.065-.234-.166-.403-.304-.505s-.321-.154-.549-.154c-.234,0-.466,.056-.694,.167-.229,.111-.496,.281-.8,.51l-.07-.501c.158-.17,.337-.317,.536-.44s.409-.218,.629-.286,.435-.101,.646-.101Z" fill="#231f20"/>
    <path d="M56.684,12.34v3.007c-.006,.27,.044,.46,.149,.572s.281,.167,.527,.167c.24,0,.479-.057,.717-.171,.237-.115,.523-.28,.857-.497l.097,.519c-.334,.264-.658,.463-.972,.598s-.632,.202-.954,.202c-.779,0-1.169-.393-1.169-1.178v-3.218h.748Zm2.919,0v4.282h-.598l-.07-.809-.08-.132v-3.341h.748Z" fill="#231f20"/>
    <path d="M63.41,12.34v.589h-2.884v-.545l.844-.044h2.04Zm-1.363-1.266v4.37c0,.206,.044,.352,.132,.439,.088,.088,.237,.132,.449,.132h.65l.088,.571c-.094,.023-.202,.044-.325,.062s-.243,.031-.36,.04c-.118,.009-.211,.013-.282,.013-.357,0-.63-.1-.817-.299s-.281-.486-.281-.862v-4.466h.747Z" fill="#231f20"/>
    <path d="M44.595,19.481l-.009,4.976c0,.188,.051,.33,.154,.426,.103,.097,.248,.146,.435,.146h.414l.088,.571c-.053,.023-.127,.044-.224,.062s-.197,.031-.299,.04-.189,.013-.259,.013c-.316,0-.57-.094-.76-.281-.191-.188-.286-.457-.286-.809v-5.143h.748Z" fill="#231f20"/>
    <path d="M49.589,22.998l-.009,.563-2.049,.009c-.205,.006-.349,.06-.431,.163s-.123,.245-.123,.426v.272c0,.223,.053,.386,.158,.488s.275,.154,.51,.154c.164,0,.35-.031,.559-.092,.208-.062,.417-.157,.628-.286,.211-.129,.404-.293,.58-.492v.554c-.064,.083-.157,.178-.277,.286s-.264,.214-.431,.316-.352,.188-.554,.255c-.203,.067-.421,.101-.655,.101-.252,0-.475-.045-.668-.136s-.345-.226-.453-.404-.163-.397-.163-.655v-.466c0-.334,.104-.593,.312-.778,.208-.185,.5-.277,.875-.277h2.189Zm-1.117-1.75c.316,0,.584,.042,.804,.127,.22,.085,.386,.227,.497,.426,.111,.2,.167,.472,.167,.818v3.016h-.589l-.114-.932-.053-.097v-1.987c0-.264-.06-.453-.18-.567-.12-.115-.35-.172-.69-.172-.223,0-.503,.012-.84,.035-.337,.024-.669,.05-.998,.08l-.07-.554c.199-.035,.418-.067,.655-.097s.479-.053,.725-.07c.247-.018,.475-.026,.686-.026Z" fill="#231f20"/>
    <path d="M51.55,21.354l1.134,3.191c.029,.088,.059,.175,.088,.259,.029,.085,.053,.172,.071,.26h.202l-.246,.571h-.229c-.059,0-.113-.018-.163-.053s-.083-.082-.101-.141l-1.556-4.088h.8Zm3.525,0l-1.714,4.519c-.07,.188-.158,.372-.264,.554-.105,.181-.233,.347-.383,.497-.149,.149-.325,.271-.527,.365s-.435,.146-.699,.158l-.07-.492c.346-.111,.612-.261,.8-.448,.188-.188,.337-.417,.448-.686l.211-.51c.047-.117,.093-.246,.141-.387,.047-.141,.091-.267,.132-.378l1.117-3.191h.809Z" fill="#231f20"/>
    <path d="M57.634,21.248c.645,0,1.112,.117,1.402,.352,.29,.234,.435,.583,.435,1.046,.006,.381-.073,.679-.237,.893s-.425,.321-.783,.321h-2.497v-.581h2.303c.193,0,.319-.066,.378-.198s.088-.277,.088-.435c-.006-.275-.088-.472-.246-.589s-.428-.176-.809-.176c-.311,0-.556,.046-.734,.137s-.305,.249-.378,.475-.11,.541-.11,.945c0,.458,.045,.806,.136,1.046,.091,.241,.236,.404,.435,.493,.199,.088,.463,.132,.792,.132,.229,0,.479-.01,.751-.031s.518-.045,.734-.075l.079,.501c-.135,.053-.3,.097-.497,.132-.197,.035-.399,.062-.607,.079s-.394,.026-.558,.026c-.493,0-.888-.075-1.187-.224s-.518-.39-.655-.721c-.138-.331-.207-.769-.207-1.314,0-.563,.069-1.007,.207-1.332,.138-.326,.352-.557,.642-.695s.664-.207,1.121-.207Z" fill="#231f20"/>
    <path d="M61.177,21.354l.097,.818,.07,.132v3.332h-.748v-4.282h.581Zm2.101-.105l-.088,.703h-.246c-.252,0-.504,.052-.756,.154-.252,.103-.56,.248-.923,.435l-.062-.466c.316-.258,.634-.46,.954-.607,.319-.146,.628-.22,.927-.22h.193Z" fill="#231f20"/>
  </g>
  <circle cx="51.363" cy="42.629" r="8.299" fill="none" stroke="#231f20" stroke-miterlimit="10" stroke-width=".75"/>
  <circle cx="51.363" cy="65.399" r="8.299" fill="none" stroke="#231f20" stroke-miterlimit="10" stroke-width=".75"/>
  <circle cx="125.496" cy="53.334" r="8.299" fill="none" stroke="#231f20" stroke-miterlimit="10" stroke-width=".75"/>
  <circle cx="125.496" cy="88.168" r="8.299" fill="none" stroke="#231f20" stroke-miterlimit="10" stroke-width=".75"/>
  <circle cx="198.839" cy="88.168" r="8.299" fill="none" stroke="#231f20" stroke-miterlimit="10" stroke-width=".75"/>
  <circle cx="125.496" cy="122.347" r="8.299" fill="none" stroke="#231f20" stroke-miterlimit="10" stroke-width=".75"/>
  <circle cx="51.363" cy="88.168" r="8.299" fill="none" stroke="#231f20" stroke-miterlimit="10" stroke-width=".75"/>
  <circle cx="51.363" cy="110.938" r="8.299" fill="none" stroke="#231f20" stroke-miterlimit="10" stroke-width=".75"/>
  <circle cx="51.363" cy="133.707" r="8.299" fill="none" stroke="#231f20" stroke-miterlimit="10" stroke-width=".75"/>
  <g>
    <line x1="26.4" y1="42.629" x2="40.801" y2="42.629" fill="none" stroke="#231f20" stroke-miterlimit="10" stroke-width=".75"/>
    <g>
      <path d="M26.48,44.039c-.779,0-1.41-.631-1.41-1.41s.631-1.41,1.41-1.41,1.41,.631,1.41,1.41-.631,1.41-1.41,1.41Z" fill="#fff"/>
      <path d="M26.48,44.226c.881,0,1.597-.717,1.597-1.597s-.717-1.597-1.597-1.597-1.597,.717-1.597,1.597,.717,1.597,1.597,1.597-.881,0,0,0Zm0-2.82c.674,0,1.222,.548,1.222,1.222s-.548,1.222-1.222,1.222-1.222-.548-1.222-1.222,.548-1.222,1.222-1.222-.674,0,0,0Z" fill="#231f20"/>
    </g>
    <path d="M43.064,42.629c-1.065,.395-2.386,1.069-3.205,1.783l.645-1.783-.645-1.783c.819,.714,2.14,1.388,3.205,1.783Z" fill="#231f20"/>
  </g>
  <g>
    <line x1="207.139" y1="88.168" x2="228.881" y2="88.168" fill="none" stroke="#231f20" stroke-miterlimit="10" stroke-width=".75"/>
    <path d="M231.144,88.168c-1.065,.395-2.386,1.069-3.205,1.783l.645-1.783-.645-1.783c.819,.714,2.14,1.388,3.205,1.783Z" fill="#231f20"/>
  </g>
  <g>
    <line x1="59.663" y1="42.629" x2="114.962" y2="51.513" fill="none" stroke="#231f20" stroke-miterlimit="10" stroke-width=".75"/>
    <path d="M117.197,51.872c-1.114,.221-2.526,.677-3.448,1.252l.92-1.659-.354-1.863c.695,.835,1.893,1.71,2.882,2.269Z" fill="#231f20"/>
  </g>
  <g>
    <line x1="59.663" y1="64.387" x2="114.967" y2="54.763" fill="none" stroke="#231f20" stroke-miterlimit="10" stroke-width=".75"/>
    <path d="M117.197,54.375c-.981,.572-2.168,1.463-2.852,2.307l.33-1.868-.941-1.646c.929,.563,2.347,1.001,3.464,1.207Z" fill="#231f20"/>
  </g>
  <g>
    <line x1="59.519" y1="67.343" x2="115.213" y2="85.073" fill="none" stroke="#231f20" stroke-miterlimit="10" stroke-width=".75"/>
    <path d="M117.37,85.76c-1.135,.053-2.598,.295-3.595,.727l1.156-1.504-.074-1.895c.564,.929,1.618,1.972,2.513,2.671Z" fill="#231f20"/>
  </g>
  <g>
    <line x1="58.261" y1="70.014" x2="117.604" y2="114.732" fill="none" stroke="#231f20" stroke-miterlimit="10" stroke-width=".75"/>
    <path d="M119.411,116.094c-1.088-.325-2.549-.582-3.633-.505l1.588-1.036,.558-1.812c.224,1.063,.874,2.397,1.487,3.353Z" fill="#231f20"/>
  </g>
  <g>
    <line x1="58.902" y1="84.713" x2="115.646" y2="57.858" fill="none" stroke="#231f20" stroke-miterlimit="10" stroke-width=".75"/>
    <path d="M117.692,56.89c-.794,.813-1.699,1.987-2.134,2.983l-.18-1.888-1.346-1.336c1.046,.295,2.529,.339,3.66,.241Z" fill="#231f20"/>
  </g>
  <g>
    <line x1="59.663" y1="88.168" x2="114.933" y2="88.168" fill="none" stroke="#231f20" stroke-miterlimit="10" stroke-width=".75"/>
    <path d="M117.197,88.168c-1.065,.395-2.386,1.069-3.205,1.783l.645-1.783-.645-1.783c.819,.714,2.14,1.388,3.205,1.783Z" fill="#231f20"/>
  </g>
  <g>
    <line x1="58.674" y1="91.321" x2="116.099" y2="117.022" fill="none" stroke="#231f20" stroke-miterlimit="10" stroke-width=".75"/>
    <path d="M118.165,117.947c-1.133-.074-2.615,.001-3.654,.318l1.317-1.364,.14-1.891c.456,.986,1.386,2.142,2.197,2.937Z" fill="#231f20"/>
  </g>
  <g>
    <line x1="58.128" y1="105.986" x2="117.424" y2="60.481" fill="none" stroke="#231f20" stroke-miterlimit="10" stroke-width=".75"/>
    <path d="M119.219,59.103c-.604,.962-1.242,2.301-1.457,3.366l-.574-1.808-1.597-1.022c1.085,.068,2.543-.202,3.628-.537Z" fill="#231f20"/>
  </g>
  <g>
    <line x1="59.423" y1="108.43" x2="115.035" y2="91.188" fill="none" stroke="#231f20" stroke-miterlimit="10" stroke-width=".75"/>
    <path d="M117.197,90.518c-.9,.693-1.963,1.728-2.533,2.653l.088-1.895-1.144-1.512c.994,.44,2.455,.692,3.59,.754Z" fill="#231f20"/>
  </g>
  <g>
    <line x1="59.663" y1="110.938" x2="114.963" y2="119.972" fill="none" stroke="#231f20" stroke-miterlimit="10" stroke-width=".75"/>
    <path d="M117.197,120.337c-1.115,.218-2.527,.671-3.451,1.243l.924-1.656-.349-1.864c.693,.837,1.888,1.715,2.876,2.277Z" fill="#231f20"/>
  </g>
  <g>
    <line x1="57.039" y1="127.321" x2="119.735" y2="62.48" fill="none" stroke="#231f20" stroke-miterlimit="10" stroke-width=".75"/>
    <path d="M121.308,60.853c-.456,1.04-.89,2.459-.946,3.544l-.834-1.703-1.73-.776c1.083-.092,2.486-.574,3.51-1.065Z" fill="#231f20"/>
  </g>
  <g>
    <line x1="58.333" y1="129.671" x2="116.385" y2="94.233" fill="none" stroke="#231f20" stroke-miterlimit="10" stroke-width=".75"/>
    <path d="M118.317,93.054c-.703,.892-1.48,2.156-1.807,3.192l-.379-1.858-1.48-1.186c1.071,.183,2.55,.07,3.665-.148Z" fill="#231f20"/>
  </g>
  <g>
    <line x1="59.663" y1="132.109" x2="114.701" y2="122.972" fill="none" stroke="#231f20" stroke-miterlimit="10" stroke-width=".75"/>
    <path d="M116.934,122.601c-.986,.564-2.179,1.446-2.87,2.284l.344-1.865-.928-1.653c.925,.57,2.339,1.019,3.454,1.234Z" fill="#231f20"/>
  </g>
  <g>
    <line x1="59.006" y1="45.871" x2="116.709" y2="81.933" fill="none" stroke="#231f20" stroke-miterlimit="10" stroke-width=".75"/>
    <path d="M118.628,83.133c-1.112-.229-2.59-.358-3.663-.186l1.492-1.171,.398-1.854c.316,1.04,1.079,2.312,1.773,3.211Z" fill="#231f20"/>
  </g>
  <g>
    <line x1="57.111" y1="48.617" x2="119.876" y2="113.163" fill="none" stroke="#231f20" stroke-miterlimit="10" stroke-width=".75"/>
    <path d="M121.454,114.786c-1.026-.488-2.43-.965-3.513-1.055l1.728-.781,.829-1.706c.059,1.085,.497,2.502,.956,3.541Z" fill="#231f20"/>
  </g>
  <g>
    <line x1="132.732" y1="57.196" x2="188.991" y2="83.612" fill="none" stroke="#231f20" stroke-miterlimit="10" stroke-width=".75"/>
    <path d="M191.039,84.574c-1.132-.095-2.614-.046-3.659,.252l1.342-1.34,.174-1.888c.438,.995,1.347,2.166,2.143,2.976Z" fill="#231f20"/>
  </g>
  <g>
    <line x1="133.796" y1="88.168" x2="188.276" y2="88.168" fill="none" stroke="#231f20" stroke-miterlimit="10" stroke-width=".75"/>
    <path d="M190.54,88.168c-1.065,.395-2.386,1.069-3.205,1.783l.645-1.783-.645-1.783c.819,.714,2.14,1.388,3.205,1.783Z" fill="#231f20"/>
  </g>
  <g>
    <line x1="133.063" y1="118.949" x2="188.978" y2="92.621" fill="none" stroke="#231f20" stroke-miterlimit="10" stroke-width=".75"/>
    <path d="M191.026,91.657c-.795,.811-1.703,1.984-2.14,2.979l-.176-1.888-1.343-1.338c1.045,.297,2.528,.344,3.659,.248Z" fill="#231f20"/>
  </g>
  <g>
    <line x1="26.4" y1="65.399" x2="40.801" y2="65.399" fill="none" stroke="#231f20" stroke-miterlimit="10" stroke-width=".75"/>
    <g>
      <path d="M26.48,66.808c-.779,0-1.41-.631-1.41-1.41s.631-1.41,1.41-1.41,1.41,.631,1.41,1.41-.631,1.41-1.41,1.41Z" fill="#fff"/>
      <path d="M26.48,66.996c.881,0,1.597-.717,1.597-1.597s-.717-1.597-1.597-1.597-1.597,.717-1.597,1.597,.717,1.597,1.597,1.597-.881,0,0,0Zm0-2.82c.674,0,1.222,.548,1.222,1.222s-.548,1.222-1.222,1.222-1.222-.548-1.222-1.222,.548-1.222,1.222-1.222-.674,0,0,0Z" fill="#231f20"/>
    </g>
    <path d="M43.064,65.399c-1.065,.395-2.386,1.069-3.205,1.783l.645-1.783-.645-1.783c.819,.714,2.14,1.388,3.205,1.783Z" fill="#231f20"/>
  </g>
  <g>
    <line x1="26.4" y1="88.168" x2="40.801" y2="88.168" fill="none" stroke="#231f20" stroke-miterlimit="10" stroke-width=".75"/>
    <g>
      <path d="M26.48,89.578c-.779,0-1.41-.631-1.41-1.41s.631-1.41,1.41-1.41,1.41,.631,1.41,1.41-.631,1.41-1.41,1.41Z" fill="#fff"/>
      <path d="M26.48,89.766c.881,0,1.597-.717,1.597-1.597s-.717-1.597-1.597-1.597-1.597,.717-1.597,1.597,.717,1.597,1.597,1.597-.881,0,0,0Zm0-2.82c.674,0,1.222,.548,1.222,1.222s-.548,1.222-1.222,1.222-1.222-.548-1.222-1.222,.548-1.222,1.222-1.222-.674,0,0,0Z" fill="#231f20"/>
    </g>
    <path d="M43.064,88.168c-1.065,.395-2.386,1.069-3.205,1.783l.645-1.783-.645-1.783c.819,.714,2.14,1.388,3.205,1.783Z" fill="#231f20"/>
  </g>
  <g>
    <line x1="26.4" y1="110.938" x2="40.801" y2="110.938" fill="none" stroke="#231f20" stroke-miterlimit="10" stroke-width=".75"/>
    <g>
      <path d="M26.48,112.348c-.779,0-1.41-.631-1.41-1.41s.631-1.41,1.41-1.41,1.41,.631,1.41,1.41-.631,1.41-1.41,1.41Z" fill="#fff"/>
      <path d="M26.48,112.535c.881,0,1.597-.717,1.597-1.597s-.717-1.597-1.597-1.597-1.597,.717-1.597,1.597,.717,1.597,1.597,1.597-.881,0,0,0Zm0-2.82c.674,0,1.222,.548,1.222,1.222s-.548,1.222-1.222,1.222-1.222-.548-1.222-1.222,.548-1.222,1.222-1.222-.674,0,0,0Z" fill="#231f20"/>
    </g>
    <path d="M43.064,110.938c-1.065,.395-2.386,1.069-3.205,1.783l.645-1.783-.645-1.783c.819,.714,2.14,1.388,3.205,1.783Z" fill="#231f20"/>
  </g>
  <g>
    <line x1="26.4" y1="133.707" x2="40.801" y2="133.707" fill="none" stroke="#231f20" stroke-miterlimit="10" stroke-width=".75"/>
    <g>
      <path d="M26.48,135.117c-.779,0-1.41-.631-1.41-1.41s.631-1.41,1.41-1.41,1.41,.631,1.41,1.41-.631,1.41-1.41,1.41Z" fill="#fff"/>
      <path d="M26.48,135.305c.881,0,1.597-.717,1.597-1.597s-.717-1.597-1.597-1.597-1.597,.717-1.597,1.597,.717,1.597,1.597,1.597-.881,0,0,0Zm0-2.82c.674,0,1.222,.548,1.222,1.222s-.548,1.222-1.222,1.222-1.222-.548-1.222-1.222,.548-1.222,1.222-1.222-.674,0,0,0Z" fill="#231f20"/>
    </g>
    <path d="M43.064,133.707c-1.065,.395-2.386,1.069-3.205,1.783l.645-1.783-.645-1.783c.819,.714,2.14,1.388,3.205,1.783Z" fill="#231f20"/>
  </g>
</svg>