<?xml version="1.0" encoding="UTF-8"?>
<svg id="a" data-name="Layer 3" xmlns="http://www.w3.org/2000/svg" viewBox="0 0 250.785 157.48">
  <g>
    <path d="M13.706,27.791c-.059-.309-.119-.605-.182-.891s-.127-.551-.193-.797-.121-.407-.164-.483-.089-.129-.138-.158-.11-.044-.185-.044c-.082,0-.156,.019-.223,.056s-.139,.102-.217,.193-.182,.235-.311,.431l-.381-.252c.246-.371,.482-.648,.709-.832s.494-.275,.803-.275c.121,0,.228,.014,.319,.041s.173,.069,.243,.126,.133,.13,.188,.22,.107,.212,.158,.366,.099,.346,.144,.574,.085,.466,.12,.712h.059c.375-.527,.659-.913,.853-1.157s.356-.426,.489-.545,.261-.203,.384-.252,.286-.073,.489-.073c.184,0,.334,.023,.451,.07l-.234,1.061h-.41c-.023-.164-.092-.246-.205-.246-.035,0-.072,.006-.111,.018s-.087,.037-.144,.076-.14,.115-.249,.229-.232,.252-.369,.416-.277,.336-.422,.516l-.398,.498c.07,.375,.137,.699,.199,.973s.118,.501,.167,.683,.092,.325,.129,.431,.077,.185,.12,.237,.087,.09,.132,.111,.097,.032,.155,.032c.105,0,.208-.041,.308-.123s.243-.268,.431-.557l.381,.252c-.273,.406-.521,.692-.741,.858s-.483,.249-.788,.249c-.168,0-.311-.03-.428-.091s-.219-.157-.305-.29-.162-.34-.229-.621c-.121-.5-.195-.883-.223-1.148h-.059c-.414,.582-.722,1-.923,1.254s-.367,.441-.498,.562-.258,.206-.381,.255-.286,.073-.489,.073c-.184,0-.334-.023-.451-.07l.234-1.061h.41c.023,.164,.092,.246,.205,.246,.055,0,.112-.015,.173-.044s.147-.1,.261-.211,.27-.286,.469-.524,.488-.596,.867-1.072Z" fill="#231f20"/>
    <path d="M19.672,33.544c0,.132,.007,.232,.022,.299,.015,.067,.041,.122,.079,.164s.091,.075,.162,.099c.07,.024,.159,.042,.267,.055,.107,.013,.248,.021,.423,.025v.25h-2.524v-.25c.253-.011,.433-.026,.542-.046,.108-.02,.19-.048,.248-.087,.057-.039,.099-.093,.125-.164,.026-.071,.04-.186,.04-.345v-2.771c0-.091-.016-.158-.048-.2s-.079-.063-.14-.063c-.073,0-.176,.038-.311,.112-.135,.075-.301,.179-.499,.311l-.15-.263,1.599-.953h.188c-.014,.218-.021,.521-.021,.908v2.917Z" fill="#231f20"/>
  </g>
  <g>
    <path d="M51.642,28.509c-.072,.276-.144,.552-.144,.84,0,.468,.228,.731,.708,.731,1.295,0,1.967-1.379,2.339-2.435,.096-.288,.18-.588,.18-.888,0-.887-.708-.792-.731-1.307-.024-.432,.36-.504,.647-.504,.504,0,.564,.612,.564,.996,0,1.751-1.259,4.605-3.31,4.605-.828,0-1.332-.336-1.332-1.199,0-.504,.144-1.02,.276-1.499-.479,1.067-1.463,2.698-2.807,2.698-.671,0-.936-.408-.936-1.043,0-.396,.132-.768,.228-1.139l.564-2.123c.036-.108,.06-.228,.06-.348,0-.288-.456-.264-.647-.264v-.18c.636-.108,1.259-.276,1.859-.528l.048,.036-.972,3.682c-.036,.156-.132,.54-.132,.875,0,.312,.072,.563,.336,.563,.695-.012,1.547-1.367,1.835-1.811,.635-.971,.947-1.907,1.319-3.226h1.008l-.959,3.466Z" fill="#231f20"/>
    <path d="M56.476,33.898c-.007,.042-.007,.07-.007,.098,0,.049,.042,.07,.091,.07,.154,0,.196-.083,.447-.356l.091,.07c-.245,.314-.594,.733-.937,.733-.196,0-.279-.133-.279-.321,0-.084,0-.217,.552-2.362,.007-.014,.014-.062,.014-.083,0-.119-.056-.154-.217-.154-.063,0-.146,.014-.196,.028l-.021-.112,1.104-.154-.643,2.544Zm.517-3.096c-.203,0-.335-.14-.335-.321,0-.175,.133-.35,.335-.35,.182,0,.335,.175,.335,.35,0,.182-.154,.321-.335,.321Z" fill="#231f20"/>
    <path d="M58.218,35.288c.384-.258,.58-.517,.58-.748,0-.049-.042-.091-.098-.091-.056,0-.125,.028-.203,.028-.258,0-.405-.119-.405-.356s.168-.398,.419-.398c.314,0,.559,.245,.559,.608,0,.419-.3,.86-.783,1.09l-.07-.133Z" fill="#231f20"/>
    <path d="M60.282,34.436v-.105c.517-.028,.664-.175,.664-.559v-3.138c0-.238-.063-.342-.21-.342-.07,0-.188,.035-.314,.083l-.188,.07v-.098l1.251-.636,.062,.021v4.172c0,.301,.14,.426,.664,.426v.105h-1.929Z" fill="#231f20"/>
  </g>
  <g>
    <path d="M15.108,55.748c.312-.479,.731-1.007,1.331-1.007,.384,0,.588,.144,.588,.396,0,.228-.156,.503-.468,.503-.264,0-.324-.108-.528-.108-.36,0-.492,.192-.66,.456l-.66,1.02c.36,.744,.636,2.363,1.175,2.363,.192,0,.48-.168,.732-.684l.168,.12c-.144,.18-.684,1.331-1.379,1.331-.492,0-.72-.492-.875-.923l-.48-1.355-.755,1.175c-.384,.588-.731,1.104-1.403,1.104-.432,0-.624-.3-.624-.563,0-.192,.156-.444,.456-.444,.312,0,.264,.24,.564,.24,.144,0,.456-.12,.839-.708l.78-1.211-.396-1.104c-.204-.576-.516-1.067-1.175-1.067-.156,0-.336,.024-.456,.072l-.036-.216,1.583-.396c.528,.288,.756,.78,.899,1.175l.24,.66,.54-.828Z" fill="#231f20"/>
    <path d="M18.069,60.434c.167-.412,.329-.65,.573-.838,.272-.209,.573-.293,.895-.293,.671,0,1.132,.517,1.132,1.181,0,.468-.216,.79-1.041,1.635l-1.314,1.342v.035h1.265c.413,0,.552-.104,.72-.454l.119,.049-.35,.937h-2.474v-.119l1.467-1.565c.461-.489,.776-.93,.944-1.307,.042-.091,.062-.224,.062-.377,0-.482-.279-.845-.832-.845-.419,0-.776,.203-1.02,.671l-.147-.049Z" fill="#231f20"/>
  </g>
  <g>
    <path d="M51.642,58.099c-.072,.276-.144,.552-.144,.84,0,.468,.228,.731,.708,.731,1.295,0,1.967-1.379,2.339-2.435,.096-.288,.18-.588,.18-.888,0-.887-.708-.792-.731-1.307-.024-.432,.36-.504,.647-.504,.504,0,.564,.612,.564,.996,0,1.751-1.259,4.605-3.31,4.605-.828,0-1.332-.336-1.332-1.199,0-.504,.144-1.02,.276-1.499-.479,1.067-1.463,2.698-2.807,2.698-.671,0-.936-.408-.936-1.043,0-.396,.132-.768,.228-1.139l.564-2.123c.036-.108,.06-.228,.06-.348,0-.288-.456-.264-.647-.264v-.18c.636-.108,1.259-.276,1.859-.528l.048,.036-.972,3.682c-.036,.156-.132,.54-.132,.875,0,.312,.072,.563,.336,.563,.695-.012,1.547-1.367,1.835-1.811,.635-.971,.947-1.907,1.319-3.226h1.008l-.959,3.466Z" fill="#231f20"/>
    <path d="M56.476,63.488c-.007,.042-.007,.07-.007,.098,0,.049,.042,.07,.091,.07,.154,0,.196-.083,.447-.356l.091,.07c-.245,.314-.594,.733-.937,.733-.196,0-.279-.133-.279-.321,0-.084,0-.217,.552-2.362,.007-.014,.014-.062,.014-.083,0-.119-.056-.154-.217-.154-.063,0-.146,.014-.196,.028l-.021-.112,1.104-.154-.643,2.544Zm.517-3.096c-.203,0-.335-.14-.335-.321,0-.175,.133-.35,.335-.35,.182,0,.335,.175,.335,.35,0,.182-.154,.321-.335,.321Z" fill="#231f20"/>
    <path d="M57.673,64.802c.371-.238,.531-.44,.531-.629,0-.07-.028-.119-.14-.203-.14-.104-.175-.209-.175-.342,0-.167,.154-.308,.356-.308,.251,0,.405,.238,.405,.518,0,.391-.321,.783-.908,1.09l-.07-.125Z" fill="#231f20"/>
    <path d="M60.016,60.434c.167-.412,.329-.65,.573-.838,.272-.209,.573-.293,.895-.293,.671,0,1.132,.517,1.132,1.181,0,.468-.216,.79-1.041,1.635l-1.314,1.342v.035h1.265c.413,0,.552-.104,.72-.454l.119,.049-.35,.937h-2.474v-.119l1.467-1.565c.461-.489,.776-.93,.944-1.307,.042-.091,.062-.224,.062-.377,0-.482-.279-.845-.832-.845-.419,0-.776,.203-1.02,.671l-.147-.049Z" fill="#231f20"/>
  </g>
  <g>
    <path d="M15.109,120.774c.312-.479,.731-1.007,1.331-1.007,.384,0,.588,.144,.588,.396,0,.228-.156,.503-.468,.503-.264,0-.324-.108-.528-.108-.36,0-.492,.192-.66,.456l-.66,1.02c.36,.744,.636,2.363,1.175,2.363,.192,0,.48-.168,.732-.684l.168,.12c-.144,.18-.684,1.331-1.379,1.331-.492,0-.72-.492-.875-.923l-.48-1.355-.755,1.175c-.384,.588-.731,1.104-1.403,1.104-.432,0-.624-.3-.624-.563,0-.192,.156-.444,.456-.444,.312,0,.264,.24,.564,.24,.144,0,.456-.12,.839-.708l.78-1.211-.396-1.104c-.204-.576-.516-1.067-1.175-1.067-.156,0-.336,.024-.456,.072l-.036-.216,1.583-.396c.528,.288,.756,.78,.899,1.175l.24,.66,.54-.828Z" fill="#231f20"/>
    <path d="M20.152,128.563c-.007,.021-.014,.063-.014,.084,0,.042,.035,.063,.104,.063,.14,0,.335-.245,.434-.392l.077,.084c-.209,.314-.58,.734-.909,.734-.224,0-.279-.161-.279-.287,0-.14,.014-.238,.07-.447h-.035c-.517,.65-.936,.734-1.195,.734-.51,0-.615-.517-.615-.888,0-.72,.72-2.278,1.796-2.278,.398,0,.559,.182,.566,.35h.014l.37-1.46c.007-.028,.014-.056,.014-.084,0-.091-.049-.14-.23-.14-.063,0-.14,.014-.189,.021l-.028-.104,1.09-.168-1.042,4.179Zm-.496-2.383c-.692,0-1.258,1.397-1.258,2.068,0,.342,.195,.461,.391,.461,.489,0,.951-.657,1.146-1.3,.077-.245,.112-.518,.112-.734,0-.329-.104-.496-.391-.496Z" fill="#231f20"/>
  </g>
  <g>
    <path d="M51.642,123.125c-.072,.276-.144,.552-.144,.84,0,.468,.228,.731,.708,.731,1.295,0,1.967-1.379,2.339-2.435,.096-.288,.18-.588,.18-.888,0-.887-.708-.792-.731-1.307-.024-.432,.36-.504,.647-.504,.504,0,.564,.612,.564,.996,0,1.751-1.259,4.605-3.31,4.605-.828,0-1.332-.336-1.332-1.199,0-.504,.144-1.02,.276-1.499-.479,1.067-1.463,2.698-2.807,2.698-.671,0-.936-.408-.936-1.043,0-.396,.132-.768,.228-1.139l.564-2.123c.036-.108,.06-.228,.06-.348,0-.288-.456-.264-.647-.264v-.18c.636-.108,1.259-.276,1.859-.528l.048,.036-.972,3.682c-.036,.156-.132,.54-.132,.875,0,.312,.072,.563,.336,.563,.695-.012,1.547-1.367,1.835-1.811,.635-.971,.947-1.907,1.319-3.226h1.008l-.959,3.466Z" fill="#231f20"/>
    <path d="M56.476,128.514c-.007,.042-.007,.07-.007,.098,0,.049,.042,.07,.091,.07,.154,0,.196-.083,.447-.356l.091,.07c-.245,.314-.594,.733-.937,.733-.196,0-.279-.133-.279-.321,0-.084,0-.217,.552-2.362,.007-.014,.014-.062,.014-.083,0-.119-.056-.154-.217-.154-.063,0-.146,.014-.196,.028l-.021-.112,1.104-.154-.643,2.544Zm.517-3.096c-.203,0-.335-.14-.335-.321,0-.175,.133-.35,.335-.35,.182,0,.335,.175,.335,.35,0,.182-.154,.321-.335,.321Z" fill="#231f20"/>
    <path d="M57.673,129.828c.371-.238,.531-.44,.531-.629,0-.07-.028-.119-.14-.203-.14-.104-.175-.209-.175-.342,0-.167,.154-.308,.356-.308,.251,0,.405,.238,.405,.518,0,.391-.321,.783-.908,1.09l-.07-.125Z" fill="#231f20"/>
    <path d="M62.099,128.563c-.007,.021-.014,.063-.014,.084,0,.042,.035,.063,.104,.063,.14,0,.335-.245,.434-.392l.077,.084c-.209,.314-.58,.734-.909,.734-.224,0-.279-.161-.279-.287,0-.14,.014-.238,.07-.447h-.035c-.517,.65-.936,.734-1.195,.734-.51,0-.615-.517-.615-.888,0-.72,.72-2.278,1.796-2.278,.398,0,.559,.182,.566,.35h.014l.37-1.46c.007-.028,.014-.056,.014-.084,0-.091-.049-.14-.23-.14-.063,0-.14,.014-.189,.021l-.028-.104,1.09-.168-1.042,4.179Zm-.496-2.383c-.692,0-1.258,1.397-1.258,2.068,0,.342,.195,.461,.391,.461,.489,0,.951-.657,1.146-1.3,.077-.245,.112-.518,.112-.734,0-.329-.104-.496-.391-.496Z" fill="#231f20"/>
  </g>
  <g>
    <path d="M112.12,26.906c.396-.384,.863-.755,1.451-.755,.839,0,1.331,.828,1.331,1.811,0,1.451-1.307,3.61-3.19,3.61-.636,0-1.127-.216-1.667-.576l1.727-6.752c.012-.048,.024-.096,.024-.132-.012-.156-.192-.251-.348-.251-.12,0-.264,.012-.36,.048l-.036-.192,1.895-.288-.875,3.43,.048,.048Zm-1.127,4.09c0,.084,.384,.228,.66,.228,1.463,0,2.254-2.087,2.254-3.31,0-.84-.456-1.104-.852-1.104-.863,0-1.271,1.067-1.403,1.607l-.66,2.579Z" fill="#231f20"/>
    <path d="M116.088,34.898c-.007,.042-.007,.07-.007,.098,0,.049,.042,.07,.091,.07,.154,0,.196-.083,.447-.356l.091,.07c-.245,.314-.594,.733-.937,.733-.196,0-.279-.133-.279-.321,0-.084,0-.217,.552-2.362,.007-.014,.014-.062,.014-.083,0-.119-.056-.154-.217-.154-.063,0-.146,.014-.196,.028l-.021-.112,1.104-.154-.643,2.544Zm.517-3.096c-.203,0-.335-.14-.335-.321,0-.175,.133-.35,.335-.35,.182,0,.335,.175,.335,.35,0,.182-.154,.321-.335,.321Z" fill="#231f20"/>
  </g>
  <circle cx="54.373" cy="29.44" r="12.181" fill="none" stroke="#231f20" stroke-miterlimit="10" stroke-width=".75"/>
  <circle cx="114.068" cy="29.44" r="12.181" fill="none" stroke="#231f20" stroke-miterlimit="10" stroke-width=".75"/>
  <circle cx="114.068" cy="77.206" r="18.941" fill="none" stroke="#231f20" stroke-miterlimit="10" stroke-width="1.166"/>
  <circle cx="54.373" cy="58.264" r="12.181" fill="none" stroke="#231f20" stroke-miterlimit="10" stroke-width=".75"/>
  <circle cx="54.373" cy="124.056" r="12.181" fill="none" stroke="#231f20" stroke-miterlimit="10" stroke-width=".75"/>
  <path d="M121.02,87.971h-16.392l8.625-11.222-8.075-11.266h16.437v5.523h-.66c-.462-2.97-1.298-4.071-4.225-4.071h-7.041l6.381,8.604-7.393,9.549h9.109c2.464,0,3.256-1.496,3.741-3.697h.66l-1.167,6.579Z" fill="#231f20"/>
  <path d="M178.902,72.609c2.266,0,4.291,.836,4.291,3.41,0,1.716-.594,3.234-1.76,4.489-1.32,1.43-3.059,2.024-4.973,2.024l-1.056,3.784h-1.782l1.012-3.784c-2.376,0-4.202-1.232-4.202-3.763,0-1.672,.682-3.125,1.848-4.312,1.232-1.254,2.75-1.848,4.511-1.848h.352c.418-1.672,.814-3.345,1.166-5.017h1.804l-1.21,5.017Zm-1.893,.638c-2.86,0-4.73,2.949-4.73,5.567,0,1.386,1.012,3.059,2.552,3.059l2.178-8.625Zm-.396,8.625c2.663,0,4.708-3.323,4.708-5.743,0-1.738-.704-2.905-2.574-2.883l-2.134,8.625Z" fill="#231f20"/>
  <g>
    <path d="M229.523,79.389c1.342-1.826,2.112-3.146,2.597-4.048,.439-.814,.616-1.254,.616-1.65,0-.462-1.145-.682-1.145-1.518,0-.484,.396-.88,1.034-.88,.704,0,1.254,.506,1.254,1.364,0,1.716-3.564,6.997-4.488,8.164-1.606,2.024-3.036,4.18-4.533,4.18-.813,0-1.231-.682-1.231-1.21,0-.66,.594-.902,.88-.902,.946,0,.902,.682,1.254,.682,.374,0,1.629-1.364,2.2-2.244l-.836-6.909c-.11-.99-.308-2.31-1.54-2.31-.242,0-.594,.066-.792,.088l-.044-.352,3.3-.55c.507,.726,.66,1.298,.858,2.926l.616,5.17Z" fill="#231f20"/>
    <path d="M233.409,87.311c-.013,.077-.013,.128-.013,.18,0,.09,.077,.128,.167,.128,.282,0,.359-.154,.821-.654l.167,.128c-.449,.577-1.091,1.347-1.72,1.347-.359,0-.514-.244-.514-.59,0-.154,0-.398,1.014-4.337,.014-.025,.026-.115,.026-.154,0-.218-.103-.282-.398-.282-.115,0-.27,.025-.359,.051l-.038-.206,2.027-.282-1.181,4.671Zm.95-5.685c-.372,0-.616-.257-.616-.59,0-.321,.244-.642,.616-.642,.333,0,.615,.321,.615,.642,0,.333-.282,.59-.615,.59Z" fill="#231f20"/>
  </g>
  <rect x="158.551" y="58.264" width="37.453" height="37.453" fill="none" stroke="#231f20" stroke-miterlimit="10" stroke-width=".75"/>
  <g>
    <line x1="25.528" y1="28.44" x2="39.928" y2="28.44" fill="none" stroke="#231f20" stroke-miterlimit="10" stroke-width=".75"/>
    <g>
      <path d="M25.608,29.85c-.779,0-1.41-.631-1.41-1.41s.631-1.41,1.41-1.41,1.41,.631,1.41,1.41-.631,1.41-1.41,1.41Z" fill="#fff"/>
      <path d="M25.608,30.037c.881,0,1.597-.717,1.597-1.597s-.717-1.597-1.597-1.597-1.597,.717-1.597,1.597,.717,1.597,1.597,1.597-.881,0,0,0Zm0-2.82c.674,0,1.222,.548,1.222,1.222s-.548,1.222-1.222,1.222-1.222-.548-1.222-1.222,.548-1.222,1.222-1.222-.674,0,0,0Z" fill="#231f20"/>
    </g>
    <path d="M42.191,28.44c-1.065,.395-2.386,1.069-3.205,1.783l.645-1.783-.645-1.783c.819,.714,2.14,1.388,3.205,1.783Z" fill="#231f20"/>
  </g>
  <g>
    <line x1="25.528" y1="58.264" x2="39.928" y2="58.264" fill="none" stroke="#231f20" stroke-miterlimit="10" stroke-width=".75"/>
    <g>
      <path d="M25.608,59.674c-.779,0-1.41-.631-1.41-1.41s.631-1.41,1.41-1.41,1.41,.631,1.41,1.41-.631,1.41-1.41,1.41Z" fill="#fff"/>
      <path d="M25.608,59.862c.881,0,1.597-.717,1.597-1.597s-.717-1.597-1.597-1.597-1.597,.717-1.597,1.597,.717,1.597,1.597,1.597-.881,0,0,0Zm0-2.82c.674,0,1.222,.548,1.222,1.222s-.548,1.222-1.222,1.222-1.222-.548-1.222-1.222,.548-1.222,1.222-1.222-.674,0,0,0Z" fill="#231f20"/>
    </g>
    <path d="M42.191,58.264c-1.065,.395-2.386,1.069-3.205,1.783l.645-1.783-.645-1.783c.819,.714,2.14,1.388,3.205,1.783Z" fill="#231f20"/>
  </g>
  <g>
    <line x1="25.528" y1="125.056" x2="39.928" y2="125.056" fill="none" stroke="#231f20" stroke-miterlimit="10" stroke-width=".75"/>
    <g>
      <path d="M25.608,126.466c-.779,0-1.41-.631-1.41-1.41s.631-1.41,1.41-1.41,1.41,.631,1.41,1.41-.631,1.41-1.41,1.41Z" fill="#fff"/>
      <path d="M25.608,126.654c.881,0,1.597-.717,1.597-1.597s-.717-1.597-1.597-1.597-1.597,.717-1.597,1.597,.717,1.597,1.597,1.597-.881,0,0,0Zm0-2.82c.674,0,1.222,.548,1.222,1.222s-.548,1.222-1.222,1.222-1.222-.548-1.222-1.222,.548-1.222,1.222-1.222-.674,0,0,0Z" fill="#231f20"/>
    </g>
    <path d="M42.191,125.056c-1.065,.395-2.386,1.069-3.205,1.783l.645-1.783-.645-1.783c.819,.714,2.14,1.388,3.205,1.783Z" fill="#231f20"/>
  </g>
  <g>
    <polyline points="66.554 29.44 80.463 29.44 101.804 59.912" fill="none" stroke="#231f20" stroke-miterlimit="10" stroke-width=".75"/>
    <path d="M103.102,61.766c-.935-.646-2.245-1.341-3.299-1.602l1.831-.495,1.09-1.551c-.115,1.081,.091,2.55,.378,3.648Z" fill="#231f20"/>
  </g>
  <g>
    <polyline points="66.554 58.264 80.463 58.264 95.933 66.228" fill="none" stroke="#231f20" stroke-miterlimit="10" stroke-width=".75"/>
    <path d="M97.945,67.264c-1.128-.136-2.611-.141-3.666,.119l1.39-1.29,.243-1.881c.401,1.01,1.268,2.214,2.034,3.052Z" fill="#231f20"/>
  </g>
  <g>
    <polyline points="66.554 125.056 80.463 125.056 100.646 94.247" fill="none" stroke="#231f20" stroke-miterlimit="10" stroke-width=".75"/>
    <path d="M101.886,92.354c-.253,1.107-.413,2.582-.265,3.658l-1.138-1.517-1.845-.438c1.046-.294,2.334-1.03,3.248-1.704Z" fill="#231f20"/>
  </g>
  <g>
    <polyline points="114.068 41.621 114.068 48.441 114.068 56.001" fill="none" stroke="#231f20" stroke-miterlimit="10" stroke-width=".75"/>
    <path d="M114.068,58.264c-.395-1.065-1.069-2.386-1.783-3.205l1.783,.645,1.783-.645c-.714,.819-1.388,2.14-1.783,3.205Z" fill="#231f20"/>
  </g>
  <g>
    <polyline points="133.009 76.991 143.631 76.991 156.288 77.173" fill="none" stroke="#231f20" stroke-miterlimit="10" stroke-width=".75"/>
    <path d="M158.551,77.206c-1.07,.38-2.401,1.035-3.231,1.737l.671-1.774-.619-1.792c.809,.726,2.12,1.419,3.179,1.829Z" fill="#231f20"/>
  </g>
  <g>
    <polyline points="196.005 76.884 206.626 76.884 219.284 77.066" fill="none" stroke="#231f20" stroke-miterlimit="10" stroke-width=".75"/>
    <path d="M221.547,77.098c-1.071,.38-2.401,1.035-3.231,1.737l.671-1.774-.619-1.792c.809,.726,2.12,1.419,3.179,1.829Z" fill="#231f20"/>
  </g>
  <g>
    <path d="M13.814,79.403c0-.29,.064-.546,.193-.769s.308-.396,.537-.518,.486-.183,.769-.183c.267,0,.513,.064,.737,.193s.404,.309,.537,.542,.2,.491,.2,.774c0,.29-.062,.546-.188,.769s-.3,.395-.525,.515-.48,.181-.767,.181c-.283,0-.539-.064-.767-.193s-.406-.308-.535-.537-.193-.487-.193-.774Z" fill="#231f20"/>
    <path d="M13.814,83.837c0-.29,.064-.546,.193-.769s.308-.396,.537-.518,.486-.183,.769-.183c.267,0,.513,.064,.737,.193s.404,.309,.537,.542,.2,.491,.2,.774c0,.29-.062,.546-.188,.769s-.3,.395-.525,.515-.48,.181-.767,.181c-.283,0-.539-.064-.767-.193s-.406-.308-.535-.537-.193-.487-.193-.774Z" fill="#231f20"/>
    <path d="M13.814,88.27c0-.29,.064-.546,.193-.769s.308-.396,.537-.518,.486-.183,.769-.183c.267,0,.513,.064,.737,.193s.404,.309,.537,.542,.2,.491,.2,.774c0,.29-.062,.546-.188,.769s-.3,.395-.525,.515-.48,.181-.767,.181c-.283,0-.539-.064-.767-.193s-.406-.308-.535-.537-.193-.487-.193-.774Z" fill="#231f20"/>
    <path d="M13.814,92.704c0-.29,.064-.546,.193-.769s.308-.396,.537-.518,.486-.183,.769-.183c.267,0,.513,.064,.737,.193s.404,.309,.537,.542,.2,.491,.2,.774c0,.29-.062,.546-.188,.769s-.3,.395-.525,.515-.48,.181-.767,.181c-.283,0-.539-.064-.767-.193s-.406-.308-.535-.537-.193-.487-.193-.774Z" fill="#231f20"/>
    <path d="M13.814,97.138c0-.29,.064-.546,.193-.769s.308-.396,.537-.518,.486-.183,.769-.183c.267,0,.513,.064,.737,.193s.404,.309,.537,.542,.2,.491,.2,.774c0,.29-.062,.546-.188,.769s-.3,.395-.525,.515-.48,.181-.767,.181c-.283,0-.539-.064-.767-.193s-.406-.308-.535-.537-.193-.487-.193-.774Z" fill="#231f20"/>
    <path d="M13.814,101.571c0-.29,.064-.546,.193-.769s.308-.396,.537-.518,.486-.183,.769-.183c.267,0,.513,.064,.737,.193s.404,.309,.537,.542,.2,.491,.2,.774c0,.29-.062,.546-.188,.769s-.3,.395-.525,.515-.48,.181-.767,.181c-.283,0-.539-.064-.767-.193s-.406-.308-.535-.537-.193-.487-.193-.774Z" fill="#231f20"/>
  </g>
  <g>
    <path d="M49.96,79.403c0-.29,.064-.546,.193-.769s.308-.396,.537-.518,.486-.183,.769-.183c.267,0,.513,.064,.737,.193s.404,.309,.537,.542,.2,.491,.2,.774c0,.29-.062,.546-.188,.769s-.3,.395-.525,.515-.48,.181-.767,.181c-.283,0-.539-.064-.767-.193s-.406-.308-.535-.537-.193-.487-.193-.774Z" fill="#231f20"/>
    <path d="M49.96,83.837c0-.29,.064-.546,.193-.769s.308-.396,.537-.518,.486-.183,.769-.183c.267,0,.513,.064,.737,.193s.404,.309,.537,.542,.2,.491,.2,.774c0,.29-.062,.546-.188,.769s-.3,.395-.525,.515-.48,.181-.767,.181c-.283,0-.539-.064-.767-.193s-.406-.308-.535-.537-.193-.487-.193-.774Z" fill="#231f20"/>
    <path d="M49.96,88.27c0-.29,.064-.546,.193-.769s.308-.396,.537-.518,.486-.183,.769-.183c.267,0,.513,.064,.737,.193s.404,.309,.537,.542,.2,.491,.2,.774c0,.29-.062,.546-.188,.769s-.3,.395-.525,.515-.48,.181-.767,.181c-.283,0-.539-.064-.767-.193s-.406-.308-.535-.537-.193-.487-.193-.774Z" fill="#231f20"/>
    <path d="M49.96,92.704c0-.29,.064-.546,.193-.769s.308-.396,.537-.518,.486-.183,.769-.183c.267,0,.513,.064,.737,.193s.404,.309,.537,.542,.2,.491,.2,.774c0,.29-.062,.546-.188,.769s-.3,.395-.525,.515-.48,.181-.767,.181c-.283,0-.539-.064-.767-.193s-.406-.308-.535-.537-.193-.487-.193-.774Z" fill="#231f20"/>
    <path d="M49.96,97.138c0-.29,.064-.546,.193-.769s.308-.396,.537-.518,.486-.183,.769-.183c.267,0,.513,.064,.737,.193s.404,.309,.537,.542,.2,.491,.2,.774c0,.29-.062,.546-.188,.769s-.3,.395-.525,.515-.48,.181-.767,.181c-.283,0-.539-.064-.767-.193s-.406-.308-.535-.537-.193-.487-.193-.774Z" fill="#231f20"/>
    <path d="M49.96,101.571c0-.29,.064-.546,.193-.769s.308-.396,.537-.518,.486-.183,.769-.183c.267,0,.513,.064,.737,.193s.404,.309,.537,.542,.2,.491,.2,.774c0,.29-.062,.546-.188,.769s-.3,.395-.525,.515-.48,.181-.767,.181c-.283,0-.539-.064-.767-.193s-.406-.308-.535-.537-.193-.487-.193-.774Z" fill="#231f20"/>
  </g>
  <g>
    <path d="M46.473,142.577l-1.231,5.838c-.018,.064-.053,.119-.105,.163s-.121,.066-.203,.066h-.879c-.076,0-.142-.022-.198-.066s-.089-.101-.101-.171l-.95-4.563c-.023-.117-.047-.233-.07-.348-.023-.114-.047-.227-.07-.338h-.185c-.023,.111-.045,.226-.066,.343-.021,.118-.042,.232-.066,.343l-.941,4.563c-.018,.07-.054,.127-.11,.171s-.122,.066-.198,.066h-.888c-.076,0-.142-.022-.198-.066s-.089-.098-.101-.163l-1.231-5.838h.818l.949,4.73c.023,.111,.044,.23,.062,.356,.018,.126,.038,.257,.062,.392h.203c.023-.135,.047-.264,.07-.387,.023-.123,.047-.243,.07-.36l.94-4.475c.012-.076,.045-.138,.101-.185s.122-.07,.198-.07h.844c.076,0,.141,.023,.193,.07s.088,.108,.105,.185l.941,4.475c.029,.129,.054,.255,.075,.378s.037,.247,.048,.37h.22c.018-.123,.035-.248,.053-.374,.018-.126,.038-.248,.062-.365l.958-4.739h.818Z" fill="#231f20"/>
    <path d="M49.031,144.257c.645,0,1.112,.117,1.402,.352,.29,.234,.435,.583,.435,1.046,.006,.381-.073,.679-.237,.893s-.425,.321-.783,.321h-2.497v-.581h2.303c.193,0,.319-.066,.378-.198s.088-.277,.088-.435c-.006-.275-.088-.472-.246-.589s-.428-.176-.809-.176c-.311,0-.556,.046-.734,.137s-.305,.249-.378,.475-.11,.541-.11,.945c0,.458,.045,.806,.136,1.046,.091,.241,.236,.404,.435,.493,.199,.088,.463,.132,.792,.132,.229,0,.479-.01,.751-.031s.518-.045,.734-.075l.079,.501c-.135,.053-.3,.097-.497,.132-.197,.035-.399,.062-.607,.079s-.394,.026-.558,.026c-.493,0-.888-.075-1.187-.224s-.518-.39-.655-.721c-.138-.331-.207-.769-.207-1.314,0-.563,.069-1.007,.207-1.332,.138-.326,.352-.557,.642-.695s.664-.207,1.121-.207Z" fill="#231f20"/>
    <path d="M52.574,142.542c.152,0,.229,.076,.229,.229v.501c0,.153-.076,.229-.229,.229h-.352c-.153,0-.229-.076-.229-.229v-.501c0-.152,.076-.229,.229-.229h.352Zm.193,1.82v4.282h-.739v-4.282h.739Z" fill="#231f20"/>
    <path d="M54.658,146.701l.431,.062c-.1,.088-.167,.195-.202,.321s-.025,.242,.031,.347,.174,.173,.356,.202l1.6,.255c.405,.059,.686,.185,.844,.378s.237,.469,.237,.826c0,.334-.063,.598-.189,.792s-.338,.331-.638,.413c-.299,.082-.703,.123-1.213,.123-.387,0-.712-.022-.976-.066s-.476-.117-.637-.22c-.162-.103-.277-.236-.348-.4s-.105-.37-.105-.616c0-.188,.028-.344,.083-.47s.144-.239,.264-.338,.277-.196,.471-.29l.527-.291,.343,.123-.431,.326c-.117,.088-.215,.174-.294,.259s-.138,.176-.176,.272-.057,.212-.057,.347c0,.199,.038,.352,.114,.458s.211,.177,.404,.215,.463,.057,.809,.057,.614-.021,.804-.062,.324-.114,.4-.22,.115-.255,.115-.449c0-.146-.02-.258-.057-.334-.039-.076-.11-.135-.216-.176s-.261-.076-.466-.105l-1.539-.211c-.182-.023-.327-.082-.435-.176-.109-.094-.184-.205-.224-.334-.042-.129-.053-.259-.035-.391s.062-.255,.132-.369,.161-.201,.272-.259Zm1.213-2.444c.457,0,.819,.047,1.085,.141s.458,.24,.572,.439c.114,.2,.171,.46,.171,.783,0,.311-.057,.567-.171,.769-.114,.203-.307,.352-.576,.449s-.633,.145-1.09,.145-.819-.048-1.086-.145-.457-.245-.572-.444c-.114-.199-.171-.454-.171-.765,0-.322,.057-.584,.171-.787,.115-.202,.307-.35,.576-.444s.633-.141,1.09-.141Zm-.009,.571c-.428,0-.726,.061-.893,.181s-.25,.324-.25,.611c0,.281,.083,.483,.25,.606s.464,.185,.893,.185c.434,0,.732-.062,.896-.185s.246-.325,.246-.606c0-.287-.082-.491-.246-.611s-.463-.181-.896-.181Zm2.338-.466l-.044,.413-1.09,.088-.308-.501h1.442Z" fill="#231f20"/>
    <path d="M59.827,142.49l.009,1.697c0,.193-.007,.375-.022,.545-.015,.17-.037,.32-.066,.449l.079,.132v3.332h-.748v-6.154h.748Zm1.855,1.767c.774,0,1.161,.393,1.161,1.178v3.209h-.756v-2.998c0-.287-.046-.485-.137-.593s-.248-.163-.47-.163c-.264,0-.527,.062-.791,.185-.264,.123-.578,.302-.941,.536l-.035-.536c.334-.252,.665-.452,.994-.598,.328-.146,.653-.22,.976-.22Z" fill="#231f20"/>
    <path d="M66.624,144.362v.589h-2.884v-.545l.844-.044h2.04Zm-1.363-1.266v4.37c0,.206,.044,.352,.132,.439,.088,.088,.237,.132,.449,.132h.65l.088,.571c-.094,.023-.202,.044-.325,.062s-.243,.031-.36,.04c-.118,.009-.211,.013-.282,.013-.357,0-.63-.1-.817-.299s-.281-.486-.281-.862v-4.466h.747Z" fill="#231f20"/>
    <path d="M68.962,144.257c.188,0,.387,.006,.598,.018s.42,.026,.628,.044,.4,.041,.576,.07l-.062,.545c-.27-.011-.541-.022-.813-.031s-.543-.013-.813-.013c-.264-.005-.472,0-.625,.018s-.262,.065-.33,.141-.101,.205-.101,.387c0,.223,.053,.369,.158,.439s.261,.129,.466,.176l1.249,.281c.34,.083,.59,.208,.752,.378,.161,.17,.242,.437,.242,.8,0,.352-.066,.616-.198,.792s-.333,.293-.603,.352-.612,.088-1.028,.088c-.153,0-.38-.006-.682-.018s-.634-.047-.998-.105l.053-.545c.141,.006,.291,.013,.449,.022s.324,.013,.497,.013h.532c.322,0,.575-.015,.756-.044s.311-.086,.387-.172c.076-.084,.114-.212,.114-.382,0-.211-.062-.352-.185-.422s-.287-.129-.492-.176l-1.231-.281c-.234-.059-.422-.136-.562-.233-.141-.097-.244-.223-.308-.378s-.097-.35-.097-.584c0-.334,.059-.586,.176-.756,.117-.17,.299-.284,.545-.343s.562-.085,.949-.079Z" fill="#231f20"/>
  </g>
  <g>
    <path d="M160.231,137.158c.07,0,.132,.02,.185,.058s.088,.089,.105,.153l1.952,5.855h-.8l-1.574-4.976c-.023-.082-.048-.166-.075-.251s-.051-.166-.075-.242h-.246c-.023,.076-.047,.157-.07,.242s-.05,.169-.079,.251l-1.574,4.976h-.8l1.952-5.855c.018-.064,.053-.115,.105-.153,.053-.038,.115-.058,.185-.058h.809Zm1.125,3.499v.669h-3.077v-.669h3.077Z" fill="#231f20"/>
    <path d="M165.075,138.837c.129,0,.272,.006,.431,.018s.321,.032,.488,.062,.321,.07,.462,.123l-.097,.483c-.194-.018-.397-.031-.611-.04s-.397-.013-.549-.013c-.34,0-.61,.047-.809,.141s-.343,.258-.431,.492-.132,.56-.132,.977,.044,.742,.132,.979,.231,.403,.431,.497,.469,.141,.809,.141c.088,0,.202-.003,.343-.009s.292-.015,.453-.026,.315-.029,.462-.053l.079,.501c-.217,.076-.453,.132-.708,.167s-.508,.053-.76,.053c-.493,0-.888-.073-1.187-.22s-.514-.384-.646-.712c-.132-.328-.198-.768-.198-1.318s.067-.991,.202-1.319,.352-.564,.651-.708,.694-.215,1.187-.215Z" fill="#231f20"/>
    <path d="M169.981,138.943v.589h-2.884v-.545l.844-.044h2.04Zm-1.363-1.267v4.37c0,.205,.044,.352,.132,.439s.237,.132,.449,.132h.65l.088,.571c-.094,.023-.202,.044-.325,.062s-.243,.031-.36,.04c-.118,.009-.211,.013-.282,.013-.357,0-.63-.1-.817-.299s-.281-.486-.281-.861v-4.467h.747Z" fill="#231f20"/>
    <path d="M171.476,137.122c.152,0,.229,.076,.229,.229v.501c0,.153-.076,.229-.229,.229h-.352c-.153,0-.229-.075-.229-.229v-.501c0-.152,.076-.229,.229-.229h.352Zm.193,1.82v4.281h-.739v-4.281h.739Z" fill="#231f20"/>
    <path d="M176.882,138.943l-1.565,4.097c-.023,.059-.057,.104-.101,.137s-.098,.048-.163,.048h-.677c-.059,0-.111-.016-.158-.048s-.082-.078-.105-.137l-1.565-4.097h.8l1.055,2.998c.047,.123,.091,.249,.132,.378s.082,.252,.124,.369h.114c.047-.123,.092-.247,.136-.374,.044-.126,.086-.25,.127-.373l1.055-2.998h.791Z" fill="#231f20"/>
    <path d="M180.83,140.586l-.009,.563-2.049,.009c-.205,.006-.349,.06-.431,.162s-.123,.245-.123,.427v.272c0,.223,.053,.386,.158,.488s.275,.153,.51,.153c.164,0,.35-.03,.559-.092,.208-.062,.417-.157,.628-.286s.404-.293,.58-.492v.554c-.064,.082-.157,.178-.277,.286s-.264,.214-.431,.316-.352,.188-.554,.255c-.203,.067-.421,.101-.655,.101-.252,0-.475-.045-.668-.136s-.345-.226-.453-.404-.163-.397-.163-.655v-.466c0-.334,.104-.594,.312-.778,.208-.185,.5-.277,.875-.277h2.189Zm-1.117-1.749c.316,0,.584,.042,.804,.127,.22,.085,.386,.228,.497,.427s.167,.472,.167,.817v3.016h-.589l-.114-.932-.053-.097v-1.987c0-.264-.06-.452-.18-.566-.12-.115-.35-.172-.69-.172-.223,0-.503,.012-.84,.035s-.669,.05-.998,.079l-.07-.554c.199-.035,.418-.067,.655-.097s.479-.053,.725-.07c.247-.018,.475-.026,.686-.026Z" fill="#231f20"/>
    <path d="M184.954,138.943v.589h-2.884v-.545l.844-.044h2.04Zm-1.363-1.267v4.37c0,.205,.044,.352,.132,.439s.237,.132,.449,.132h.65l.088,.571c-.094,.023-.202,.044-.325,.062s-.243,.031-.36,.04c-.118,.009-.211,.013-.282,.013-.357,0-.63-.1-.817-.299s-.281-.486-.281-.861v-4.467h.747Z" fill="#231f20"/>
    <path d="M186.448,137.122c.152,0,.229,.076,.229,.229v.501c0,.153-.076,.229-.229,.229h-.352c-.153,0-.229-.075-.229-.229v-.501c0-.152,.076-.229,.229-.229h.352Zm.193,1.82v4.281h-.739v-4.281h.739Z" fill="#231f20"/>
    <path d="M189.859,138.837c.492,0,.886,.073,1.183,.22,.296,.146,.508,.386,.637,.717s.193,.769,.193,1.314-.064,.982-.193,1.313c-.129,.332-.341,.57-.637,.717-.296,.146-.69,.22-1.183,.22-.487,0-.878-.073-1.174-.22s-.51-.385-.642-.717c-.132-.331-.198-.769-.198-1.313s.066-.983,.198-1.314c.132-.331,.346-.57,.642-.717s.687-.22,1.174-.22Zm0,.633c-.311,0-.556,.048-.734,.146-.179,.097-.306,.262-.382,.496s-.114,.56-.114,.977,.038,.741,.114,.976,.204,.399,.382,.497c.179,.097,.423,.145,.734,.145s.557-.048,.738-.145c.182-.098,.311-.263,.387-.497s.115-.56,.115-.976-.039-.742-.115-.977-.205-.399-.387-.496c-.182-.098-.428-.146-.738-.146Z" fill="#231f20"/>
    <path d="M193.675,138.943l.062,.817,.053,.132v3.332h-.748v-4.281h.633Zm1.969-.105c.774,0,1.161,.393,1.161,1.178v3.209h-.747v-2.998c0-.287-.047-.484-.141-.593s-.252-.163-.475-.163c-.264,0-.527,.064-.791,.193-.264,.129-.578,.305-.941,.527l-.035-.536c.334-.258,.665-.459,.994-.603,.328-.144,.653-.215,.976-.215Z" fill="#231f20"/>
    <path d="M161.87,146.162c.282,0,.566,.002,.853,.005s.571,.007,.853,.013c.282,.006,.551,.021,.809,.044l-.044,.598h-2.277c-.205,0-.354,.046-.448,.137s-.141,.239-.141,.444v4.835h-.773v-4.984c0-.347,.105-.614,.316-.805s.495-.286,.853-.286Zm-1.02,2.646h3.156v.624h-3.156v-.624Z" fill="#231f20"/>
    <path d="M165.959,147.956v3.007c-.006,.27,.044,.46,.149,.571s.281,.167,.527,.167c.24,0,.479-.057,.717-.171,.237-.115,.523-.28,.857-.497l.097,.519c-.334,.264-.658,.463-.972,.598s-.632,.202-.954,.202c-.779,0-1.169-.393-1.169-1.178v-3.218h.748Zm2.919,0v4.281h-.598l-.07-.809-.08-.132v-3.341h.748Z" fill="#231f20"/>
    <path d="M170.882,147.956l.062,.817,.053,.132v3.332h-.748v-4.281h.633Zm1.969-.105c.774,0,1.161,.393,1.161,1.178v3.209h-.747v-2.998c0-.287-.047-.484-.141-.593s-.252-.163-.475-.163c-.264,0-.527,.064-.791,.193-.264,.129-.578,.305-.941,.527l-.035-.536c.334-.258,.665-.459,.994-.603,.328-.144,.653-.215,.976-.215Z" fill="#231f20"/>
    <path d="M177.186,147.851c.129,0,.272,.006,.431,.018s.321,.032,.488,.062,.321,.07,.462,.123l-.097,.483c-.194-.018-.397-.031-.611-.04s-.397-.013-.549-.013c-.34,0-.61,.047-.809,.141s-.343,.258-.431,.492-.132,.56-.132,.977,.044,.742,.132,.979,.231,.403,.431,.497,.469,.141,.809,.141c.088,0,.202-.003,.343-.009s.292-.015,.453-.026,.315-.029,.462-.053l.079,.501c-.217,.076-.453,.132-.708,.167s-.508,.053-.76,.053c-.493,0-.888-.073-1.187-.22s-.514-.384-.646-.712c-.132-.328-.198-.768-.198-1.318s.067-.991,.202-1.319,.352-.564,.651-.708,.694-.215,1.187-.215Z" fill="#231f20"/>
    <path d="M182.092,147.956v.589h-2.884v-.545l.844-.044h2.04Zm-1.363-1.267v4.37c0,.205,.044,.352,.132,.439s.237,.132,.449,.132h.65l.088,.571c-.094,.023-.202,.044-.325,.062s-.243,.031-.36,.04c-.118,.009-.211,.013-.282,.013-.357,0-.63-.1-.817-.299s-.281-.486-.281-.861v-4.467h.747Z" fill="#231f20"/>
    <path d="M183.586,146.136c.152,0,.229,.076,.229,.229v.501c0,.153-.076,.229-.229,.229h-.352c-.153,0-.229-.075-.229-.229v-.501c0-.152,.076-.229,.229-.229h.352Zm.193,1.82v4.281h-.739v-4.281h.739Z" fill="#231f20"/>
    <path d="M186.998,147.851c.492,0,.886,.073,1.183,.22,.296,.146,.508,.386,.637,.717s.193,.769,.193,1.314-.064,.982-.193,1.313c-.129,.332-.341,.57-.637,.717-.296,.146-.69,.22-1.183,.22-.487,0-.878-.073-1.174-.22s-.51-.385-.642-.717c-.132-.331-.198-.769-.198-1.313s.066-.983,.198-1.314c.132-.331,.346-.57,.642-.717s.687-.22,1.174-.22Zm0,.633c-.311,0-.556,.048-.734,.146-.179,.097-.306,.262-.382,.496s-.114,.56-.114,.977,.038,.741,.114,.976,.204,.399,.382,.497c.179,.097,.423,.145,.734,.145s.557-.048,.738-.145c.182-.098,.311-.263,.387-.497s.115-.56,.115-.976-.039-.742-.115-.977-.205-.399-.387-.496c-.182-.098-.428-.146-.738-.146Z" fill="#231f20"/>
    <path d="M190.813,147.956l.062,.817,.053,.132v3.332h-.748v-4.281h.633Zm1.969-.105c.774,0,1.161,.393,1.161,1.178v3.209h-.747v-2.998c0-.287-.047-.484-.141-.593s-.252-.163-.475-.163c-.264,0-.527,.064-.791,.193-.264,.129-.578,.305-.941,.527l-.035-.536c.334-.258,.665-.459,.994-.603,.328-.144,.653-.215,.976-.215Z" fill="#231f20"/>
  </g>
  <g>
    <path d="M95.618,142.472c.287,.006,.583,.021,.888,.044s.61,.067,.915,.132l-.053,.562c-.252-.012-.531-.022-.835-.031s-.598-.013-.879-.013c-.217,0-.403,.007-.559,.022s-.283,.05-.382,.105c-.1,.056-.171,.147-.215,.273s-.066,.3-.066,.523c0,.334,.06,.567,.18,.699s.315,.23,.584,.295l1.231,.308c.469,.111,.79,.306,.963,.584s.259,.652,.259,1.121c0,.352-.04,.636-.119,.853s-.201,.382-.365,.497-.375,.193-.633,.237-.562,.066-.914,.066c-.2,0-.459-.009-.778-.026s-.687-.064-1.104-.141l.053-.571c.346,.012,.625,.022,.835,.031s.393,.013,.545,.013h.475c.311,0,.555-.023,.734-.07s.305-.141,.378-.282,.11-.349,.11-.624c0-.234-.026-.416-.08-.545-.053-.129-.136-.228-.25-.295s-.259-.122-.435-.163l-1.257-.316c-.439-.111-.749-.305-.927-.58-.179-.275-.269-.645-.269-1.108,0-.352,.04-.634,.119-.849,.079-.214,.199-.375,.361-.483,.161-.108,.365-.18,.611-.215s.539-.053,.879-.053Z" fill="#231f20"/>
    <path d="M99.503,144.362v3.007c-.006,.27,.044,.46,.149,.572s.281,.167,.527,.167c.24,0,.479-.057,.717-.171,.237-.115,.523-.28,.857-.497l.097,.519c-.334,.264-.658,.463-.972,.598s-.632,.202-.954,.202c-.779,0-1.169-.393-1.169-1.178v-3.218h.748Zm2.919,0v4.282h-.598l-.07-.809-.08-.132v-3.341h.748Z" fill="#231f20"/>
    <path d="M104.409,144.362l.053,.818,.079,.132v3.332h-.748v-4.282h.616Zm1.793-.105c.363,0,.642,.098,.835,.294,.193,.197,.293,.491,.299,.884v3.209h-.721v-2.998c0-.275-.056-.47-.167-.584-.111-.115-.278-.172-.501-.172-.146,0-.289,.024-.426,.07-.138,.047-.291,.124-.458,.229s-.371,.246-.611,.422l-.053-.527c.311-.276,.612-.482,.906-.62,.293-.138,.592-.207,.896-.207Zm2.805,0c.369,0,.652,.1,.849,.299,.196,.199,.294,.493,.294,.879v3.209h-.739v-2.998c-.006-.264-.059-.456-.158-.576s-.27-.181-.51-.181c-.152,0-.298,.025-.435,.075-.138,.05-.289,.128-.453,.233s-.363,.243-.598,.413l-.044-.527c.311-.276,.612-.482,.905-.62,.293-.138,.589-.207,.888-.207Z" fill="#231f20"/>
    <path d="M112.111,144.362l.053,.818,.079,.132v3.332h-.748v-4.282h.616Zm1.793-.105c.363,0,.642,.098,.835,.294,.193,.197,.293,.491,.299,.884v3.209h-.721v-2.998c0-.275-.056-.47-.167-.584-.111-.115-.278-.172-.501-.172-.146,0-.289,.024-.426,.07-.138,.047-.291,.124-.458,.229s-.371,.246-.611,.422l-.053-.527c.311-.276,.612-.482,.906-.62,.293-.138,.592-.207,.896-.207Zm2.805,0c.369,0,.652,.1,.849,.299,.196,.199,.294,.493,.294,.879v3.209h-.739v-2.998c-.006-.264-.059-.456-.158-.576s-.27-.181-.51-.181c-.152,0-.298,.025-.435,.075-.138,.05-.289,.128-.453,.233s-.363,.243-.598,.413l-.044-.527c.311-.276,.612-.482,.905-.62,.293-.138,.589-.207,.888-.207Z" fill="#231f20"/>
    <path d="M122.336,146.006l-.009,.563-2.049,.009c-.205,.006-.349,.06-.431,.163s-.123,.245-.123,.426v.272c0,.223,.053,.386,.158,.488s.275,.154,.51,.154c.164,0,.35-.031,.559-.092,.208-.062,.417-.157,.628-.286,.211-.129,.404-.293,.58-.492v.554c-.064,.083-.157,.178-.277,.286s-.264,.214-.431,.316-.352,.188-.554,.255c-.203,.067-.421,.101-.655,.101-.252,0-.475-.045-.668-.136s-.345-.226-.453-.404-.163-.397-.163-.655v-.466c0-.334,.104-.593,.312-.778,.208-.185,.5-.277,.875-.277h2.189Zm-1.117-1.75c.316,0,.584,.042,.804,.127,.22,.085,.386,.227,.497,.426,.111,.2,.167,.472,.167,.818v3.016h-.589l-.114-.932-.053-.097v-1.987c0-.264-.06-.453-.18-.567-.12-.115-.35-.172-.69-.172-.223,0-.503,.012-.84,.035-.337,.024-.669,.05-.998,.08l-.07-.554c.199-.035,.418-.067,.655-.097s.479-.053,.725-.07c.247-.018,.475-.026,.686-.026Z" fill="#231f20"/>
    <path d="M126.46,144.362v.589h-2.884v-.545l.844-.044h2.04Zm-1.363-1.266v4.37c0,.206,.044,.352,.132,.439,.088,.088,.237,.132,.449,.132h.65l.088,.571c-.094,.023-.202,.044-.325,.062s-.243,.031-.36,.04c-.118,.009-.211,.013-.282,.013-.357,0-.63-.1-.817-.299s-.281-.486-.281-.862v-4.466h.747Z" fill="#231f20"/>
    <path d="M127.954,142.542c.152,0,.229,.076,.229,.229v.501c0,.153-.076,.229-.229,.229h-.352c-.153,0-.229-.076-.229-.229v-.501c0-.152,.076-.229,.229-.229h.352Zm.193,1.82v4.282h-.739v-4.282h.739Z" fill="#231f20"/>
    <path d="M131.365,144.257c.492,0,.886,.073,1.183,.22,.296,.146,.508,.386,.637,.717s.193,.769,.193,1.314-.064,.983-.193,1.314c-.129,.332-.341,.57-.637,.717-.296,.146-.69,.22-1.183,.22-.487,0-.878-.073-1.174-.22s-.51-.385-.642-.717c-.132-.331-.198-.769-.198-1.314s.066-.983,.198-1.314c.132-.331,.346-.57,.642-.717s.687-.22,1.174-.22Zm0,.633c-.311,0-.556,.048-.734,.146-.179,.097-.306,.262-.382,.497s-.114,.56-.114,.976,.038,.741,.114,.976,.204,.4,.382,.497c.179,.097,.423,.145,.734,.145s.557-.048,.738-.145c.182-.097,.311-.263,.387-.497s.115-.56,.115-.976-.039-.742-.115-.976-.205-.4-.387-.497c-.182-.097-.428-.146-.738-.146Z" fill="#231f20"/>
    <path d="M135.181,144.362l.062,.818,.053,.132v3.332h-.748v-4.282h.633Zm1.969-.105c.774,0,1.161,.393,1.161,1.178v3.209h-.747v-2.998c0-.287-.047-.485-.141-.593s-.252-.163-.475-.163c-.264,0-.527,.065-.791,.194-.264,.129-.578,.305-.941,.527l-.035-.536c.334-.258,.665-.459,.994-.603,.328-.144,.653-.215,.976-.215Z" fill="#231f20"/>
  </g>
  <g>
    <path d="M218.132,142.463c.439,0,.813,.053,1.121,.158s.554,.28,.738,.523,.319,.567,.405,.972c.084,.404,.127,.903,.127,1.495s-.043,1.09-.127,1.495c-.085,.404-.22,.729-.405,.972s-.431,.417-.738,.523-.682,.158-1.121,.158-.813-.053-1.121-.158-.555-.28-.743-.523c-.188-.243-.324-.567-.409-.972s-.127-.902-.127-1.495,.042-1.09,.127-1.495,.221-.729,.409-.972c.188-.243,.435-.417,.743-.523s.682-.158,1.121-.158Zm0,.694c-.398,0-.714,.076-.945,.229-.231,.153-.396,.406-.492,.761s-.145,.843-.145,1.464c0,.615,.048,1.102,.145,1.459s.261,.612,.492,.765c.231,.153,.547,.229,.945,.229s.713-.076,.945-.229c.231-.152,.396-.407,.492-.765s.145-.844,.145-1.459c0-.621-.048-1.109-.145-1.464s-.261-.608-.492-.761c-.232-.152-.547-.229-.945-.229Z" fill="#231f20"/>
    <path d="M222.476,144.362v3.007c-.006,.27,.043,.46,.148,.572s.281,.167,.527,.167c.24,0,.48-.057,.717-.171,.238-.115,.523-.28,.857-.497l.098,.519c-.335,.264-.658,.463-.973,.598-.312,.135-.631,.202-.953,.202-.78,0-1.17-.393-1.17-1.178v-3.218h.748Zm2.918,0v4.282h-.598l-.07-.809-.079-.132v-3.341h.747Z" fill="#231f20"/>
    <path d="M229.2,144.362v.589h-2.883v-.545l.844-.044h2.039Zm-1.362-1.266v4.37c0,.206,.044,.352,.132,.439,.088,.088,.237,.132,.449,.132h.65l.088,.571c-.094,.023-.203,.044-.326,.062s-.242,.031-.359,.04c-.118,.009-.212,.013-.282,.013-.357,0-.63-.1-.817-.299s-.281-.486-.281-.862v-4.466h.747Z" fill="#231f20"/>
    <path d="M230.732,144.362l.078,.888,.053,.114v2.743l-.035,.105c.018,.164,.028,.322,.031,.475s.004,.313,.004,.483v1.24h-.747v-6.049h.616Zm1.837-.105c.521,0,.897,.192,1.126,.576,.229,.384,.342,.948,.342,1.693,0,.551-.059,.989-.176,1.314-.117,.326-.294,.559-.531,.699s-.541,.211-.91,.211c-.281,0-.559-.038-.831-.114s-.538-.193-.796-.352l.045-.449c.275,.077,.518,.14,.729,.189,.212,.05,.435,.075,.669,.075,.252,0,.452-.044,.603-.132,.148-.088,.26-.247,.33-.475s.105-.551,.105-.967c0-.405-.033-.724-.098-.958s-.166-.403-.303-.505c-.139-.103-.321-.154-.55-.154-.234,0-.466,.056-.694,.167s-.496,.281-.801,.51l-.07-.501c.158-.17,.338-.317,.537-.44s.408-.218,.629-.286c.219-.067,.435-.101,.646-.101Z" fill="#231f20"/>
    <path d="M235.936,144.362v3.007c-.006,.27,.044,.46,.149,.572s.281,.167,.527,.167c.24,0,.479-.057,.717-.171,.237-.115,.523-.28,.857-.497l.097,.519c-.335,.264-.658,.463-.972,.598s-.632,.202-.954,.202c-.779,0-1.169-.393-1.169-1.178v-3.218h.747Zm2.919,0v4.282h-.598l-.07-.809-.08-.132v-3.341h.748Z" fill="#231f20"/>
    <path d="M242.661,144.362v.589h-2.884v-.545l.845-.044h2.039Zm-1.363-1.266v4.37c0,.206,.045,.352,.133,.439,.088,.088,.236,.132,.448,.132h.65l.088,.571c-.094,.023-.202,.044-.325,.062s-.243,.031-.36,.04c-.118,.009-.212,.013-.282,.013-.357,0-.629-.1-.816-.299s-.281-.486-.281-.862v-4.466h.746Z" fill="#231f20"/>
  </g>
  <g>
    <path d="M108.34,5.337c.498,0,.894,.046,1.187,.137,.293,.091,.505,.25,.637,.479s.198,.552,.198,.968c0,.434-.081,.765-.242,.993s-.423,.36-.787,.396v.035c.451,.041,.766,.199,.945,.475,.179,.276,.268,.657,.268,1.144,0,.416-.064,.738-.193,.967s-.335,.389-.62,.479c-.285,.091-.658,.136-1.121,.136-.346,0-.643,0-.893-.004-.249-.003-.479-.011-.69-.022s-.431-.026-.659-.044l.123-.615c.129,.006,.374,.012,.734,.018s.781,.009,1.262,.009c.322,0,.576-.027,.76-.083,.185-.056,.317-.16,.396-.312s.119-.372,.119-.659c0-.316-.041-.56-.123-.73-.082-.17-.22-.29-.414-.36-.193-.07-.457-.108-.791-.114h-1.952v-.589h1.943c.293-.006,.526-.036,.699-.092s.298-.159,.374-.309,.114-.358,.114-.628c0-.275-.041-.486-.123-.633-.083-.146-.219-.247-.409-.3s-.45-.079-.778-.079h-.774c-.229,0-.429,.002-.602,.005s-.318,.01-.435,.021l-.123-.615c.205-.023,.4-.039,.584-.048s.387-.015,.606-.018,.479-.005,.778-.005Zm-1.213,.07v6.066h-.756V5.408h.756Z" fill="#231f20"/>
    <path d="M112.323,5.372c.152,0,.229,.076,.229,.229v.501c0,.153-.076,.229-.229,.229h-.352c-.153,0-.229-.075-.229-.229v-.501c0-.152,.076-.229,.229-.229h.352Zm.193,1.82v4.281h-.739V7.193h.739Z" fill="#231f20"/>
    <path d="M117.062,8.836l-.009,.563-2.049,.009c-.205,.006-.349,.06-.431,.162s-.123,.245-.123,.427v.272c0,.223,.053,.386,.158,.488s.275,.153,.51,.153c.164,0,.35-.03,.559-.092,.208-.062,.417-.157,.628-.286s.404-.293,.58-.492v.554c-.064,.082-.157,.178-.277,.286s-.264,.214-.431,.316-.352,.188-.554,.255c-.203,.067-.421,.101-.655,.101-.252,0-.475-.045-.668-.136s-.345-.226-.453-.404-.163-.397-.163-.655v-.466c0-.334,.104-.594,.312-.778,.208-.185,.5-.277,.875-.277h2.189Zm-1.117-1.749c.316,0,.584,.042,.804,.127,.22,.085,.386,.228,.497,.427s.167,.472,.167,.817v3.016h-.589l-.114-.932-.053-.097v-1.987c0-.264-.06-.452-.18-.566-.12-.115-.35-.172-.69-.172-.223,0-.503,.012-.84,.035s-.669,.05-.998,.079l-.07-.554c.199-.035,.418-.067,.655-.097s.479-.053,.725-.07c.247-.018,.475-.026,.686-.026Z" fill="#231f20"/>
    <path d="M120.173,7.087c.188,0,.387,.006,.598,.018s.42,.026,.628,.044,.4,.041,.576,.07l-.062,.545c-.27-.012-.541-.022-.813-.031s-.543-.013-.813-.013c-.264-.006-.472,0-.625,.018s-.262,.064-.33,.141-.101,.205-.101,.387c0,.223,.053,.369,.158,.439s.261,.129,.466,.176l1.249,.281c.34,.083,.59,.209,.752,.379,.161,.17,.242,.437,.242,.8,0,.352-.066,.615-.198,.791s-.333,.293-.603,.352-.612,.088-1.028,.088c-.153,0-.38-.006-.682-.018s-.634-.047-.998-.105l.053-.545c.141,.006,.291,.014,.449,.022s.324,.013,.497,.013h.532c.322,0,.575-.015,.756-.044s.311-.086,.387-.172c.076-.084,.114-.212,.114-.382,0-.211-.062-.352-.185-.422s-.287-.129-.492-.176l-1.231-.281c-.234-.059-.422-.137-.562-.233-.141-.097-.244-.223-.308-.378s-.097-.351-.097-.585c0-.334,.059-.586,.176-.756s.299-.284,.545-.343,.562-.085,.949-.079Z" fill="#231f20"/>
  </g>
  <g>
    <path d="M7.286,142.577v6.066h-.773v-6.066h.773Z" fill="#231f20"/>
    <path d="M9.369,144.362l.062,.818,.053,.132v3.332h-.748v-4.282h.633Zm1.969-.105c.774,0,1.161,.393,1.161,1.178v3.209h-.747v-2.998c0-.287-.047-.485-.141-.593s-.252-.163-.475-.163c-.264,0-.527,.065-.791,.194-.264,.129-.578,.305-.941,.527l-.035-.536c.334-.258,.665-.459,.994-.603,.328-.144,.653-.215,.976-.215Z" fill="#231f20"/>
    <path d="M14.46,144.362l.079,.888,.053,.114v2.743l-.035,.105c.018,.164,.028,.322,.031,.475s.004,.313,.004,.483v1.24h-.748v-6.049h.616Zm1.837-.105c.521,0,.897,.192,1.125,.576,.229,.384,.343,.948,.343,1.693,0,.551-.059,.989-.176,1.314-.117,.326-.294,.559-.532,.699s-.541,.211-.91,.211c-.281,0-.558-.038-.831-.114-.272-.076-.538-.193-.795-.352l.044-.449c.275,.077,.519,.14,.729,.189,.211,.05,.434,.075,.668,.075,.252,0,.453-.044,.602-.132,.149-.088,.26-.247,.33-.475s.105-.551,.105-.967c0-.405-.032-.724-.097-.958-.065-.234-.166-.403-.304-.505s-.321-.154-.549-.154c-.234,0-.466,.056-.694,.167-.229,.111-.496,.281-.8,.51l-.07-.501c.158-.17,.337-.317,.536-.44s.409-.218,.629-.286,.435-.101,.646-.101Z" fill="#231f20"/>
    <path d="M19.665,144.362v3.007c-.006,.27,.044,.46,.149,.572s.281,.167,.527,.167c.24,0,.479-.057,.717-.171,.237-.115,.523-.28,.857-.497l.097,.519c-.334,.264-.658,.463-.972,.598s-.632,.202-.954,.202c-.779,0-1.169-.393-1.169-1.178v-3.218h.748Zm2.919,0v4.282h-.598l-.07-.809-.08-.132v-3.341h.748Z" fill="#231f20"/>
    <path d="M26.39,144.362v.589h-2.884v-.545l.844-.044h2.04Zm-1.363-1.266v4.37c0,.206,.044,.352,.132,.439,.088,.088,.237,.132,.449,.132h.65l.088,.571c-.094,.023-.202,.044-.325,.062s-.243,.031-.36,.04c-.118,.009-.211,.013-.282,.013-.357,0-.63-.1-.817-.299s-.281-.486-.281-.862v-4.466h.747Z" fill="#231f20"/>
  </g>
</svg>